<svg width="22" height="22" viewBox="0 0 22 22" fill="none" xmlns="http://www.w3.org/2000/svg">
<path d="M19.5937 15.0391C19.5152 15.0839 19.4286 15.1127 19.3389 15.124C19.2492 15.1353 19.1582 15.1288 19.071 15.1048C18.9839 15.0809 18.9023 15.04 18.8309 14.9845C18.7596 14.9289 18.6999 14.8599 18.6553 14.7813L17.0225 11.9282C16.0732 12.57 15.026 13.0535 13.9218 13.3599L14.4263 16.3866C14.4412 16.4757 14.4383 16.5669 14.418 16.6549C14.3976 16.7429 14.3601 16.826 14.3076 16.8995C14.2551 16.973 14.1886 17.0355 14.1119 17.0833C14.0353 17.1311 13.9499 17.1633 13.8608 17.1781C13.8242 17.1841 13.7871 17.1872 13.75 17.1875C13.5873 17.1873 13.43 17.1294 13.306 17.0241C13.1821 16.9189 13.0994 16.7731 13.0728 16.6126L12.5769 13.6409C11.5312 13.7864 10.4704 13.7864 9.42472 13.6409L8.92886 16.6126C8.90218 16.7734 8.81928 16.9194 8.69494 17.0247C8.57059 17.13 8.41289 17.1877 8.24996 17.1875C8.21195 17.1874 8.17402 17.1842 8.13652 17.1781C8.0474 17.1633 7.96207 17.1311 7.88542 17.0833C7.80876 17.0355 7.74227 16.973 7.68975 16.8995C7.63724 16.826 7.59972 16.7429 7.57936 16.6549C7.55899 16.5669 7.55617 16.4757 7.57105 16.3866L8.07808 13.3599C6.97433 13.0526 5.92775 12.5682 4.97918 11.9256L3.35152 14.7813C3.26035 14.9401 3.10981 15.0563 2.93301 15.1041C2.75622 15.152 2.56765 15.1277 2.40878 15.0365C2.24992 14.9454 2.13379 14.7948 2.08592 14.618C2.03805 14.4412 2.06238 14.2526 2.15355 14.0938L3.8723 11.086C3.26859 10.5644 2.71345 9.98913 2.21371 9.36722C2.15138 9.29764 2.1039 9.21608 2.07414 9.12753C2.04438 9.03899 2.03299 8.9453 2.04064 8.8522C2.0483 8.7591 2.07485 8.66854 2.11867 8.58604C2.16249 8.50354 2.22266 8.43084 2.29551 8.37237C2.36837 8.3139 2.45237 8.27089 2.5424 8.24597C2.63243 8.22104 2.72659 8.21473 2.81914 8.22741C2.91169 8.24008 3.00068 8.27149 3.08069 8.31971C3.1607 8.36792 3.23004 8.43194 3.28449 8.50785C4.71105 10.273 7.20668 12.375 11 12.375C14.7932 12.375 17.2889 10.2704 18.7154 8.50785C18.7692 8.43039 18.8384 8.36483 18.9187 8.31526C18.9989 8.26568 19.0885 8.23315 19.1819 8.21969C19.2752 8.20622 19.3704 8.21211 19.4614 8.23699C19.5523 8.26187 19.6372 8.30521 19.7108 8.36431C19.7843 8.42341 19.8448 8.497 19.8887 8.58051C19.9325 8.66402 19.9587 8.75566 19.9657 8.84973C19.9726 8.94381 19.9601 9.03829 19.9289 9.12732C19.8977 9.21635 19.8486 9.29801 19.7845 9.36722C19.2847 9.98913 18.7296 10.5644 18.1259 11.086L19.8446 14.0938C19.8908 14.1722 19.9209 14.259 19.9333 14.3491C19.9456 14.4392 19.94 14.5309 19.9166 14.6189C19.8933 14.7068 19.8527 14.7892 19.7973 14.8613C19.7419 14.9335 19.6727 14.9939 19.5937 15.0391Z" fill="#F6F8FA"/>
</svg>
