<svg width="22" height="22" viewBox="0 0 22 22" fill="none" xmlns="http://www.w3.org/2000/svg">
<path d="M20 11C20.0005 11.2141 19.9456 11.4247 19.8406 11.6114C19.7356 11.798 19.5841 11.9543 19.4008 12.065L8.04227 19.0136C7.85077 19.1308 7.63144 19.1949 7.40692 19.199C7.18241 19.2032 6.96085 19.1473 6.76514 19.0372C6.57129 18.9288 6.40981 18.7708 6.29731 18.5793C6.1848 18.3878 6.12532 18.1698 6.125 17.9477V4.05223C6.12532 3.83014 6.1848 3.61214 6.29731 3.42066C6.40981 3.22917 6.57129 3.07111 6.76514 2.96273C6.96085 2.85263 7.18241 2.79678 7.40692 2.80094C7.63144 2.80509 7.85077 2.86911 8.04227 2.98638L19.4008 9.93491C19.5841 10.0457 19.7356 10.2019 19.8406 10.3886C19.9456 10.5752 20.0005 10.7858 20 11Z" fill="white"/>
</svg>
