<svg width="32" height="32" viewBox="0 0 32 32" fill="none" xmlns="http://www.w3.org/2000/svg">
<rect x="0.571429" y="0.571429" width="30.8571" height="30.8571" rx="12" fill="#1A1B1E" stroke="#2B2C30" stroke-width="1.14286"/>
<path d="M24.4999 15.2497V21.5958C24.4999 22.4373 24.1656 23.2444 23.5705 23.8395C22.9754 24.4345 22.1684 24.7688 21.3268 24.7688H16.8845C16.7162 24.7688 16.5548 24.702 16.4358 24.583C16.3168 24.4639 16.2499 24.3025 16.2499 24.1342C16.2499 23.9659 16.3168 23.8045 16.4358 23.6855C16.5548 23.5665 16.7162 23.4996 16.8845 23.4996H21.3268C21.8317 23.4996 22.316 23.299 22.673 22.942C23.0301 22.5849 23.2306 22.1007 23.2306 21.5958H21.3268C20.8219 21.5958 20.3376 21.3952 19.9806 21.0382C19.6236 20.6811 19.423 20.1969 19.423 19.6919V16.5189C19.423 16.014 19.6236 15.5297 19.9806 15.1727C20.3376 14.8156 20.8219 14.6151 21.3268 14.6151H23.2029C23.0828 13.2958 22.5898 12.038 21.7815 10.9885C20.9732 9.93894 19.883 9.14108 18.6381 8.68806C17.3933 8.23505 16.0453 8.14559 14.7515 8.43012C13.4577 8.71466 12.2716 9.36145 11.3317 10.295C10.163 11.4483 9.44209 12.9794 9.29778 14.6151H11.1731C11.678 14.6151 12.1622 14.8156 12.5193 15.1727C12.8763 15.5297 13.0769 16.014 13.0769 16.5189V19.6919C13.0769 20.1969 12.8763 20.6811 12.5193 21.0382C12.1622 21.3952 11.678 21.5958 11.1731 21.5958H9.90383C9.3989 21.5958 8.91466 21.3952 8.55762 21.0382C8.20058 20.6811 8 20.1969 8 19.6919V15.2497C8.00178 13.6155 8.48835 12.0185 9.39813 10.661C10.3079 9.30344 11.6 8.24632 13.1108 7.62344C14.6217 7.00056 16.2833 6.83991 17.8855 7.16183C19.4877 7.48375 20.9584 8.27376 22.1114 9.43188C22.8726 10.1968 23.4754 11.1045 23.8853 12.1028C24.2951 13.1011 24.504 14.1705 24.4999 15.2497Z" fill="#CBCDD3"/>
</svg>
