<svg width="22" height="22" viewBox="0 0 22 22" fill="none" xmlns="http://www.w3.org/2000/svg">
<path d="M7.76354 4.61139C7.69967 4.54751 7.649 4.47168 7.61443 4.38822C7.57986 4.30477 7.56207 4.21532 7.56207 4.12498C7.56207 4.03465 7.57986 3.9452 7.61443 3.86174C7.649 3.77828 7.69967 3.70245 7.76354 3.63858C7.82742 3.5747 7.90325 3.52403 7.98671 3.48946C8.07017 3.45489 8.15961 3.4371 8.24995 3.4371C8.34028 3.4371 8.42973 3.45489 8.51319 3.48946C8.59665 3.52403 8.67248 3.5747 8.73636 3.63858L15.6114 10.5136C15.6753 10.5774 15.726 10.6533 15.7606 10.7367C15.7952 10.8202 15.813 10.9096 15.813 11C15.813 11.0903 15.7952 11.1798 15.7606 11.2633C15.726 11.3467 15.6753 11.4225 15.6114 11.4864L8.73635 18.3614C8.60735 18.4904 8.43238 18.5629 8.24995 18.5629C8.06751 18.5629 7.89254 18.4904 7.76354 18.3614C7.63454 18.2324 7.56206 18.0574 7.56206 17.875C7.56206 17.6925 7.63454 17.5176 7.76354 17.3886L14.153 11L7.76354 4.61139Z" fill="#F6F8FA"/>
</svg>
