<svg width="44" height="44" viewBox="0 0 44 44" fill="none" xmlns="http://www.w3.org/2000/svg">
<path d="M14.6574 1.12252C14.4476 1.23027 14.8559 1.51381 14.924 1.73497C14.992 1.95613 15.1054 1.92778 15.1735 2.14894C15.2415 2.3701 15.0997 2.41547 15.1678 2.6423C15.2358 2.86913 15.2982 2.84645 15.3663 3.07328C15.4343 3.30011 15.474 3.2831 15.5421 3.50993C15.6101 3.73677 15.3493 3.81616 15.4173 4.03732C15.4854 4.25848 15.7179 4.19043 15.7859 4.41726C15.854 4.64409 15.837 4.64977 15.905 4.87093C15.9731 5.09209 16.0354 5.07508 16.1035 5.30191C16.1715 5.52874 16.1035 5.54575 16.1715 5.77258C16.2396 5.99942 16.4097 5.94838 16.4778 6.16954C16.5458 6.3907 16.2396 6.48711 16.3076 6.71394C16.3757 6.94077 16.3587 6.94077 16.4267 7.1676C16.4948 7.39444 16.5685 7.37175 16.6365 7.59291C16.7046 7.81408 16.6932 7.81975 16.7613 8.04658C16.8293 8.27341 16.6536 8.32445 16.7216 8.54561C16.7896 8.76677 16.784 8.77244 16.852 8.9936C16.9201 9.21477 17.0902 9.1694 17.1583 9.39056C17.2263 9.61172 17.1866 9.62873 17.2603 9.85557C17.334 10.0824 17.4418 10.0484 17.5098 10.2695C17.5779 10.4907 17.6233 10.4794 17.697 10.7062C17.7707 10.933 17.5495 10.9954 17.6176 11.2222C17.6856 11.4491 18.0486 11.3356 18.1166 11.5625C18.1847 11.7893 17.697 11.9368 17.765 12.1579C17.8331 12.3791 18.3378 12.2316 18.4058 12.4528C18.4739 12.674 18.1563 12.776 18.2244 13.0029C18.2924 13.2297 18.4966 13.1673 18.5646 13.3942C18.6327 13.621 18.7631 13.5813 18.8368 13.8081C18.9105 14.035 18.6837 14.0179 18.5419 14.2051C18.4002 14.3922 18.5022 14.1314 18.2754 14.1087C18.0486 14.086 18.0259 14.3242 17.7991 14.3072C17.5722 14.2901 17.5949 13.9839 17.3624 13.9669C17.1299 13.9499 17.1015 14.3695 16.869 14.3525C16.6365 14.3355 16.6365 14.3752 16.404 14.3582C16.1715 14.3412 16.2112 13.8705 15.9787 13.8535C15.7462 13.8365 15.7235 14.1314 15.4967 14.1143C15.2699 14.0973 15.2869 13.8024 15.0601 13.7854C14.8332 13.7684 14.8219 13.8365 14.595 13.8195C14.3682 13.8024 14.3399 14.0917 14.113 14.0746C13.8862 14.0576 13.8919 13.9442 13.6594 13.9272C13.4269 13.9102 13.4269 13.9102 13.2 13.8875C12.9732 13.8648 12.9619 13.9272 12.735 13.9102C12.5082 13.8932 12.4912 14.052 12.2587 14.0293C12.0262 14.0066 12.0489 13.689 11.822 13.672C11.5952 13.655 11.6859 13.6607 11.5895 13.8762C11.4931 14.0917 11.5442 13.8818 11.7143 14.035C11.8844 14.1881 11.9298 14.1314 12.0999 14.2788C12.27 14.4262 12.27 14.4262 12.4401 14.5793C12.6103 14.7325 12.7123 14.6134 12.8825 14.7665C13.0526 14.9196 12.8711 15.1237 13.0412 15.2769C13.2114 15.43 13.3021 15.3222 13.4722 15.4753C13.6424 15.6284 13.4382 15.8553 13.6083 16.0027C13.7785 16.1502 13.9996 15.9063 14.1697 16.0594C14.3399 16.2125 14.1471 16.4224 14.3172 16.5755C14.4873 16.7286 14.5383 16.6719 14.7085 16.825C14.8786 16.9781 14.975 16.8647 15.1451 17.0178C15.3152 17.1709 15.3152 17.1709 15.4854 17.3183C15.6555 17.4658 15.4457 17.704 15.6215 17.8571C15.7973 18.0102 15.7576 18.0499 15.9277 18.203C16.0978 18.3561 16.4948 18.0839 16.4551 18.3051C16.4154 18.5262 16.1885 18.2881 15.9731 18.3845C15.7576 18.4809 15.9107 18.8098 15.6952 18.9062C15.4797 19.0026 15.3833 18.7757 15.1735 18.8665C14.9637 18.9572 14.9693 18.9799 14.7595 19.0763C14.5497 19.1727 14.4873 19.0366 14.2775 19.1273C14.0677 19.2181 14.1811 19.4789 13.9656 19.5753C13.7501 19.6717 13.6367 19.4052 13.4212 19.4959C13.2057 19.5867 13.3191 19.8362 13.1036 19.9269C12.8881 20.0177 12.8258 19.8702 12.6103 19.9666C12.3948 20.063 12.3607 19.9836 12.1509 20.0744C11.9411 20.1651 12.0659 20.46 11.856 20.5564C11.6462 20.6528 11.5555 20.4486 11.34 20.5394C11.1245 20.6301 11.1188 20.6188 10.909 20.7152C10.6992 20.8116 10.8296 21.1064 10.6141 21.2029C10.3987 21.2993 10.2569 20.976 10.0471 21.0668C9.83724 21.1575 9.76352 21.0044 9.5537 21.1008C9.34388 21.1972 9.39492 21.3163 9.17943 21.407C8.96394 21.4977 9.07735 21.7472 8.86186 21.8437C8.64637 21.9401 8.601 21.821 8.38551 21.9174C8.17002 22.0138 8.17002 22.0024 7.95453 22.0932C7.73904 22.1839 7.83545 22.3937 7.61995 22.4901C7.40446 22.5865 7.24001 22.2009 7.02452 22.2973C6.80903 22.3937 6.86574 22.5071 6.65025 22.5979C6.43476 22.6886 6.56518 22.9721 6.34969 23.0685C6.1342 23.165 6.04914 22.9608 5.83365 23.0572C5.61816 23.1536 5.51609 22.9211 5.30627 23.0175C5.09645 23.1139 5.15882 23.2557 4.94333 23.3521C4.72784 23.4485 4.82425 23.664 4.61443 23.7547C4.40461 23.8454 4.3479 23.7264 4.13241 23.8228C3.91692 23.9192 3.84887 23.7661 3.63905 23.8625C3.42923 23.9589 3.571 24.2821 3.35551 24.3785C3.14002 24.4749 3.06063 24.2934 2.85081 24.3898C2.64099 24.4863 2.66367 24.543 2.44818 24.6394C2.23269 24.7358 2.09659 24.4295 1.88677 24.5259C1.67695 24.6223 1.67128 24.6167 1.45579 24.7131C1.2403 24.8095 1.05316 24.9002 1.10987 25.1327C1.16658 25.3652 1.35371 25.0703 1.59189 25.0533C1.83006 25.0363 1.83006 25.0817 2.06256 25.0647C2.29507 25.0477 2.28373 24.8662 2.5219 24.8549C2.76007 24.8435 2.76574 24.9853 3.00392 24.9739C3.24209 24.9626 3.23642 24.9513 3.47459 24.9342C3.71277 24.9172 3.71844 25.059 3.95661 25.042C4.19479 25.025 4.1721 24.6734 4.40461 24.6564C4.63711 24.6394 4.67113 25.11 4.90931 25.093C5.14748 25.076 5.1248 24.7471 5.3573 24.7301C5.58981 24.7131 5.60115 24.8775 5.83932 24.8605C6.07749 24.8435 6.08317 24.9399 6.31567 24.9229C6.54817 24.9059 6.55951 25.0477 6.79769 25.0306C7.03586 25.0136 7.02452 24.9116 7.26269 24.8945C7.50087 24.8775 7.48953 24.7244 7.7277 24.7074C7.96587 24.6904 7.9602 24.6507 8.19838 24.6337C8.43655 24.6167 8.44789 24.8435 8.68607 24.8265C8.92424 24.8095 8.89022 24.3728 9.12839 24.3558C9.36656 24.3388 9.36656 24.3615 9.60474 24.3502C9.84291 24.3388 9.85425 24.5203 10.0924 24.5033C10.3306 24.4862 10.3419 24.6734 10.5801 24.6564C10.8183 24.6394 10.8126 24.5827 11.0451 24.5656C11.2776 24.5486 11.289 24.6677 11.5271 24.6507C11.7653 24.6337 11.7483 24.4352 11.9865 24.4182C12.2246 24.4012 12.2303 24.5203 12.4628 24.5033C12.6953 24.4862 12.684 24.2254 12.9165 24.2084C13.149 24.1914 13.1717 24.4466 13.4098 24.4295C13.648 24.4125 13.648 24.4295 13.8862 24.4182C14.1244 24.4069 14.096 24.0099 14.3342 23.9929C14.5724 23.9759 14.595 24.2991 14.8276 24.2878C15.0601 24.2764 15.0714 24.3615 15.3096 24.3445C15.5477 24.3275 15.5421 24.3105 15.7802 24.2934C16.0184 24.2764 16.0184 24.2764 16.2509 24.2594C16.4834 24.2424 16.4891 24.2821 16.7273 24.2708C16.9654 24.2594 16.9371 23.8568 17.1753 23.8398C17.4134 23.8228 17.4248 24.0042 17.663 23.9872C17.9011 23.9702 18.0316 23.7604 18.162 23.9645C18.2924 24.1687 18.0542 24.197 17.9352 24.4069C17.8161 24.6167 17.7083 24.5543 17.5892 24.7584C17.4701 24.9626 17.5325 25.0023 17.4134 25.2121C17.2944 25.4219 17.3624 25.4616 17.2433 25.6658C17.1242 25.8699 17.0108 25.8075 16.8861 26.0174C16.7613 26.2272 16.6819 26.1762 16.5628 26.386C16.4437 26.5958 16.5685 26.6638 16.4494 26.8737C16.3303 27.0835 16.3246 27.0778 16.2056 27.2876C16.0865 27.4974 16.3473 27.6449 16.2226 27.8547C16.0978 28.0645 15.8143 27.9001 15.6952 28.1099C15.5761 28.3197 15.8426 28.4728 15.7235 28.6826C15.6045 28.8925 15.474 28.8187 15.3549 29.0286C15.2358 29.2384 15.3152 29.2838 15.1962 29.4936C15.0771 29.7034 15.0147 29.6637 14.8956 29.8735C14.7765 30.0833 14.6744 30.021 14.5554 30.2308C14.4363 30.4406 14.4136 30.4293 14.2945 30.6391C14.1754 30.8489 14.3625 30.9566 14.2435 31.1665C14.1244 31.3763 14.1584 31.399 14.0393 31.6088C13.9202 31.8186 13.6197 31.5861 13.7728 31.7732C13.9259 31.9604 13.8408 31.8867 14.0563 31.7902C14.2718 31.6938 14.3399 31.8526 14.5554 31.7562C14.7708 31.6598 14.7198 31.5464 14.9353 31.45C15.1508 31.3536 15.2132 31.5067 15.4287 31.4103C15.6441 31.3139 15.5421 31.0927 15.7576 30.9963C15.9731 30.8999 15.888 30.7015 16.1035 30.6107C16.319 30.52 16.4834 30.8943 16.6989 30.7979C16.9144 30.7015 16.8237 30.4916 17.0392 30.3952C17.2547 30.2988 17.2263 30.2308 17.4418 30.14C17.6573 30.0493 17.7367 30.2194 17.9522 30.1287C18.1677 30.038 18.162 30.0153 18.3775 29.9189C18.593 29.8225 18.6043 29.8452 18.8198 29.7544C19.0353 29.6637 19.0807 29.7544 19.2961 29.6637C19.5116 29.573 19.3472 29.1873 19.5627 29.0909C19.7782 28.9945 19.8349 29.1193 20.0504 29.0229C20.2659 28.9265 20.2942 28.9832 20.5097 28.8925C20.7252 28.8017 20.7138 28.7734 20.9293 28.6826C21.1448 28.5919 21.1902 28.6826 21.4057 28.5919C21.6212 28.5012 21.6042 28.4558 21.8197 28.3594C22.0351 28.263 22.1259 28.4615 22.3414 28.3594C22.5569 28.2573 22.5739 27.6959 22.761 27.8434C22.9481 27.9908 22.5398 28.1553 22.4945 28.3821C22.4491 28.6089 22.5512 28.6316 22.5058 28.8584C22.4605 29.0853 22.5058 29.0966 22.4661 29.3234C22.4264 29.5503 22.5058 29.5673 22.4605 29.7941C22.4151 30.021 22.2506 29.9869 22.1996 30.2138C22.1486 30.4406 22.2336 30.4576 22.1883 30.6844C22.1429 30.9113 22.2336 30.9283 22.1883 31.1551C22.1429 31.382 21.8026 31.3139 21.7573 31.5407C21.7119 31.7676 21.78 31.7846 21.7346 32.0114C21.6892 32.2382 21.7856 32.2553 21.7346 32.4821C21.6836 32.7089 21.7856 32.7259 21.7346 32.9528C21.6836 33.1796 21.383 33.1172 21.3376 33.344C21.2923 33.5709 21.5531 33.6276 21.5078 33.8544C21.4624 34.0813 21.3717 34.0642 21.3263 34.2854C21.2809 34.5066 21.2979 34.5179 21.2526 34.7447C21.2072 34.9716 20.969 34.9205 20.9237 35.1474C20.8783 35.3742 20.884 35.3742 20.8386 35.601C20.7932 35.8279 21.3093 35.9356 21.2639 36.1624C21.2185 36.3893 20.7762 36.2985 20.7252 36.5254C20.6742 36.7522 20.6685 36.7522 20.6231 36.979C20.5777 37.2059 20.6515 37.2229 20.6061 37.4497C20.5607 37.6765 20.5607 37.6765 20.5154 37.9034C20.47 38.1302 20.419 38.1189 20.3679 38.3457C20.3169 38.5725 20.6458 38.6406 20.6004 38.8674C20.5551 39.0942 20.2999 39.0432 20.2488 39.27C20.1978 39.4969 20.419 39.5422 20.3679 39.7691C20.3169 39.9959 20.3679 40.0072 20.3226 40.2341C20.2772 40.4609 19.8859 40.3815 19.8349 40.6084C19.7838 40.8352 20.0107 40.8862 19.9596 41.1131C19.9086 41.3399 19.54 41.6971 19.7555 41.7879C19.971 41.8786 20.0447 41.4193 20.1808 41.2265C20.3169 41.0337 20.3623 41.062 20.4984 40.8749C20.6345 40.6877 20.5721 40.6367 20.7082 40.4439C20.8443 40.2511 20.952 40.3305 21.0881 40.1377C21.2242 39.9449 21.2242 39.9449 21.3603 39.7577C21.4964 39.5706 21.2809 39.4118 21.4227 39.2247C21.5645 39.0375 21.5985 39.0602 21.7346 38.8674C21.8707 38.6746 21.9614 38.737 22.0975 38.5499C22.2336 38.3627 22.3584 38.4478 22.5002 38.255C22.6419 38.0622 22.2563 37.79 22.3924 37.5972C22.5285 37.4043 22.8007 37.5972 22.9368 37.4043C23.0729 37.2115 23.2033 37.3079 23.3394 37.1151C23.4755 36.9223 23.3451 36.8316 23.4812 36.6445C23.6173 36.4573 23.3621 36.2702 23.4982 36.0774C23.6343 35.8846 24.0313 36.1681 24.1674 35.981C24.3035 35.7938 24.122 35.6577 24.2581 35.4706C24.3942 35.2835 24.173 35.119 24.3148 34.9262C24.4566 34.7334 24.5927 34.8355 24.7288 34.6427C24.8649 34.4499 24.9953 34.5406 25.1314 34.3478C25.2675 34.155 25.3015 34.1777 25.4376 33.9849C25.5737 33.792 25.6304 33.8317 25.7665 33.6389C25.9026 33.4461 25.6191 33.242 25.7552 33.0492C25.8913 32.8564 26.0898 32.9981 26.2315 32.8053C26.3733 32.6125 26.1011 32.4197 26.2372 32.2269C26.3733 32.0341 26.5264 32.1418 26.6625 31.949C26.7986 31.7562 26.9744 31.881 27.1105 31.6882C27.2466 31.4954 27.1672 31.4387 27.3033 31.2459C27.4394 31.053 27.3374 30.9793 27.4791 30.7865C27.6209 30.5937 27.4848 30.503 27.6266 30.3045C27.7683 30.106 28.1483 30.3839 28.29 30.1911C28.4318 29.9983 28.1199 29.5673 28.3581 29.5843C28.5963 29.6013 28.6019 29.7885 28.7097 29.9983C28.8174 30.2081 28.8118 30.2138 28.9252 30.4236C29.0386 30.6334 28.9138 30.6958 29.0273 30.9056C29.1407 31.1154 29.2484 31.053 29.3618 31.2629C29.4752 31.4727 29.5603 31.4273 29.6681 31.6371C29.7758 31.847 29.7304 31.8696 29.8382 32.0795C29.9459 32.2893 30.031 32.2439 30.1387 32.4537C30.2465 32.6636 30.099 32.7429 30.2124 32.9528C30.3259 33.1626 30.1954 33.2306 30.3089 33.4405C30.4223 33.6503 30.3259 33.7013 30.4393 33.9055C30.5527 34.1096 30.5527 34.1153 30.6604 34.3194C30.7682 34.5236 31.1141 34.3478 31.2275 34.5576C31.3409 34.7674 30.944 34.9772 31.0517 35.1871C31.1595 35.3969 31.1822 35.3855 31.2956 35.5954C31.409 35.8052 31.6528 35.6748 31.7662 35.8846C31.8797 36.0944 31.5961 36.2418 31.7095 36.4517C31.823 36.6615 32.1916 36.463 32.305 36.6728C32.4184 36.8826 32.39 36.894 32.5035 37.1038C32.6169 37.3136 32.2369 37.5121 32.3447 37.7219C32.4524 37.9317 32.6055 37.8523 32.7189 38.0622C32.8324 38.272 32.9458 38.2096 33.0592 38.4251C33.1726 38.6406 33.3087 38.5612 33.4221 38.7767C33.5355 38.9922 33.1953 39.1453 33.4278 39.1056C33.6603 39.0659 33.5355 39.0659 33.5355 38.8334C33.5355 38.6009 33.201 38.6009 33.201 38.3684C33.201 38.1359 33.3427 38.1359 33.3427 37.9034C33.3427 37.6709 33.2974 37.6709 33.2974 37.4384C33.2974 37.2059 33.4221 37.2059 33.4221 36.9734C33.4221 36.7409 33.5866 36.7409 33.5866 36.5084C33.5866 36.2759 33.3597 36.2759 33.3597 36.0434C33.3597 35.8109 33.4618 35.8109 33.4618 35.5783C33.4618 35.3458 33.5923 35.3458 33.5923 35.1133C33.5923 34.8808 33.201 34.8808 33.201 34.6483C33.201 34.4158 33.3087 34.4158 33.3087 34.1833C33.3087 33.9508 33.2577 33.9508 33.2577 33.7183C33.2577 33.4858 33.6319 33.4858 33.6319 33.2533C33.6319 33.0208 33.4448 33.0208 33.4448 32.7883C33.4448 32.5558 33.5299 32.5558 33.5299 32.3233C33.5299 32.0908 33.7397 32.0908 33.7397 31.8583C33.7397 31.6258 33.5526 31.6258 33.5526 31.3933C33.5526 31.1608 33.6943 31.1608 33.6943 30.9283C33.6943 30.6958 33.6263 30.6958 33.6263 30.4633C33.6263 30.2308 33.3314 30.2308 33.3314 29.9983C33.3314 29.7658 33.4732 29.7658 33.4732 29.5333C33.4732 29.3008 33.4561 29.3008 33.4561 29.0683C33.4561 28.8358 33.6887 28.8358 33.6887 28.6033C33.6887 28.3708 33.1953 28.3708 33.1953 28.1382C33.1953 27.9057 33.4902 27.9057 33.4902 27.6676C33.4902 27.4294 33.6943 27.4351 33.6943 27.1969C33.6943 26.9587 33.1613 26.6979 33.3541 26.5674C33.5469 26.437 33.6773 26.8566 33.8985 26.936C34.1196 27.0154 34.1026 27.0608 34.3295 27.1402C34.5563 27.2196 34.6754 26.851 34.9022 26.9247C35.129 26.9984 35.0553 27.2082 35.2765 27.2876C35.4976 27.367 35.475 27.4351 35.7018 27.5145C35.9286 27.5939 35.9173 27.6052 36.1441 27.6846C36.3709 27.764 36.3199 27.9001 36.5411 27.9738C36.7622 28.0475 36.7736 28.0248 36.9947 28.1042C37.2159 28.1836 37.2216 28.1666 37.4484 28.246C37.6752 28.3254 37.6469 28.4048 37.868 28.4785C38.0892 28.5522 38.1232 28.4558 38.3501 28.5352C38.5769 28.6146 38.5315 28.745 38.7527 28.8187C38.9738 28.8925 39.0306 28.7394 39.2517 28.8187C39.4729 28.8981 39.4332 29.0116 39.66 29.0909C39.8868 29.1703 40.04 28.7167 40.2611 28.7904C40.4823 28.8641 40.3462 29.2724 40.573 29.3461C40.7998 29.4199 40.9246 29.0626 41.1458 29.1363C41.3669 29.21 41.2478 29.5786 41.469 29.658C41.6902 29.7374 41.9567 29.9416 42.0985 29.7488C42.2402 29.556 41.8376 29.4652 41.6845 29.2951C41.5314 29.125 41.4803 29.1703 41.3216 28.9945C41.1628 28.8187 40.987 28.9889 40.8282 28.8187C40.6694 28.6486 40.9019 28.4388 40.7431 28.2687C40.5844 28.0986 40.7091 27.9851 40.5503 27.8207C40.3915 27.6562 40.4483 27.5995 40.2951 27.4294C40.142 27.2593 39.8075 27.5655 39.6487 27.3954C39.4899 27.2252 39.7281 27.0098 39.5693 26.8396C39.4105 26.6695 39.2347 26.8283 39.0759 26.6582C38.9171 26.488 38.8548 26.5448 38.7016 26.3746C38.5485 26.2045 38.6506 26.1081 38.4918 25.938C38.333 25.7679 38.4635 25.6488 38.3104 25.4786C38.1572 25.3085 37.9247 25.5183 37.7716 25.3425C37.6185 25.1667 37.6866 25.1044 37.5335 24.9286C37.3803 24.7528 37.3463 24.7868 37.1875 24.6167C37.0288 24.4466 37.0174 24.4579 36.8643 24.2821C36.7112 24.1063 36.9324 23.9078 36.7736 23.732C36.6148 23.5562 36.6261 23.5506 36.4673 23.3804C36.3086 23.2103 36.2122 23.3011 36.0534 23.1253C35.8946 22.9495 36.0534 22.8134 35.8946 22.6432C35.7358 22.4731 35.4012 22.7793 35.2425 22.6035C35.0837 22.4277 35.3502 22.1896 35.1914 22.0138C35.0326 21.838 34.9192 21.9457 34.7604 21.7699C34.6017 21.5941 34.5109 21.6792 34.5449 21.4467C34.579 21.2142 34.6867 21.3957 34.8909 21.2822C35.095 21.1688 34.9703 20.9363 35.1744 20.8229C35.3786 20.7095 35.4409 20.8172 35.6451 20.7038C35.8492 20.5904 35.8039 20.5053 36.008 20.3919C36.2122 20.2785 36.1725 20.1991 36.3766 20.0857C36.5808 19.9723 36.8189 20.3919 37.0231 20.2785C37.2272 20.1651 37.1195 19.9666 37.3293 19.8532C37.5391 19.7398 37.5618 19.7852 37.766 19.6717C37.9701 19.5583 38.0268 19.6547 38.231 19.5413C38.4351 19.4279 38.231 19.0593 38.4408 18.9459C38.6506 18.8325 38.6393 18.8154 38.8491 18.702C39.0589 18.5886 39.2234 18.8892 39.4332 18.7757C39.643 18.6623 39.626 18.6396 39.8358 18.5262C40.0456 18.4128 39.9322 18.2143 40.142 18.1009C40.3519 17.9875 40.5163 18.2824 40.7205 18.169C40.9246 18.0556 40.7715 17.772 40.9756 17.6586C41.1798 17.5452 41.3442 17.8401 41.5541 17.7266C41.7639 17.6132 41.5767 17.2787 41.7809 17.1596C41.985 17.0405 41.9567 16.9838 42.1665 16.8704C42.3763 16.7569 42.5408 17.0575 42.7506 16.9384C42.9604 16.8193 43.0512 16.8647 43.0171 16.6265C42.9831 16.3883 42.864 16.7569 42.6315 16.7286C42.399 16.7002 42.416 16.5414 42.1892 16.5131C41.9624 16.4847 41.968 16.4053 41.7355 16.377C41.503 16.3486 41.5144 16.2466 41.2819 16.2182C41.0494 16.1899 41.0607 16.1161 40.8282 16.0935C40.5957 16.0708 40.5957 16.0821 40.3689 16.0538C40.142 16.0254 40.091 16.428 39.8642 16.3997C39.6373 16.3713 39.6543 16.1842 39.4218 16.1615C39.1893 16.1388 39.195 16.0764 38.9682 16.0538C38.7413 16.0311 38.7187 16.1899 38.4862 16.1615C38.2537 16.1331 38.2763 15.963 38.0438 15.9347C37.8113 15.9063 37.7943 16.0651 37.5618 16.0367C37.3293 16.0084 37.3236 16.0878 37.0911 16.0651C36.8586 16.0424 36.904 15.6568 36.6715 15.6341C36.439 15.6114 36.4333 15.6625 36.2008 15.6341C35.9683 15.6058 35.923 16.0367 35.6904 16.0084C35.4579 15.98 35.4579 15.9971 35.2254 15.9744C34.9929 15.9517 35.044 15.4753 34.8171 15.4527C34.5903 15.43 34.5506 15.7305 34.3181 15.7022C34.0856 15.6738 34.1026 15.532 33.8701 15.5037C33.6376 15.4753 33.6036 15.7645 33.3711 15.7362C33.1386 15.7078 33.0989 15.6511 32.9798 15.447C32.8607 15.2428 33.1159 15.3052 33.2123 15.0954C33.3087 14.8856 33.3427 14.8969 33.4448 14.6871C33.5469 14.4773 33.3654 14.3922 33.4675 14.1767C33.5696 13.9612 33.8304 14.0917 33.9325 13.8762C34.0346 13.6607 33.8134 13.5586 33.9155 13.3488C34.0176 13.139 34.131 13.19 34.2331 12.9802C34.3351 12.7704 33.9949 12.6059 34.097 12.3961C34.199 12.1863 34.2954 12.2316 34.3975 12.0161C34.4996 11.8007 34.4429 11.778 34.5449 11.5625C34.647 11.347 34.8285 11.4377 34.9249 11.2222C35.0213 11.0067 34.8058 10.9103 34.9079 10.6948C35.01 10.4794 35.4693 10.7005 35.5714 10.4907C35.6734 10.2809 35.3502 10.1221 35.4466 9.91227C35.543 9.70246 35.5543 9.70245 35.6564 9.49263C35.7585 9.28281 35.7698 9.28849 35.8719 9.073C35.974 8.8575 36.2745 9.00495 36.3766 8.79513C36.4787 8.58531 36.3199 8.50591 36.422 8.29609C36.5241 8.08627 36.7055 8.17134 36.8076 7.95585C36.9097 7.74036 36.7566 7.67231 36.8586 7.45681C36.9607 7.24132 36.6885 7.11657 36.7906 6.90108C36.8927 6.68559 37.0174 6.74796 37.1195 6.53247C37.2216 6.31698 37.2556 6.334 37.3577 6.12418C37.4597 5.91436 37.4768 5.92003 37.5788 5.70454C37.6809 5.48904 37.5108 5.40965 37.6129 5.19983C37.7149 4.99001 37.7603 5.00703 37.8567 4.79154C37.9531 4.57604 38.1346 4.66111 38.2366 4.44562C38.3387 4.23013 38.4918 4.30385 38.5939 4.08836C38.696 3.87286 38.7016 3.79347 38.5202 3.63469C38.3387 3.47591 38.5939 3.91823 38.4238 4.07134C38.2537 4.22445 38.0892 4.04299 37.9191 4.1961C37.749 4.34921 37.851 4.4683 37.6752 4.62141C37.4994 4.77452 37.3803 4.63275 37.2046 4.78586C37.0288 4.93898 37.1762 5.10343 37.0004 5.25654C36.8246 5.40965 36.6772 5.23386 36.5014 5.38697C36.3256 5.54008 36.2632 5.46636 36.0931 5.6138C35.923 5.76124 36.0647 5.93137 35.8946 6.08448C35.7245 6.23759 35.6791 6.19222 35.509 6.33967C35.3389 6.48711 35.3956 6.56083 35.2254 6.71394C35.0553 6.86705 35.129 6.95211 34.9532 7.10522C34.7774 7.25834 34.5733 7.02583 34.3975 7.17895C34.2217 7.33206 34.2557 7.36608 34.0799 7.51919C33.9041 7.67231 33.9665 7.74603 33.7964 7.89914C33.6263 8.05225 33.4505 7.85377 33.2747 8.00688C33.0989 8.16 33.0649 8.1203 32.8891 8.27341C32.7133 8.42652 32.9855 8.73842 32.8097 8.89153C32.6339 9.04464 32.5205 8.91421 32.3447 9.06732C32.1689 9.22044 32.0214 9.05598 31.8513 9.20909C31.6812 9.36221 31.6245 9.3055 31.4544 9.45294C31.2842 9.60038 31.5167 9.87825 31.3466 10.0314C31.1765 10.1845 31.2162 10.2355 31.0404 10.3886C30.8646 10.5417 30.9043 10.5871 30.7285 10.7402C30.5527 10.8933 30.5527 10.8933 30.3769 11.0521C30.2011 11.2109 30.1331 11.1258 29.9573 11.2789C29.7815 11.4321 29.7531 11.5738 29.532 11.5058C29.3108 11.4377 29.2087 11.3527 29.135 11.1258C29.0613 10.899 29.5546 10.7459 29.4809 10.5134C29.4072 10.2809 28.9649 10.4226 28.8968 10.1901C28.8288 9.95764 28.9138 9.93496 28.8401 9.70813C28.7664 9.48129 29.0783 9.38489 29.0102 9.15239C28.9422 8.91988 28.9252 8.92555 28.8571 8.69305C28.7891 8.46055 28.4999 8.55128 28.4318 8.31878C28.3638 8.08627 28.256 8.1203 28.188 7.8878C28.1199 7.65529 28.2107 7.62694 28.1426 7.39444C28.0746 7.16193 28.273 7.09955 28.1993 6.87272C28.1256 6.64589 28.1936 6.62321 28.1199 6.3907C28.0462 6.1582 27.7343 6.26027 27.6663 6.02777C27.5982 5.79527 27.6946 5.76691 27.6209 5.53441C27.5472 5.30191 27.6663 5.26788 27.5982 5.03538C27.5302 4.80288 27.6776 4.75751 27.6039 4.52501C27.5302 4.2925 27.4961 4.25848 27.2523 4.2358C27.0084 4.21311 27.4111 4.45129 27.309 4.66678C27.2069 4.88227 27.2183 4.88794 27.1219 5.10343C27.0255 5.31892 26.7306 5.18849 26.6285 5.40398C26.5264 5.61947 26.5831 5.64216 26.4811 5.85765C26.379 6.07314 26.4697 6.11283 26.3676 6.32832C26.2656 6.54381 26.345 6.57784 26.2486 6.799C26.1522 7.02016 25.8176 6.86138 25.7155 7.08254C25.6134 7.3037 25.6361 7.30937 25.534 7.52486C25.432 7.74036 25.4149 7.73468 25.3129 7.95018C25.2108 8.16567 25.3185 8.2167 25.2165 8.43219C25.1144 8.64768 25.0123 8.60232 24.9102 8.81781C24.8082 9.0333 24.7344 8.99927 24.638 9.21477C24.5416 9.43026 24.9159 9.60605 24.8195 9.82154C24.7231 10.037 24.7628 10.0597 24.6607 10.2752C24.5587 10.4907 24.3375 10.3943 24.2411 10.6098C24.1447 10.8253 24.1787 10.848 24.0766 11.0634C23.9746 11.2789 24.0993 11.5058 23.8611 11.5455C23.623 11.5852 23.5209 11.4661 23.3678 11.2903C23.2147 11.1145 23.2714 11.0634 23.1126 10.8877C22.9538 10.7119 23.1013 10.5814 22.9481 10.4056C22.795 10.2298 22.6419 10.3659 22.4831 10.1901C22.3244 10.0143 22.245 10.0881 22.0919 9.91227C21.9387 9.73648 22.2166 9.48696 22.0578 9.31117C21.899 9.13537 21.9558 9.09001 21.797 8.91421C21.6382 8.73842 21.3206 9.02196 21.1675 8.84616C21.0144 8.67037 21.0484 8.63634 20.8953 8.46055C20.7422 8.28475 20.9747 8.07493 20.8216 7.89914C20.6685 7.72334 20.7309 7.66664 20.5721 7.49651C20.4133 7.32639 20.3396 7.38877 20.1865 7.21297C20.0334 7.03718 20.1411 6.94077 19.9823 6.76498C19.8235 6.58918 19.591 6.799 19.4379 6.62321C19.2848 6.44741 19.1374 6.57784 18.9786 6.40204C18.8198 6.22625 18.9446 6.1185 18.7914 5.94271C18.6383 5.76691 18.6837 5.72155 18.5306 5.54575C18.3775 5.36996 18.3094 5.42667 18.1563 5.25087C18.0032 5.07508 18.0032 5.0694 17.8501 4.89361C17.697 4.71781 17.7367 4.67812 17.5779 4.50232C17.4191 4.32653 17.3114 4.42293 17.1583 4.24714C17.0051 4.07134 17.1583 3.9239 17.0051 3.74811C16.852 3.57231 16.6479 3.74811 16.4891 3.57798C16.3303 3.40786 16.7159 3.05627 16.5628 2.88047C16.4097 2.70468 16.1318 2.94852 15.9731 2.77273C15.8143 2.59693 15.9277 2.49486 15.7689 2.31906C15.6101 2.14327 15.6158 2.1376 15.457 1.9618C15.2982 1.78601 15.0033 1.9618 14.8956 1.75198C14.7311 1.42875 14.8956 1.00911 14.6858 1.11685L14.6574 1.12252Z" stroke="white" stroke-width="1.13416" stroke-miterlimit="10"/>
</svg>
