<svg width="28" height="28" viewBox="0 0 28 28" fill="none" xmlns="http://www.w3.org/2000/svg">
<path d="M9.88098 5.86906C9.79969 5.78777 9.7352 5.69125 9.6912 5.58503C9.64721 5.47882 9.62456 5.36497 9.62456 5.25C9.62456 5.13503 9.64721 5.02118 9.6912 4.91497C9.7352 4.80875 9.79969 4.71223 9.88098 4.63094C9.96228 4.54964 10.0588 4.48515 10.165 4.44116C10.2712 4.39716 10.3851 4.37451 10.5 4.37451C10.615 4.37451 10.7289 4.39716 10.8351 4.44116C10.9413 4.48515 11.0378 4.54964 11.1191 4.63094L19.8691 13.3809C19.9505 13.4622 20.015 13.5587 20.059 13.6649C20.1031 13.7712 20.1257 13.885 20.1257 14C20.1257 14.115 20.1031 14.2289 20.059 14.3351C20.015 14.4413 19.9505 14.5378 19.8691 14.6191L11.1191 23.3691C10.9549 23.5332 10.7322 23.6255 10.5 23.6255C10.2679 23.6255 10.0452 23.5332 9.88098 23.3691C9.7168 23.2049 9.62456 22.9822 9.62456 22.75C9.62456 22.5178 9.7168 22.2951 9.88098 22.1309L18.013 14L9.88098 5.86906Z" fill="#F6F8FA"/>
</svg>
