<svg width="32" height="32" viewBox="0 0 32 32" fill="none" xmlns="http://www.w3.org/2000/svg">
<rect x="0.571429" y="0.571429" width="30.8571" height="30.8571" rx="12" fill="#1A1B1E" stroke="#2B2C30" stroke-width="1.14286"/>
<path d="M16 7.5C20.6945 7.5 24.5 11.3056 24.5 16C24.5 20.6945 20.6945 24.5 16 24.5C11.3056 24.5 7.5 20.6945 7.5 16C7.5 11.3056 11.3056 7.5 16 7.5ZM15.9968 14.5119C15.5609 14.5122 15.2019 14.8405 15.1531 15.2633L15.1474 15.3624L15.1505 20.038L15.1563 20.1371C15.2057 20.5597 15.5651 20.8876 16.001 20.8873C16.4368 20.887 16.7958 20.5587 16.8446 20.136L16.8502 20.0369L16.8472 15.3613L16.8414 15.2622C16.792 14.8395 16.4326 14.5116 15.9968 14.5119ZM16.0004 11.3253C15.4129 11.3253 14.9368 11.8015 14.9368 12.3889C14.9368 12.9764 15.4129 13.4526 16.0004 13.4526C16.5878 13.4526 17.0641 12.9764 17.0641 12.3889C17.0641 11.8015 16.5878 11.3253 16.0004 11.3253Z" fill="#CBCDD3"/>
</svg>
