<svg width="22" height="22" viewBox="0 0 22 22" fill="none" xmlns="http://www.w3.org/2000/svg">
<path d="M3.6387 14.6387L10.5137 7.7637C10.5776 7.69978 10.6534 7.64907 10.7368 7.61447C10.8203 7.57987 10.9098 7.56207 11.0001 7.56207C11.0905 7.56207 11.1799 7.57987 11.2634 7.61447C11.3468 7.64907 11.4227 7.69978 11.4865 7.7637L18.3615 14.6387C18.4905 14.7677 18.563 14.9427 18.563 15.1251C18.563 15.3075 18.4905 15.4825 18.3615 15.6115C18.2325 15.7405 18.0575 15.813 17.8751 15.813C17.6927 15.813 17.5177 15.7405 17.3887 15.6115L11.0001 9.22206L4.61151 15.6115C4.54764 15.6754 4.4718 15.7261 4.38835 15.7606C4.30489 15.7952 4.21544 15.813 4.1251 15.813C4.03477 15.813 3.94532 15.7952 3.86186 15.7606C3.77841 15.7261 3.70257 15.6754 3.6387 15.6115C3.57482 15.5476 3.52415 15.4718 3.48959 15.3883C3.45502 15.3049 3.43722 15.2154 3.43722 15.1251C3.43722 15.0348 3.45502 14.9453 3.48959 14.8619C3.52415 14.7784 3.57482 14.7026 3.6387 14.6387Z" fill="#F6F8FA"/>
</svg>
