<svg width="44" height="44" viewBox="0 0 44 44" fill="none" xmlns="http://www.w3.org/2000/svg">
<path d="M40.6999 32.328L25.6694 6.2253C25.2938 5.5858 24.7576 5.05555 24.114 4.68713C23.4703 4.3187 22.7415 4.12488 21.9999 4.12488C21.2582 4.12488 20.5295 4.3187 19.8858 4.68713C19.2422 5.05555 18.706 5.5858 18.3304 6.2253L3.29989 32.328C2.9385 32.9465 2.74805 33.65 2.74805 34.3664C2.74805 35.0828 2.9385 35.7863 3.29989 36.4048C3.67068 37.0482 4.20596 37.5813 4.85082 37.9495C5.49568 38.3177 6.22689 38.5077 6.96942 38.5H37.0304C37.7723 38.5071 38.5028 38.3168 39.147 37.9487C39.7912 37.5805 40.326 37.0477 40.6965 36.4048C41.0584 35.7866 41.2494 35.0832 41.25 34.3669C41.2506 33.6505 41.0608 32.9468 40.6999 32.328ZM38.316 35.0281C38.185 35.2516 37.9968 35.4363 37.7709 35.5631C37.545 35.69 37.2894 35.7545 37.0304 35.75H6.96942C6.71037 35.7545 6.45478 35.69 6.22886 35.5631C6.00295 35.4363 5.81483 35.2516 5.6838 35.0281C5.56511 34.8272 5.5025 34.5981 5.5025 34.3647C5.5025 34.1313 5.56511 33.9022 5.6838 33.7012L20.7143 7.59858C20.8479 7.37613 21.0369 7.19206 21.2628 7.06426C21.4887 6.93647 21.7438 6.86931 22.0033 6.86931C22.2629 6.86931 22.518 6.93647 22.7439 7.06426C22.9697 7.19206 23.1587 7.37613 23.2924 7.59858L38.3229 33.7012C38.4405 33.9028 38.5019 34.1322 38.5007 34.3656C38.4995 34.599 38.4357 34.8278 38.316 35.0281ZM20.6249 24.75V17.875C20.6249 17.5103 20.7698 17.1606 21.0276 16.9027C21.2855 16.6449 21.6352 16.5 21.9999 16.5C22.3646 16.5 22.7143 16.6449 22.9722 16.9027C23.23 17.1606 23.3749 17.5103 23.3749 17.875V24.75C23.3749 25.1147 23.23 25.4644 22.9722 25.7223C22.7143 25.9801 22.3646 26.125 21.9999 26.125C21.6352 26.125 21.2855 25.9801 21.0276 25.7223C20.7698 25.4644 20.6249 25.1147 20.6249 24.75ZM24.0624 30.9375C24.0624 31.3454 23.9414 31.7442 23.7148 32.0834C23.4882 32.4225 23.166 32.6869 22.7892 32.843C22.4123 32.9991 21.9976 33.0399 21.5975 32.9604C21.1974 32.8808 20.8299 32.6843 20.5415 32.3959C20.253 32.1075 20.0566 31.74 19.977 31.3399C19.8974 30.9398 19.9383 30.5251 20.0944 30.1482C20.2505 29.7713 20.5149 29.4492 20.854 29.2226C21.1932 28.996 21.592 28.875 21.9999 28.875C22.5469 28.875 23.0715 29.0923 23.4583 29.4791C23.8451 29.8659 24.0624 30.3905 24.0624 30.9375Z" fill="white"/>
</svg>
