<svg width="22" height="22" viewBox="0 0 22 22" fill="none" xmlns="http://www.w3.org/2000/svg">
<path d="M18.7631 4.97609C18.6894 4.91865 18.6035 4.87876 18.5121 4.85943C18.4207 4.8401 18.326 4.84186 18.2354 4.86455L13.5331 6.03994L8.81385 3.67994C8.68236 3.61435 8.53174 3.59798 8.38923 3.63378L3.46615 4.86455C3.33302 4.89783 3.21483 4.97465 3.13037 5.08281C3.04591 5.19096 3.00002 5.32425 3 5.46147V16.5384C3.00001 16.6319 3.02134 16.7242 3.06235 16.8082C3.10336 16.8922 3.16299 16.9658 3.2367 17.0234C3.3104 17.0809 3.39626 17.1209 3.48773 17.1403C3.57921 17.1597 3.6739 17.158 3.76462 17.1353L8.46692 15.9599L13.1862 18.3199C13.2718 18.3622 13.366 18.3843 13.4615 18.3846C13.5119 18.3845 13.562 18.3783 13.6108 18.3661L18.5338 17.1353C18.667 17.102 18.7852 17.0252 18.8696 16.9171C18.9541 16.8089 19 16.6756 19 16.5384V5.46147C19 5.36788 18.9787 5.27551 18.9376 5.1914C18.8966 5.10729 18.8369 5.03365 18.7631 4.97609ZM8.53846 14.6922C8.48815 14.6923 8.43803 14.6985 8.38923 14.7107L4.23077 15.7499V5.94224L8.46692 4.88301L8.53846 4.9184V14.6922ZM17.7692 16.0576L13.5331 17.1169L13.4615 17.0815V7.30763C13.5118 7.30785 13.5619 7.30191 13.6108 7.28993L17.7692 6.24994V16.0576Z" fill="#F6F8FA"/>
</svg>
