<svg width="22" height="22" viewBox="0 0 22 22" fill="none" xmlns="http://www.w3.org/2000/svg">
<path d="M15.6117 17.3886C15.6756 17.4525 15.7262 17.5283 15.7608 17.6118C15.7954 17.6952 15.8132 17.7847 15.8132 17.875C15.8132 17.9654 15.7954 18.0548 15.7608 18.1383C15.7262 18.2217 15.6756 18.2975 15.6117 18.3614C15.5478 18.4253 15.472 18.476 15.3885 18.5105C15.3051 18.5451 15.2156 18.5629 15.1253 18.5629C15.035 18.5629 14.9455 18.5451 14.8621 18.5105C14.7786 18.476 14.7028 18.4253 14.6389 18.3614L7.76389 11.4864C7.69997 11.4226 7.64926 11.3467 7.61466 11.2633C7.58006 11.1798 7.56226 11.0904 7.56226 11C7.56226 10.9097 7.58006 10.8202 7.61466 10.7367C7.64926 10.6533 7.69997 10.5775 7.76389 10.5136L14.6389 3.63861C14.7679 3.50961 14.9429 3.43713 15.1253 3.43713C15.3077 3.43713 15.4827 3.50961 15.6117 3.63861C15.7407 3.76761 15.8132 3.94258 15.8132 4.12502C15.8132 4.30745 15.7407 4.48242 15.6117 4.61142L9.22225 11L15.6117 17.3886Z" fill="#F6F8FA"/>
</svg>
