<svg width="32" height="32" viewBox="0 0 32 32" fill="none" xmlns="http://www.w3.org/2000/svg">
<rect x="0.571429" y="0.571429" width="30.8571" height="30.8571" rx="12" fill="#1A1B1E" stroke="#2B2C30" stroke-width="1.14286"/>
<path d="M21.5469 16.0933C24.0062 16.0933 26 18.0871 26 20.5466C26 23.0061 24.0062 25 21.5469 25C19.0875 25 17.0937 23.0061 17.0937 20.5466C17.0937 18.0871 19.0875 16.0933 21.5469 16.0933ZM17.1117 17.7121C16.5878 18.5303 16.2841 19.5029 16.2841 20.5466C16.2841 21.8667 16.77 23.0732 17.5728 23.9972C16.9287 24.1268 16.2285 24.1911 15.4744 24.1911C12.7046 24.1911 10.6618 23.323 9.41322 21.5705C9.14444 21.1933 9 20.7416 9 20.2784V19.5336C9 18.5278 9.81521 17.7126 10.8208 17.7126L17.1117 17.7121ZM19.4041 20.2603C19.2461 20.1022 18.9897 20.1022 18.8316 20.2603C18.6735 20.4185 18.6735 20.6748 18.8316 20.8329L20.4509 22.4523C20.609 22.6104 20.8654 22.6104 21.0234 22.4523L24.2621 19.2135C24.4202 19.0554 24.4202 18.7991 24.2621 18.6409C24.104 18.4828 23.8477 18.4828 23.6896 18.6409L20.7372 21.5934L19.4041 20.2603ZM15.4744 8C17.7102 8 19.5227 9.81258 19.5227 12.0485C19.5227 14.2844 17.7102 16.097 15.4744 16.097C13.2386 16.097 11.4261 14.2844 11.4261 12.0485C11.4261 9.81258 13.2386 8 15.4744 8Z" fill="#CBCDD3"/>
</svg>
