<svg width="22" height="22" viewBox="0 0 22 22" fill="none" xmlns="http://www.w3.org/2000/svg">
<path d="M13.75 2.77147V19.2233C13.7521 19.3465 13.7222 19.468 13.6633 19.5762C13.6045 19.6843 13.5185 19.7753 13.414 19.8404C13.2952 19.911 13.1578 19.9443 13.0198 19.9357C12.8819 19.9271 12.7497 19.8771 12.6405 19.7922L7.00562 15.4094C6.96477 15.3772 6.93179 15.336 6.90916 15.2891C6.88653 15.2422 6.87485 15.1908 6.875 15.1387V6.86123C6.87516 6.80895 6.88723 6.7574 6.91032 6.71049C6.9334 6.66358 6.96688 6.62255 7.0082 6.59053L12.6431 2.20772C12.7666 2.11203 12.919 2.06125 13.0752 2.06375C13.2314 2.06625 13.3821 2.12187 13.5025 2.22147C13.5816 2.28939 13.6447 2.37386 13.6875 2.46891C13.7303 2.56396 13.7516 2.66725 13.75 2.77147ZM5.15625 6.87498H2.75C2.38533 6.87498 2.03559 7.01985 1.77773 7.27771C1.51987 7.53557 1.375 7.88531 1.375 8.24998V13.75C1.375 14.1147 1.51987 14.4644 1.77773 14.7223C2.03559 14.9801 2.38533 15.125 2.75 15.125H5.15625C5.24742 15.125 5.33485 15.0888 5.39932 15.0243C5.46378 14.9598 5.5 14.8724 5.5 14.7812V7.21873C5.5 7.12757 5.46378 7.04013 5.39932 6.97567C5.33485 6.9112 5.24742 6.87498 5.15625 6.87498ZM17.0156 8.7278C16.9564 8.65845 16.884 8.60158 16.8026 8.56049C16.7211 8.51941 16.6324 8.49494 16.5414 8.48849C16.4504 8.48205 16.3591 8.49377 16.2727 8.52298C16.1863 8.55218 16.1066 8.59828 16.0382 8.65859C15.9698 8.7189 15.914 8.79222 15.8742 8.87427C15.8344 8.95633 15.8114 9.04548 15.8064 9.13654C15.8014 9.22759 15.8145 9.31874 15.8451 9.40466C15.8756 9.49058 15.923 9.56957 15.9844 9.63701C16.316 10.0136 16.4989 10.4982 16.4989 11C16.4989 11.5018 16.316 11.9863 15.9844 12.363C15.923 12.4304 15.8756 12.5094 15.8451 12.5953C15.8145 12.6812 15.8014 12.7724 15.8064 12.8634C15.8114 12.9545 15.8344 13.0436 15.8742 13.1257C15.914 13.2078 15.9698 13.2811 16.0382 13.3414C16.1066 13.4017 16.1863 13.4478 16.2727 13.477C16.3591 13.5062 16.4504 13.5179 16.5414 13.5115C16.6324 13.505 16.7211 13.4806 16.8026 13.4395C16.884 13.3984 16.9564 13.3415 17.0156 13.2722C17.5686 12.6444 17.8737 11.8366 17.8737 11C17.8737 10.1634 17.5686 9.35555 17.0156 8.7278Z" fill="white"/>
</svg>
