<svg width="16" height="16" viewBox="0 0 16 16" fill="none" xmlns="http://www.w3.org/2000/svg">
<path d="M7.5 2V1.5C7.5 1.36739 7.55268 1.24021 7.64645 1.14645C7.74021 1.05268 7.86739 1 8 1C8.13261 1 8.25979 1.05268 8.35355 1.14645C8.44732 1.24021 8.5 1.36739 8.5 1.5V2C8.5 2.13261 8.44732 2.25979 8.35355 2.35355C8.25979 2.44732 8.13261 2.5 8 2.5C7.86739 2.5 7.74021 2.44732 7.64645 2.35355C7.55268 2.25979 7.5 2.13261 7.5 2ZM12.5 4C12.5657 4.00005 12.6307 3.98716 12.6914 3.96207C12.7521 3.93697 12.8073 3.90017 12.8538 3.85375L13.3538 3.35375C13.4476 3.25993 13.5003 3.13268 13.5003 3C13.5003 2.86732 13.4476 2.74007 13.3538 2.64625C13.2599 2.55243 13.1327 2.49972 13 2.49972C12.8673 2.49972 12.7401 2.55243 12.6462 2.64625L12.1462 3.14625C12.0762 3.21618 12.0286 3.3053 12.0092 3.40235C11.9899 3.49939 11.9998 3.59998 12.0377 3.6914C12.0756 3.78281 12.1397 3.86092 12.222 3.91586C12.3043 3.9708 12.4011 4.00008 12.5 4ZM3.14625 3.85375C3.19271 3.90021 3.24786 3.93706 3.30855 3.9622C3.36925 3.98734 3.4343 4.00028 3.5 4.00028C3.5657 4.00028 3.63075 3.98734 3.69145 3.9622C3.75214 3.93706 3.80729 3.90021 3.85375 3.85375C3.90021 3.80729 3.93706 3.75214 3.9622 3.69145C3.98734 3.63075 4.00028 3.5657 4.00028 3.5C4.00028 3.4343 3.98734 3.36925 3.9622 3.30855C3.93706 3.24786 3.90021 3.19271 3.85375 3.14625L3.35375 2.64625C3.25993 2.55243 3.13268 2.49972 3 2.49972C2.86732 2.49972 2.74007 2.55243 2.64625 2.64625C2.55243 2.74007 2.49972 2.86732 2.49972 3C2.49972 3.13268 2.55243 3.25993 2.64625 3.35375L3.14625 3.85375ZM14.5 12V13.5C14.5 13.7652 14.3946 14.0196 14.2071 14.2071C14.0196 14.3946 13.7652 14.5 13.5 14.5H2.5C2.23478 14.5 1.98043 14.3946 1.79289 14.2071C1.60536 14.0196 1.5 13.7652 1.5 13.5V12C1.5 11.7348 1.60536 11.4804 1.79289 11.2929C1.98043 11.1054 2.23478 11 2.5 11V9C2.49998 8.27419 2.64362 7.55556 2.92263 6.88552C3.20165 6.21549 3.61052 5.60731 4.12569 5.09603C4.64086 4.58476 5.25212 4.18051 5.92425 3.90658C6.59639 3.63266 7.31609 3.49447 8.04187 3.5C11.0513 3.5225 13.5 6.01813 13.5 9.0625V11C13.7652 11 14.0196 11.1054 14.2071 11.2929C14.3946 11.4804 14.5 11.7348 14.5 12ZM8.4175 6.49312C9.60437 6.6925 10.5 7.77 10.5 9C10.5 9.13261 10.5527 9.25979 10.6464 9.35355C10.7402 9.44732 10.8674 9.5 11 9.5C11.1326 9.5 11.2598 9.44732 11.3536 9.35355C11.4473 9.25979 11.5 9.13261 11.5 9C11.5 7.2875 10.2456 5.78562 8.5825 5.50688C8.51746 5.49537 8.45078 5.49687 8.38632 5.51128C8.32186 5.5257 8.2609 5.55274 8.20695 5.59085C8.153 5.62896 8.10714 5.67738 8.07201 5.73331C8.03688 5.78925 8.01318 5.85159 8.00228 5.91673C7.99138 5.98188 7.9935 6.04854 8.00851 6.11286C8.02352 6.17718 8.05113 6.23789 8.08973 6.29149C8.12834 6.34508 8.17718 6.39049 8.23344 6.4251C8.2897 6.45971 8.35226 6.48283 8.4175 6.49312ZM13.5 13.5V12H2.5V13.5H13.5Z" fill="#616269"/>
</svg>
