<svg width="41" height="41" viewBox="0 0 41 41" fill="none" xmlns="http://www.w3.org/2000/svg">
<g clip-path="url(#clip0_660_10111)">
<path d="M13.5753 1.40657C13.3845 1.50452 13.7557 1.76229 13.8176 1.96334C13.8794 2.1644 13.9826 2.13862 14.0444 2.33968C14.1063 2.54073 13.9774 2.58198 14.0393 2.78819C14.1011 2.9944 14.1578 2.97378 14.2197 3.17999C14.2816 3.3862 14.3176 3.37073 14.3795 3.57695C14.4414 3.78316 14.2042 3.85533 14.2661 4.05639C14.328 4.25744 14.5393 4.19558 14.6012 4.40179C14.6631 4.608 14.6476 4.61316 14.7094 4.81421C14.7713 5.01527 14.828 4.9998 14.8899 5.20601C14.9517 5.41222 14.8899 5.42769 14.9517 5.6339C15.0136 5.84011 15.1683 5.79372 15.2301 5.99477C15.292 6.19583 15.0136 6.28347 15.0755 6.48968C15.1373 6.69589 15.1219 6.69589 15.1837 6.9021C15.2456 7.10831 15.3126 7.08769 15.3745 7.28875C15.4363 7.4898 15.426 7.49496 15.4879 7.70117C15.5498 7.90738 15.3899 7.95378 15.4518 8.15483C15.5137 8.35589 15.5085 8.36104 15.5704 8.5621C15.6322 8.76316 15.7869 8.72191 15.8488 8.92297C15.9106 9.12403 15.8745 9.13949 15.9416 9.3457C16.0086 9.55191 16.1065 9.52098 16.1684 9.72204C16.2303 9.92309 16.2715 9.91278 16.3385 10.119C16.4055 10.3252 16.2045 10.3819 16.2663 10.5881C16.3282 10.7943 16.6581 10.6912 16.72 10.8974C16.7819 11.1037 16.3385 11.2377 16.4004 11.4387C16.4622 11.6398 16.9211 11.5058 16.9829 11.7068C17.0448 11.9079 16.7561 12.0007 16.818 12.2069C16.8798 12.4131 17.0654 12.3564 17.1273 12.5626C17.1891 12.7688 17.3077 12.7327 17.3747 12.9389C17.4417 13.1451 17.2355 13.1297 17.1067 13.2998C16.9778 13.4699 17.0706 13.2328 16.8644 13.2122C16.6581 13.1915 16.6375 13.4081 16.4313 13.3926C16.2251 13.3771 16.2457 13.0987 16.0344 13.0833C15.823 13.0678 15.7972 13.4493 15.5858 13.4338C15.3745 13.4184 15.3745 13.4545 15.1631 13.439C14.9517 13.4235 14.9878 12.9956 14.7765 12.9802C14.5651 12.9647 14.5445 13.2328 14.3383 13.2173C14.1321 13.2019 14.1475 12.9338 13.9413 12.9183C13.7351 12.9028 13.7248 12.9647 13.5186 12.9492C13.3124 12.9338 13.2866 13.1967 13.0804 13.1812C12.8742 13.1658 12.8793 13.0627 12.668 13.0472C12.4566 13.0317 12.4566 13.0317 12.2504 13.0111C12.0442 12.9905 12.0339 13.0472 11.8276 13.0317C11.6214 13.0163 11.606 13.1606 11.3946 13.14C11.1832 13.1194 11.2039 12.8307 10.9976 12.8152C10.7914 12.7997 10.8739 12.8049 10.7863 13.0008C10.6986 13.1967 10.745 13.0059 10.8997 13.1451C11.0544 13.2843 11.0956 13.2328 11.2503 13.3668C11.4049 13.5009 11.4049 13.5009 11.5596 13.64C11.7142 13.7792 11.807 13.671 11.9617 13.8102C12.1163 13.9494 11.9514 14.135 12.106 14.2741C12.2607 14.4133 12.3432 14.3154 12.4978 14.4546C12.6525 14.5938 12.4669 14.8 12.6216 14.934C12.7762 15.0681 12.9773 14.8464 13.1319 14.9856C13.2866 15.1248 13.1113 15.3155 13.266 15.4547C13.4206 15.5939 13.467 15.5423 13.6217 15.6815C13.7763 15.8207 13.864 15.7176 14.0186 15.8568C14.1733 15.996 14.1733 15.996 14.328 16.13C14.4826 16.2641 14.2919 16.4806 14.4517 16.6198C14.6115 16.759 14.5754 16.7951 14.7301 16.9343C14.8847 17.0735 15.2456 16.826 15.2095 17.0271C15.1734 17.2281 14.9672 17.0116 14.7713 17.0992C14.5754 17.1869 14.7146 17.4859 14.5187 17.5735C14.3228 17.6612 14.2352 17.455 14.0444 17.5374C13.8537 17.6199 13.8588 17.6405 13.6681 17.7282C13.4773 17.8158 13.4206 17.6921 13.2299 17.7746C13.0391 17.8571 13.1422 18.0942 12.9463 18.1819C12.7504 18.2695 12.6473 18.0272 12.4514 18.1097C12.2555 18.1922 12.3586 18.419 12.1627 18.5015C11.9668 18.584 11.9101 18.4499 11.7142 18.5376C11.5183 18.6252 11.4874 18.553 11.2967 18.6355C11.1059 18.718 11.2193 18.9861 11.0286 19.0737C10.8378 19.1614 10.7554 18.9758 10.5595 19.0582C10.3636 19.1407 10.3584 19.1304 10.1676 19.2181C9.9769 19.3057 10.0955 19.5738 9.89957 19.6614C9.70367 19.7491 9.57479 19.4552 9.38405 19.5377C9.1933 19.6202 9.12628 19.481 8.93554 19.5686C8.74479 19.6563 8.79119 19.7645 8.59529 19.847C8.39939 19.9295 8.50249 20.1563 8.30659 20.244C8.11069 20.3316 8.06945 20.2233 7.87355 20.311C7.67765 20.3986 7.67765 20.3883 7.48175 20.4708C7.28585 20.5533 7.37349 20.744 7.17759 20.8317C6.98169 20.9193 6.83218 20.5687 6.63628 20.6564C6.44038 20.744 6.49193 20.8471 6.29603 20.9296C6.10013 21.0121 6.2187 21.2699 6.0228 21.3575C5.8269 21.4451 5.74957 21.2596 5.55367 21.3472C5.35777 21.4348 5.26498 21.2235 5.07423 21.3111C4.88349 21.3987 4.9402 21.5276 4.74429 21.6153C4.54839 21.7029 4.63603 21.8988 4.44529 21.9813C4.25454 22.0638 4.20299 21.9555 4.00709 22.0432C3.81119 22.1308 3.74933 21.9916 3.55858 22.0792C3.36784 22.1669 3.49672 22.4607 3.30082 22.5484C3.10492 22.636 3.03274 22.471 2.842 22.5587C2.65125 22.6463 2.67187 22.6979 2.47597 22.7855C2.28007 22.8732 2.15634 22.5948 1.9656 22.6824C1.77485 22.77 1.7697 22.7649 1.5738 22.8525C1.3779 22.9402 1.20777 23.0227 1.25933 23.234C1.31088 23.4454 1.481 23.1773 1.69752 23.1618C1.91405 23.1464 1.91405 23.1876 2.12541 23.1722C2.33678 23.1567 2.32647 22.9917 2.54299 22.9814C2.75951 22.9711 2.76467 23.1 2.98119 23.0897C3.19771 23.0794 3.19256 23.0691 3.40908 23.0536C3.6256 23.0381 3.63075 23.167 3.84728 23.1515C4.0638 23.1361 4.04318 22.8164 4.25454 22.801C4.46591 22.7855 4.49684 23.2134 4.71336 23.1979C4.92988 23.1825 4.90926 22.8835 5.12063 22.868C5.332 22.8525 5.34231 23.002 5.55883 22.9866C5.77535 22.9711 5.78051 23.0587 5.99187 23.0433C6.20324 23.0278 6.21355 23.1567 6.43007 23.1412C6.64659 23.1258 6.63628 23.033 6.8528 23.0175C7.06933 23.002 7.05901 22.8628 7.27554 22.8474C7.49206 22.8319 7.4869 22.7958 7.70342 22.7804C7.91995 22.7649 7.93026 22.9711 8.14678 22.9556C8.3633 22.9402 8.33237 22.5432 8.54889 22.5278C8.76541 22.5123 8.76541 22.5329 8.98193 22.5226C9.19846 22.5123 9.20877 22.6773 9.42529 22.6618C9.64181 22.6463 9.65212 22.8164 9.86864 22.801C10.0852 22.7855 10.08 22.734 10.2914 22.7185C10.5027 22.703 10.5131 22.8113 10.7296 22.7958C10.9461 22.7804 10.9306 22.5999 11.1472 22.5845C11.3637 22.569 11.3688 22.6773 11.5802 22.6618C11.7916 22.6463 11.7813 22.4092 11.9926 22.3937C12.204 22.3782 12.2246 22.6102 12.4411 22.5948C12.6576 22.5793 12.6576 22.5948 12.8742 22.5845C13.0907 22.5741 13.0649 22.2133 13.2814 22.1978C13.498 22.1823 13.5186 22.4762 13.7299 22.4659C13.9413 22.4556 13.9516 22.5329 14.1681 22.5174C14.3847 22.502 14.3795 22.4865 14.596 22.471C14.8126 22.4556 14.8126 22.4556 15.0239 22.4401C15.2353 22.4246 15.2404 22.4607 15.457 22.4504C15.6735 22.4401 15.6477 22.0741 15.8642 22.0586C16.0808 22.0432 16.0911 22.2081 16.3076 22.1927C16.5241 22.1772 16.6427 21.9864 16.7613 22.172C16.8798 22.3576 16.6633 22.3834 16.555 22.5741C16.4468 22.7649 16.3488 22.7082 16.2406 22.8938C16.1323 23.0794 16.189 23.1155 16.0808 23.3062C15.9725 23.4969 16.0344 23.533 15.9261 23.7186C15.8178 23.9042 15.7147 23.8475 15.6013 24.0382C15.4879 24.229 15.4157 24.1826 15.3075 24.3733C15.1992 24.5641 15.3126 24.6259 15.2044 24.8167C15.0961 25.0074 15.0909 25.0023 14.9827 25.193C14.8744 25.3838 15.1116 25.5178 14.9981 25.7086C14.8847 25.8993 14.627 25.7498 14.5187 25.9405C14.4104 26.1313 14.6527 26.2705 14.5445 26.4612C14.4362 26.652 14.3176 26.585 14.2094 26.7757C14.1011 26.9664 14.1733 27.0077 14.065 27.1984C13.9568 27.3892 13.9001 27.3531 13.7918 27.5438C13.6835 27.7346 13.5908 27.6779 13.4825 27.8686C13.3742 28.0594 13.3536 28.0491 13.2453 28.2398C13.1371 28.4305 13.3072 28.5285 13.199 28.7192C13.0907 28.91 13.1216 28.9306 13.0134 29.1214C12.9051 29.3121 12.6319 29.1007 12.7711 29.2709C12.9103 29.441 12.8329 29.374 13.0288 29.2863C13.2247 29.1987 13.2866 29.343 13.4825 29.2554C13.6784 29.1677 13.632 29.0646 13.8279 28.977C14.0238 28.8894 14.0805 29.0286 14.2764 28.9409C14.4723 28.8533 14.3795 28.6522 14.5754 28.5646C14.7713 28.4769 14.694 28.2965 14.8899 28.214C15.0858 28.1315 15.2353 28.4718 15.4312 28.3841C15.6271 28.2965 15.5446 28.1058 15.7405 28.0181C15.9364 27.9305 15.9106 27.8686 16.1065 27.7861C16.3024 27.7037 16.3746 27.8583 16.5705 27.7758C16.7664 27.6933 16.7613 27.6727 16.9572 27.5851C17.1531 27.4974 17.1634 27.5181 17.3593 27.4356C17.5552 27.3531 17.5964 27.4356 17.7923 27.3531C17.9882 27.2706 17.8387 26.92 18.0346 26.8324C18.2305 26.7448 18.2821 26.8582 18.478 26.7705C18.6739 26.6829 18.6996 26.7345 18.8955 26.652C19.0914 26.5695 19.0811 26.5437 19.277 26.4612C19.4729 26.3787 19.5142 26.4612 19.7101 26.3787C19.906 26.2963 19.8905 26.255 20.0864 26.1674C20.2823 26.0797 20.3648 26.2602 20.5607 26.1674C20.7566 26.0746 20.7721 25.5642 20.9422 25.6982C21.1123 25.8323 20.7411 25.9818 20.6999 26.188C20.6586 26.3942 20.7514 26.4148 20.7102 26.621C20.669 26.8273 20.7102 26.8376 20.6741 27.0438C20.638 27.25 20.7102 27.2655 20.669 27.4717C20.6277 27.6779 20.4782 27.6469 20.4318 27.8532C20.3854 28.0594 20.4627 28.0748 20.4215 28.281C20.3803 28.4873 20.4627 28.5027 20.4215 28.7089C20.3803 28.9151 20.0709 28.8533 20.0297 29.0595C19.9885 29.2657 20.0503 29.2812 20.0091 29.4874C19.9678 29.6936 20.0555 29.7091 20.0091 29.9153C19.9627 30.1215 20.0555 30.1369 20.0091 30.3432C19.9627 30.5494 19.6894 30.4927 19.6482 30.6989C19.607 30.9051 19.8441 30.9566 19.8029 31.1628C19.7616 31.3691 19.6791 31.3536 19.6379 31.5546C19.5967 31.7557 19.6121 31.766 19.5709 31.9722C19.5296 32.1784 19.3131 32.132 19.2719 32.3382C19.2306 32.5445 19.2358 32.5445 19.1945 32.7507C19.1533 32.9569 19.6224 33.0548 19.5812 33.261C19.5399 33.4673 19.1378 33.3848 19.0914 33.591C19.045 33.7972 19.0399 33.7972 18.9986 34.0034C18.9574 34.2096 19.0244 34.2251 18.9832 34.4313C18.9419 34.6375 18.9419 34.6375 18.9007 34.8437C18.8594 35.0499 18.8131 35.0396 18.7667 35.2458C18.7203 35.452 19.0193 35.5139 18.978 35.7201C18.9368 35.9263 18.7048 35.8799 18.6584 36.0861C18.612 36.2923 18.8131 36.3336 18.7667 36.5398C18.7203 36.746 18.7667 36.7563 18.7254 36.9625C18.6842 37.1687 18.3285 37.0966 18.2821 37.3028C18.2357 37.509 18.4419 37.5554 18.3955 37.7616C18.3491 37.9678 18.014 38.2926 18.2099 38.3751C18.4058 38.4576 18.4728 38.04 18.5965 37.8647C18.7203 37.6894 18.7615 37.7152 18.8852 37.5451C19.009 37.375 18.9522 37.3286 19.076 37.1533C19.1997 36.978 19.2976 37.0502 19.4214 36.8749C19.5451 36.6996 19.5451 36.6996 19.6688 36.5295C19.7926 36.3594 19.5967 36.215 19.7255 36.0449C19.8544 35.8748 19.8853 35.8954 20.0091 35.7201C20.1328 35.5448 20.2153 35.6015 20.339 35.4314C20.4627 35.2613 20.5762 35.3386 20.705 35.1633C20.8339 34.9881 20.4834 34.7406 20.6071 34.5653C20.7308 34.39 20.9783 34.5653 21.102 34.39C21.2257 34.2148 21.3443 34.3024 21.468 34.1271C21.5917 33.9519 21.4732 33.8694 21.5969 33.6992C21.7206 33.5291 21.4886 33.359 21.6124 33.1837C21.7361 33.0084 22.097 33.2662 22.2207 33.0961C22.3444 32.9259 22.1794 32.8022 22.3032 32.6321C22.4269 32.462 22.2258 32.3125 22.3547 32.1372C22.4836 31.9619 22.6073 32.0547 22.7311 31.8794C22.8548 31.7041 22.9734 31.7866 23.0971 31.6114C23.2208 31.4361 23.2517 31.4567 23.3755 31.2814C23.4992 31.1061 23.5508 31.1422 23.6745 30.9669C23.7982 30.7917 23.5404 30.6061 23.6642 30.4308C23.7879 30.2555 23.9683 30.3844 24.0972 30.2091C24.2261 30.0338 23.9786 29.8586 24.1024 29.6833C24.2261 29.508 24.3653 29.6059 24.489 29.4307C24.6127 29.2554 24.7726 29.3688 24.8963 29.1935C25.02 29.0182 24.9478 28.9667 25.0716 28.7914C25.1953 28.6161 25.1025 28.5491 25.2314 28.3738C25.3603 28.1986 25.2365 28.1161 25.3654 27.9356C25.4943 27.7552 25.8397 28.0078 25.9686 27.8325C26.0975 27.6573 25.8139 27.2655 26.0304 27.2809C26.247 27.2964 26.2521 27.4665 26.3501 27.6573C26.448 27.848 26.4429 27.8532 26.546 28.0439C26.6491 28.2346 26.5357 28.2914 26.6388 28.4821C26.7419 28.6728 26.8398 28.6161 26.9429 28.8069C27.046 28.9976 27.1234 28.9564 27.2213 29.1471C27.3193 29.3379 27.278 29.3585 27.376 29.5492C27.4739 29.74 27.5513 29.6987 27.6492 29.8895C27.7472 30.0802 27.6131 30.1524 27.7162 30.3432C27.8193 30.5339 27.7008 30.5958 27.8039 30.7865C27.907 30.9773 27.8193 31.0237 27.9224 31.2092C28.0255 31.3948 28.0255 31.4 28.1235 31.5856C28.2214 31.7712 28.5359 31.6114 28.639 31.8021C28.7421 31.9928 28.3813 32.1836 28.4792 32.3743C28.5772 32.5651 28.5978 32.5548 28.7009 32.7455C28.804 32.9363 29.0257 32.8177 29.1288 33.0084C29.2319 33.1992 28.9741 33.3332 29.0772 33.524C29.1803 33.7147 29.5154 33.5343 29.6185 33.725C29.7216 33.9158 29.6958 33.9261 29.799 34.1168C29.9021 34.3076 29.5567 34.488 29.6546 34.6787C29.7526 34.8695 29.8917 34.7973 29.9949 34.9881C30.098 35.1788 30.2011 35.1221 30.3042 35.318C30.4073 35.5139 30.531 35.4417 30.6341 35.6376C30.7372 35.8335 30.4279 35.9727 30.6393 35.9366C30.8506 35.9005 30.7372 35.9005 30.7372 35.6892C30.7372 35.4778 30.4331 35.4778 30.4331 35.2664C30.4331 35.0551 30.5619 35.0551 30.5619 34.8437C30.5619 34.6323 30.5207 34.6323 30.5207 34.421C30.5207 34.2096 30.6341 34.2096 30.6341 33.9982C30.6341 33.7869 30.7836 33.7869 30.7836 33.5755C30.7836 33.3641 30.5774 33.3641 30.5774 33.1528C30.5774 32.9414 30.6702 32.9414 30.6702 32.73C30.6702 32.5187 30.7888 32.5187 30.7888 32.3073C30.7888 32.0959 30.4331 32.0959 30.4331 31.8846C30.4331 31.6732 30.531 31.6732 30.531 31.4619C30.531 31.2505 30.4846 31.2505 30.4846 31.0391C30.4846 30.8277 30.8249 30.8277 30.8249 30.6164C30.8249 30.405 30.6547 30.405 30.6547 30.1937C30.6547 29.9823 30.7321 29.9823 30.7321 29.7709C30.7321 29.5596 30.9228 29.5596 30.9228 29.3482C30.9228 29.1368 30.7527 29.1368 30.7527 28.9255C30.7527 28.7141 30.8816 28.7141 30.8816 28.5027C30.8816 28.2914 30.8197 28.2914 30.8197 28.08C30.8197 27.8686 30.5516 27.8686 30.5516 27.6573C30.5516 27.4459 30.6805 27.4459 30.6805 27.2345C30.6805 27.0232 30.665 27.0232 30.665 26.8118C30.665 26.6004 30.8764 26.6004 30.8764 26.3891C30.8764 26.1777 30.4279 26.1777 30.4279 25.9663C30.4279 25.755 30.696 25.755 30.696 25.5384C30.696 25.3219 30.8816 25.3271 30.8816 25.1105C30.8816 24.894 30.397 24.6569 30.5722 24.5383C30.7475 24.4197 30.8661 24.8012 31.0672 24.8734C31.2682 24.9456 31.2527 24.9868 31.459 25.059C31.6652 25.1312 31.7734 24.7961 31.9796 24.8631C32.1858 24.9301 32.1188 25.1209 32.3199 25.193C32.5209 25.2652 32.5003 25.3271 32.7065 25.3992C32.9127 25.4714 32.9024 25.4817 33.1086 25.5539C33.3149 25.6261 33.2685 25.7498 33.4695 25.8168C33.6706 25.8838 33.6809 25.8632 33.8819 25.9354C34.083 26.0076 34.0881 25.9921 34.2944 26.0643C34.5006 26.1364 34.4748 26.2086 34.6758 26.2756C34.8769 26.3427 34.9078 26.255 35.114 26.3272C35.3203 26.3994 35.279 26.5179 35.4801 26.585C35.6811 26.652 35.7327 26.5128 35.9337 26.585C36.1348 26.6571 36.0987 26.7602 36.3049 26.8324C36.5111 26.9046 36.6503 26.4922 36.8514 26.5592C37.0524 26.6262 36.9287 26.9974 37.1349 27.0644C37.3411 27.1314 37.4545 26.8066 37.6556 26.8737C37.8567 26.9407 37.7484 27.2758 37.9494 27.3479C38.1505 27.4201 38.3928 27.6057 38.5217 27.4304C38.6506 27.2551 38.2845 27.1727 38.1453 27.018C38.0062 26.8633 37.9598 26.9046 37.8154 26.7448C37.6711 26.585 37.5112 26.7396 37.3669 26.585C37.2226 26.4303 37.4339 26.2396 37.2896 26.0849C37.1452 25.9302 37.2586 25.8271 37.1143 25.6776C36.9699 25.5281 37.0215 25.4766 36.8823 25.3219C36.7431 25.1673 36.4389 25.4456 36.2946 25.291C36.1503 25.1363 36.3668 24.9404 36.2224 24.7858C36.0781 24.6311 35.9183 24.7755 35.7739 24.6208C35.6296 24.4661 35.5729 24.5177 35.4337 24.363C35.2945 24.2084 35.3873 24.1207 35.2429 23.9661C35.0986 23.8114 35.2171 23.7032 35.078 23.5485C34.9388 23.3938 34.7274 23.5846 34.5882 23.4248C34.449 23.265 34.5109 23.2082 34.3717 23.0484C34.2325 22.8886 34.2016 22.9196 34.0572 22.7649C33.9129 22.6102 33.9026 22.6205 33.7634 22.4607C33.6242 22.3009 33.8252 22.1205 33.6809 21.9607C33.5365 21.8009 33.5468 21.7957 33.4025 21.641C33.2581 21.4864 33.1705 21.5689 33.0262 21.4091C32.8818 21.2492 33.0262 21.1255 32.8818 20.9709C32.7375 20.8162 32.4333 21.0946 32.289 20.9348C32.1446 20.775 32.3869 20.5584 32.2426 20.3986C32.0982 20.2388 31.9951 20.3368 31.8508 20.1769C31.7064 20.0171 31.6239 20.0945 31.6549 19.8831C31.6858 19.6717 31.7837 19.8367 31.9693 19.7336C32.1549 19.6305 32.0415 19.4191 32.2271 19.316C32.4127 19.2129 32.4694 19.3109 32.655 19.2078C32.8406 19.1046 32.7993 19.0273 32.9849 18.9242C33.1705 18.8211 33.1344 18.7489 33.32 18.6458C33.5056 18.5427 33.7221 18.9242 33.9077 18.8211C34.0933 18.718 33.9953 18.5376 34.1861 18.4345C34.3768 18.3314 34.3975 18.3726 34.583 18.2695C34.7686 18.1664 34.8202 18.254 35.0058 18.1509C35.1914 18.0478 35.0058 17.7127 35.1965 17.6096C35.3873 17.5065 35.377 17.491 35.5677 17.3879C35.7585 17.2848 35.908 17.5581 36.0987 17.455C36.2894 17.3519 36.274 17.3312 36.4647 17.2281C36.6555 17.125 36.5524 16.9446 36.7431 16.8415C36.9339 16.7384 37.0834 17.0064 37.2689 16.9033C37.4545 16.8002 37.3153 16.5425 37.5009 16.4394C37.6865 16.3363 37.836 16.6043 38.0268 16.5012C38.2175 16.3981 38.0474 16.094 38.233 15.9857C38.4186 15.8774 38.3928 15.8259 38.5835 15.7228C38.7743 15.6197 38.9238 15.8929 39.1145 15.7846C39.3053 15.6764 39.3878 15.7176 39.3568 15.5011C39.3259 15.2846 39.2176 15.6197 39.0063 15.5939C38.7949 15.5681 38.8104 15.4238 38.6042 15.398C38.398 15.3722 38.4031 15.3 38.1917 15.2743C37.9804 15.2485 37.9907 15.1557 37.7793 15.1299C37.568 15.1041 37.5783 15.0371 37.3669 15.0165C37.1555 14.9959 37.1555 15.0062 36.9493 14.9804C36.7431 14.9546 36.6967 15.3207 36.4905 15.2949C36.2843 15.2691 36.2998 15.099 36.0884 15.0784C35.877 15.0578 35.8822 15.001 35.676 14.9804C35.4698 14.9598 35.4491 15.1041 35.2378 15.0784C35.0264 15.0526 35.047 14.8979 34.8357 14.8722C34.6243 14.8464 34.6088 14.9907 34.3975 14.965C34.1861 14.9392 34.1809 15.0114 33.9696 14.9907C33.7582 14.9701 33.7994 14.6196 33.5881 14.5989C33.3767 14.5783 33.3716 14.6247 33.1602 14.5989C32.9488 14.5732 32.9076 14.965 32.6962 14.9392C32.4849 14.9134 32.4849 14.9289 32.2735 14.9082C32.0621 14.8876 32.1085 14.4546 31.9023 14.434C31.6961 14.4133 31.66 14.6866 31.4486 14.6608C31.2373 14.635 31.2527 14.5061 31.0414 14.4804C30.83 14.4546 30.7991 14.7175 30.5877 14.6917C30.3763 14.6659 30.3403 14.6144 30.232 14.4288C30.1237 14.2432 30.3557 14.2999 30.4434 14.1092C30.531 13.9184 30.5619 13.9287 30.6547 13.738C30.7475 13.5473 30.5826 13.4699 30.6753 13.274C30.7681 13.0781 31.0053 13.1967 31.0981 13.0008C31.1909 12.8049 30.9898 12.7121 31.0826 12.5214C31.1754 12.3306 31.2785 12.377 31.3713 12.1863C31.4641 11.9955 31.1548 11.846 31.2476 11.6553C31.3404 11.4645 31.428 11.5058 31.5208 11.3099C31.6136 11.114 31.5621 11.0933 31.6549 10.8974C31.7476 10.7015 31.9126 10.784 32.0003 10.5881C32.0879 10.3922 31.892 10.3046 31.9848 10.1087C32.0776 9.91278 32.4952 10.1138 32.588 9.92309C32.6808 9.73235 32.3869 9.588 32.4745 9.39726C32.5622 9.20651 32.5725 9.20651 32.6653 9.01576C32.7581 8.82502 32.7684 8.83017 32.8612 8.63427C32.954 8.43837 33.2272 8.57241 33.32 8.38167C33.4128 8.19092 33.2685 8.11875 33.3612 7.928C33.454 7.73726 33.619 7.81458 33.7118 7.61868C33.8046 7.42278 33.6654 7.36092 33.7582 7.16502C33.851 6.96912 33.6035 6.8557 33.6963 6.6598C33.7891 6.4639 33.9026 6.52061 33.9953 6.32471C34.0881 6.12881 34.1191 6.14427 34.2119 5.95353C34.3047 5.76278 34.3201 5.76794 34.4129 5.57204C34.5057 5.37614 34.3511 5.30396 34.4439 5.11322C34.5367 4.92247 34.5779 4.93794 34.6655 4.74204C34.7532 4.54614 34.9181 4.62347 35.0109 4.42757C35.1037 4.23167 35.2429 4.29868 35.3357 4.10278C35.4285 3.90688 35.4337 3.83471 35.2687 3.69036C35.1037 3.54601 35.3357 3.94813 35.1811 4.08732C35.0264 4.22651 34.8769 4.06154 34.7222 4.20073C34.5676 4.33993 34.6604 4.44819 34.5006 4.58738C34.3408 4.72657 34.2325 4.59769 34.0727 4.73688C33.9129 4.87608 34.0469 5.02558 33.8871 5.16477C33.7273 5.30396 33.5932 5.14415 33.4334 5.28334C33.2736 5.42254 33.2169 5.35552 33.0622 5.48955C32.9076 5.62359 33.0365 5.77825 32.8818 5.91744C32.7271 6.05663 32.6859 6.01539 32.5312 6.14943C32.3766 6.28347 32.4281 6.35049 32.2735 6.48968C32.1188 6.62887 32.1858 6.7062 32.026 6.84539C31.8662 6.98458 31.6806 6.77322 31.5208 6.91241C31.361 7.0516 31.3919 7.08254 31.2321 7.22173C31.0723 7.36092 31.129 7.42794 30.9744 7.56713C30.8197 7.70632 30.6599 7.52589 30.5001 7.66508C30.3403 7.80427 30.3093 7.76819 30.1495 7.90738C29.9897 8.04657 30.2372 8.33011 30.0773 8.46931C29.9175 8.6085 29.8144 8.48993 29.6546 8.62912C29.4948 8.76831 29.3608 8.61881 29.2061 8.758C29.0514 8.89719 28.9999 8.84564 28.8452 8.97968C28.6906 9.11372 28.9019 9.36632 28.7473 9.50552C28.5926 9.64471 28.6287 9.69111 28.4689 9.8303C28.3091 9.96949 28.3452 10.0107 28.1854 10.1499C28.0255 10.2891 28.0255 10.2891 27.8657 10.4335C27.7059 10.5778 27.644 10.5005 27.4842 10.6397C27.3244 10.7789 27.2986 10.9078 27.0976 10.8459C26.8965 10.784 26.8037 10.7067 26.7367 10.5005C26.6697 10.2943 27.1182 10.1551 27.0512 9.94372C26.9842 9.73235 26.5821 9.86123 26.5202 9.64986C26.4583 9.4385 26.5357 9.41788 26.4686 9.21167C26.4016 9.00545 26.6852 8.91781 26.6233 8.70645C26.5614 8.49508 26.546 8.50024 26.4841 8.28887C26.4222 8.0775 26.1593 8.15999 26.0975 7.94862C26.0356 7.73726 25.9376 7.76819 25.8758 7.55682C25.8139 7.34545 25.8964 7.31968 25.8345 7.10831C25.7727 6.89694 25.9531 6.84024 25.8861 6.63403C25.8191 6.42781 25.8809 6.40719 25.8139 6.19583C25.7469 5.98446 25.4634 6.07726 25.4015 5.86589C25.3396 5.65452 25.4273 5.62875 25.3603 5.41738C25.2932 5.20601 25.4015 5.17508 25.3396 4.96372C25.2778 4.75235 25.4118 4.71111 25.3448 4.49974C25.2778 4.28837 25.2468 4.25744 25.0252 4.23682C24.8035 4.2162 25.1695 4.43272 25.0767 4.62862C24.9839 4.82452 24.9942 4.82968 24.9066 5.02558C24.819 5.22148 24.5509 5.10291 24.4581 5.29881C24.3653 5.49471 24.4168 5.51533 24.324 5.71123C24.2312 5.90713 24.3137 5.94322 24.2209 6.13912C24.1281 6.33502 24.2003 6.36595 24.1127 6.56701C24.025 6.76806 23.7209 6.62372 23.6281 6.82477C23.5353 7.02583 23.5559 7.03098 23.4631 7.22688C23.3703 7.42278 23.3549 7.41763 23.2621 7.61353C23.1693 7.80943 23.2672 7.85583 23.1744 8.05173C23.0816 8.24763 22.9888 8.20639 22.896 8.40229C22.8032 8.59819 22.7362 8.56726 22.6486 8.76316C22.5609 8.95906 22.9012 9.11887 22.8135 9.31477C22.7259 9.51067 22.762 9.53129 22.6692 9.72719C22.5764 9.92309 22.3753 9.83545 22.2877 10.0314C22.2001 10.2273 22.231 10.2479 22.1382 10.4438C22.0454 10.6397 22.1588 10.8459 21.9423 10.882C21.7258 10.9181 21.633 10.8098 21.4938 10.65C21.3546 10.4902 21.4062 10.4438 21.2618 10.284C21.1175 10.1241 21.2515 10.0056 21.1123 9.84576C20.9731 9.68595 20.8339 9.80968 20.6896 9.64986C20.5452 9.49005 20.4731 9.55707 20.3339 9.39726C20.1947 9.23744 20.4473 9.01061 20.3029 8.8508C20.1586 8.69098 20.2101 8.64974 20.0658 8.48993C19.9214 8.33011 19.6327 8.58788 19.4935 8.42806C19.3544 8.26825 19.3853 8.23732 19.2461 8.0775C19.1069 7.91769 19.3183 7.72694 19.1791 7.56713C19.0399 7.40732 19.0966 7.35577 18.9522 7.20111C18.8079 7.04645 18.7409 7.10316 18.6017 6.94334C18.4625 6.78353 18.5604 6.69589 18.4161 6.53608C18.2717 6.37626 18.0604 6.56701 17.9212 6.40719C17.782 6.24738 17.648 6.36595 17.5036 6.20614C17.3593 6.04632 17.4727 5.94837 17.3335 5.78856C17.1943 5.62875 17.2355 5.5875 17.0963 5.42769C16.9572 5.26788 16.8953 5.31943 16.7561 5.15962C16.6169 4.9998 16.6169 4.99465 16.4777 4.83483C16.3385 4.67502 16.3746 4.63893 16.2303 4.47912C16.0859 4.31931 15.988 4.40695 15.8488 4.24713C15.7096 4.08732 15.8488 3.95328 15.7096 3.79347C15.5704 3.63365 15.3848 3.79347 15.2404 3.63881C15.0961 3.48415 15.4467 3.16452 15.3075 3.00471C15.1683 2.8449 14.9157 3.06657 14.7713 2.90676C14.627 2.74695 14.7301 2.65415 14.5857 2.49434C14.4414 2.33452 14.4465 2.32937 14.3022 2.16955C14.1578 2.00974 13.8898 2.16955 13.7918 1.97881C13.6423 1.68496 13.7918 1.30347 13.6011 1.40142L13.5753 1.40657Z" fill="#E3FE54"/>
<path d="M13.5753 1.40657C13.3845 1.50452 13.7557 1.76229 13.8176 1.96334C13.8794 2.1644 13.9826 2.13862 14.0444 2.33968C14.1063 2.54073 13.9774 2.58198 14.0393 2.78819C14.1011 2.9944 14.1578 2.97378 14.2197 3.17999C14.2816 3.3862 14.3176 3.37073 14.3795 3.57695C14.4414 3.78316 14.2042 3.85533 14.2661 4.05639C14.328 4.25744 14.5393 4.19558 14.6012 4.40179C14.6631 4.608 14.6476 4.61316 14.7094 4.81421C14.7713 5.01527 14.828 4.9998 14.8899 5.20601C14.9517 5.41222 14.8899 5.42769 14.9517 5.6339C15.0136 5.84011 15.1683 5.79372 15.2301 5.99477C15.292 6.19583 15.0136 6.28347 15.0755 6.48968C15.1373 6.69589 15.1219 6.69589 15.1837 6.9021C15.2456 7.10831 15.3126 7.08769 15.3745 7.28875C15.4363 7.4898 15.426 7.49496 15.4879 7.70117C15.5498 7.90738 15.3899 7.95378 15.4518 8.15483C15.5137 8.35589 15.5085 8.36104 15.5704 8.5621C15.6322 8.76316 15.7869 8.72191 15.8488 8.92297C15.9106 9.12403 15.8745 9.13949 15.9416 9.3457C16.0086 9.55191 16.1065 9.52098 16.1684 9.72204C16.2303 9.92309 16.2715 9.91278 16.3385 10.119C16.4055 10.3252 16.2045 10.3819 16.2663 10.5881C16.3282 10.7943 16.6581 10.6912 16.72 10.8974C16.7819 11.1037 16.3385 11.2377 16.4004 11.4387C16.4622 11.6398 16.9211 11.5058 16.9829 11.7068C17.0448 11.9079 16.7561 12.0007 16.818 12.2069C16.8798 12.4131 17.0654 12.3564 17.1273 12.5626C17.1891 12.7688 17.3077 12.7327 17.3747 12.9389C17.4417 13.1451 17.2355 13.1297 17.1067 13.2998C16.9778 13.4699 17.0706 13.2328 16.8644 13.2122C16.6581 13.1915 16.6375 13.4081 16.4313 13.3926C16.2251 13.3771 16.2457 13.0987 16.0344 13.0833C15.823 13.0678 15.7972 13.4493 15.5858 13.4338C15.3745 13.4184 15.3745 13.4545 15.1631 13.439C14.9517 13.4235 14.9878 12.9956 14.7765 12.9802C14.5651 12.9647 14.5445 13.2328 14.3383 13.2173C14.1321 13.2019 14.1475 12.9338 13.9413 12.9183C13.7351 12.9028 13.7248 12.9647 13.5186 12.9492C13.3124 12.9338 13.2866 13.1967 13.0804 13.1812C12.8742 13.1658 12.8793 13.0627 12.668 13.0472C12.4566 13.0317 12.4566 13.0317 12.2504 13.0111C12.0442 12.9905 12.0339 13.0472 11.8276 13.0317C11.6214 13.0163 11.606 13.1606 11.3946 13.14C11.1832 13.1194 11.2039 12.8307 10.9976 12.8152C10.7914 12.7997 10.8739 12.8049 10.7863 13.0008C10.6986 13.1967 10.745 13.006 10.8997 13.1451C11.0544 13.2843 11.0956 13.2328 11.2503 13.3668C11.4049 13.5009 11.4049 13.5009 11.5596 13.6401C11.7142 13.7792 11.807 13.671 11.9617 13.8102C12.1163 13.9494 11.9514 14.135 12.106 14.2741C12.2607 14.4133 12.3432 14.3154 12.4978 14.4546C12.6525 14.5938 12.4669 14.8 12.6216 14.934C12.7762 15.0681 12.9773 14.8464 13.1319 14.9856C13.2866 15.1248 13.1113 15.3155 13.266 15.4547C13.4206 15.5939 13.467 15.5423 13.6217 15.6815C13.7763 15.8207 13.864 15.7176 14.0186 15.8568C14.1733 15.996 14.1733 15.996 14.328 16.13C14.4826 16.2641 14.2919 16.4806 14.4517 16.6198C14.6115 16.759 14.5754 16.7951 14.7301 16.9343C14.8847 17.0735 15.2456 16.826 15.2095 17.0271C15.1734 17.2281 14.9672 17.0116 14.7713 17.0992C14.5754 17.1869 14.7146 17.4859 14.5187 17.5735C14.3228 17.6612 14.2352 17.455 14.0444 17.5374C13.8537 17.6199 13.8588 17.6405 13.6681 17.7282C13.4773 17.8158 13.4206 17.6921 13.2299 17.7746C13.0391 17.8571 13.1422 18.0942 12.9463 18.1819C12.7504 18.2695 12.6473 18.0272 12.4514 18.1097C12.2555 18.1922 12.3586 18.419 12.1627 18.5015C11.9668 18.584 11.9101 18.4499 11.7142 18.5376C11.5183 18.6252 11.4874 18.553 11.2967 18.6355C11.1059 18.718 11.2193 18.9861 11.0286 19.0737C10.8378 19.1614 10.7554 18.9758 10.5595 19.0582C10.3635 19.1407 10.3584 19.1304 10.1676 19.2181C9.9769 19.3057 10.0955 19.5738 9.89957 19.6614C9.70367 19.7491 9.57479 19.4552 9.38405 19.5377C9.1933 19.6202 9.12628 19.481 8.93554 19.5686C8.74479 19.6563 8.79119 19.7645 8.59529 19.847C8.39939 19.9295 8.50249 20.1563 8.30659 20.244C8.11069 20.3316 8.06945 20.2233 7.87355 20.311C7.67765 20.3986 7.67765 20.3883 7.48175 20.4708C7.28585 20.5533 7.37349 20.744 7.17759 20.8317C6.98169 20.9193 6.83218 20.5687 6.63628 20.6564C6.44038 20.744 6.49193 20.8471 6.29603 20.9296C6.10013 21.0121 6.2187 21.2699 6.0228 21.3575C5.8269 21.4451 5.74957 21.2596 5.55367 21.3472C5.35777 21.4348 5.26498 21.2235 5.07423 21.3111C4.88349 21.3987 4.9402 21.5276 4.74429 21.6153C4.54839 21.7029 4.63603 21.8988 4.44529 21.9813C4.25454 22.0638 4.20299 21.9555 4.00709 22.0432C3.81119 22.1308 3.74933 21.9916 3.55858 22.0792C3.36784 22.1669 3.49672 22.4607 3.30082 22.5484C3.10492 22.636 3.03274 22.471 2.842 22.5587C2.65125 22.6463 2.67187 22.6979 2.47597 22.7855C2.28007 22.8732 2.15634 22.5948 1.9656 22.6824C1.77485 22.77 1.7697 22.7649 1.5738 22.8525C1.3779 22.9402 1.20777 23.0227 1.25933 23.234C1.31088 23.4454 1.481 23.1773 1.69753 23.1619C1.91405 23.1464 1.91405 23.1876 2.12541 23.1722C2.33678 23.1567 2.32647 22.9917 2.54299 22.9814C2.75951 22.9711 2.76467 23.1 2.98119 23.0897C3.19771 23.0794 3.19256 23.0691 3.40908 23.0536C3.6256 23.0381 3.63075 23.167 3.84728 23.1515C4.0638 23.1361 4.04318 22.8164 4.25454 22.801C4.46591 22.7855 4.49684 23.2134 4.71336 23.1979C4.92988 23.1825 4.90926 22.8835 5.12063 22.868C5.332 22.8525 5.34231 23.002 5.55883 22.9866C5.77535 22.9711 5.78051 23.0587 5.99187 23.0433C6.20324 23.0278 6.21355 23.1567 6.43007 23.1412C6.64659 23.1258 6.63628 23.033 6.8528 23.0175C7.06933 23.002 7.05901 22.8628 7.27554 22.8474C7.49206 22.8319 7.4869 22.7958 7.70342 22.7804C7.91995 22.7649 7.93026 22.9711 8.14678 22.9556C8.3633 22.9402 8.33237 22.5432 8.54889 22.5278C8.76541 22.5123 8.76541 22.5329 8.98193 22.5226C9.19846 22.5123 9.20877 22.6773 9.42529 22.6618C9.64181 22.6463 9.65212 22.8164 9.86864 22.801C10.0852 22.7855 10.08 22.734 10.2914 22.7185C10.5027 22.703 10.5131 22.8113 10.7296 22.7958C10.9461 22.7804 10.9306 22.5999 11.1472 22.5845C11.3637 22.569 11.3688 22.6773 11.5802 22.6618C11.7916 22.6463 11.7813 22.4092 11.9926 22.3937C12.204 22.3782 12.2246 22.6102 12.4411 22.5948C12.6576 22.5793 12.6576 22.5948 12.8742 22.5845C13.0907 22.5741 13.0649 22.2133 13.2814 22.1978C13.498 22.1823 13.5186 22.4762 13.7299 22.4659C13.9413 22.4556 13.9516 22.5329 14.1681 22.5174C14.3847 22.502 14.3795 22.4865 14.596 22.471C14.8126 22.4556 14.8126 22.4556 15.0239 22.4401C15.2353 22.4246 15.2404 22.4607 15.457 22.4504C15.6735 22.4401 15.6477 22.0741 15.8642 22.0586C16.0808 22.0432 16.0911 22.2081 16.3076 22.1927C16.5241 22.1772 16.6427 21.9864 16.7613 22.172C16.8798 22.3576 16.6633 22.3834 16.555 22.5741C16.4468 22.7649 16.3488 22.7082 16.2406 22.8938C16.1323 23.0794 16.189 23.1155 16.0808 23.3062C15.9725 23.4969 16.0344 23.533 15.9261 23.7186C15.8178 23.9042 15.7147 23.8475 15.6013 24.0382C15.4879 24.229 15.4157 24.1826 15.3075 24.3733C15.1992 24.5641 15.3126 24.6259 15.2044 24.8167C15.0961 25.0074 15.0909 25.0023 14.9827 25.193C14.8744 25.3838 15.1116 25.5178 14.9981 25.7086C14.8847 25.8993 14.627 25.7498 14.5187 25.9405C14.4104 26.1313 14.6527 26.2705 14.5445 26.4612C14.4362 26.652 14.3176 26.585 14.2094 26.7757C14.1011 26.9664 14.1733 27.0077 14.065 27.1984C13.9568 27.3892 13.9001 27.3531 13.7918 27.5438C13.6835 27.7346 13.5908 27.6779 13.4825 27.8686C13.3742 28.0594 13.3536 28.0491 13.2454 28.2398C13.1371 28.4305 13.3072 28.5285 13.199 28.7192C13.0907 28.91 13.1216 28.9306 13.0134 29.1214C12.9051 29.3121 12.6319 29.1007 12.7711 29.2709C12.9103 29.441 12.8329 29.374 13.0288 29.2863C13.2247 29.1987 13.2866 29.343 13.4825 29.2554C13.6784 29.1678 13.632 29.0646 13.8279 28.977C14.0238 28.8894 14.0805 29.0286 14.2764 28.9409C14.4723 28.8533 14.3795 28.6522 14.5754 28.5646C14.7713 28.4769 14.694 28.2965 14.8899 28.214C15.0858 28.1315 15.2353 28.4718 15.4312 28.3841C15.6271 28.2965 15.5446 28.1058 15.7405 28.0181C15.9364 27.9305 15.9106 27.8686 16.1065 27.7861C16.3024 27.7037 16.3746 27.8583 16.5705 27.7758C16.7664 27.6933 16.7613 27.6727 16.9572 27.5851C17.1531 27.4974 17.1634 27.5181 17.3593 27.4356C17.5552 27.3531 17.5964 27.4356 17.7923 27.3531C17.9882 27.2706 17.8387 26.92 18.0346 26.8324C18.2305 26.7448 18.2821 26.8582 18.478 26.7705C18.6739 26.6829 18.6996 26.7345 18.8955 26.652C19.0914 26.5695 19.0811 26.5437 19.277 26.4612C19.4729 26.3787 19.5142 26.4612 19.7101 26.3787C19.906 26.2963 19.8905 26.255 20.0864 26.1674C20.2823 26.0797 20.3648 26.2602 20.5607 26.1674C20.7566 26.0746 20.7721 25.5642 20.9422 25.6982C21.1123 25.8323 20.7411 25.9818 20.6999 26.188C20.6586 26.3942 20.7514 26.4148 20.7102 26.621C20.669 26.8273 20.7102 26.8376 20.6741 27.0438C20.638 27.25 20.7102 27.2655 20.669 27.4717C20.6277 27.6779 20.4782 27.6469 20.4318 27.8532C20.3854 28.0594 20.4627 28.0748 20.4215 28.281C20.3803 28.4873 20.4627 28.5027 20.4215 28.7089C20.3803 28.9151 20.0709 28.8533 20.0297 29.0595C19.9885 29.2657 20.0503 29.2812 20.0091 29.4874C19.9678 29.6936 20.0555 29.7091 20.0091 29.9153C19.9627 30.1215 20.0555 30.1369 20.0091 30.3432C19.9627 30.5494 19.6894 30.4927 19.6482 30.6989C19.607 30.9051 19.8441 30.9566 19.8029 31.1628C19.7616 31.3691 19.6791 31.3536 19.6379 31.5546C19.5967 31.7557 19.6121 31.766 19.5709 31.9722C19.5296 32.1784 19.3131 32.132 19.2719 32.3382C19.2306 32.5445 19.2358 32.5445 19.1945 32.7507C19.1533 32.9569 19.6224 33.0548 19.5812 33.261C19.5399 33.4673 19.1378 33.3848 19.0914 33.591C19.045 33.7972 19.0399 33.7972 18.9986 34.0034C18.9574 34.2096 19.0244 34.2251 18.9832 34.4313C18.9419 34.6375 18.9419 34.6375 18.9007 34.8437C18.8594 35.0499 18.8131 35.0396 18.7667 35.2458C18.7203 35.452 19.0193 35.5139 18.978 35.7201C18.9368 35.9263 18.7048 35.8799 18.6584 36.0861C18.612 36.2923 18.8131 36.3336 18.7667 36.5398C18.7203 36.746 18.7667 36.7563 18.7254 36.9625C18.6842 37.1687 18.3285 37.0966 18.2821 37.3028C18.2357 37.509 18.4419 37.5554 18.3955 37.7616C18.3491 37.9678 18.014 38.2926 18.2099 38.3751C18.4058 38.4576 18.4728 38.04 18.5965 37.8647C18.7203 37.6894 18.7615 37.7152 18.8852 37.5451C19.009 37.375 18.9522 37.3286 19.076 37.1533C19.1997 36.978 19.2976 37.0502 19.4214 36.8749C19.5451 36.6996 19.5451 36.6996 19.6688 36.5295C19.7926 36.3594 19.5967 36.215 19.7255 36.0449C19.8544 35.8748 19.8854 35.8954 20.0091 35.7201C20.1328 35.5448 20.2153 35.6015 20.339 35.4314C20.4627 35.2613 20.5762 35.3386 20.705 35.1633C20.8339 34.9881 20.4834 34.7406 20.6071 34.5653C20.7308 34.39 20.9783 34.5653 21.102 34.39C21.2257 34.2148 21.3443 34.3024 21.468 34.1271C21.5917 33.9518 21.4732 33.8694 21.5969 33.6992C21.7206 33.5291 21.4886 33.359 21.6124 33.1837C21.7361 33.0084 22.097 33.2662 22.2207 33.0961C22.3444 32.9259 22.1794 32.8022 22.3032 32.6321C22.4269 32.462 22.2258 32.3125 22.3547 32.1372C22.4836 31.9619 22.6073 32.0547 22.7311 31.8794C22.8548 31.7041 22.9734 31.7866 23.0971 31.6114C23.2208 31.4361 23.2517 31.4567 23.3755 31.2814C23.4992 31.1061 23.5508 31.1422 23.6745 30.9669C23.7982 30.7917 23.5404 30.6061 23.6642 30.4308C23.7879 30.2555 23.9683 30.3844 24.0972 30.2091C24.2261 30.0338 23.9786 29.8586 24.1024 29.6833C24.2261 29.508 24.3653 29.6059 24.489 29.4307C24.6127 29.2554 24.7726 29.3688 24.8963 29.1935C25.02 29.0182 24.9478 28.9667 25.0716 28.7914C25.1953 28.6161 25.1025 28.5491 25.2314 28.3738C25.3603 28.1986 25.2365 28.1161 25.3654 27.9356C25.4943 27.7552 25.8397 28.0078 25.9686 27.8325C26.0975 27.6573 25.8139 27.2655 26.0304 27.2809C26.247 27.2964 26.2521 27.4665 26.3501 27.6573C26.448 27.848 26.4429 27.8532 26.546 28.0439C26.6491 28.2346 26.5357 28.2914 26.6388 28.4821C26.7419 28.6728 26.8398 28.6161 26.9429 28.8069C27.046 28.9976 27.1234 28.9564 27.2213 29.1471C27.3193 29.3379 27.278 29.3585 27.376 29.5492C27.4739 29.74 27.5512 29.6987 27.6492 29.8895C27.7472 30.0802 27.6131 30.1524 27.7162 30.3432C27.8193 30.5339 27.7008 30.5958 27.8039 30.7865C27.907 30.9773 27.8193 31.0237 27.9224 31.2092C28.0255 31.3948 28.0255 31.4 28.1235 31.5856C28.2214 31.7712 28.5359 31.6114 28.639 31.8021C28.7421 31.9928 28.3813 32.1836 28.4792 32.3743C28.5772 32.5651 28.5978 32.5548 28.7009 32.7455C28.804 32.9363 29.0257 32.8177 29.1288 33.0084C29.2319 33.1992 28.9741 33.3332 29.0772 33.524C29.1803 33.7147 29.5154 33.5343 29.6185 33.725C29.7216 33.9158 29.6958 33.9261 29.799 34.1168C29.9021 34.3076 29.5567 34.488 29.6546 34.6787C29.7526 34.8695 29.8917 34.7973 29.9949 34.9881C30.098 35.1788 30.2011 35.1221 30.3042 35.318C30.4073 35.5139 30.531 35.4417 30.6341 35.6376C30.7372 35.8335 30.4279 35.9727 30.6393 35.9366C30.8506 35.9005 30.7372 35.9005 30.7372 35.6892C30.7372 35.4778 30.4331 35.4778 30.4331 35.2664C30.4331 35.0551 30.5619 35.0551 30.5619 34.8437C30.5619 34.6323 30.5207 34.6323 30.5207 34.421C30.5207 34.2096 30.6341 34.2096 30.6341 33.9982C30.6341 33.7869 30.7836 33.7869 30.7836 33.5755C30.7836 33.3641 30.5774 33.3641 30.5774 33.1528C30.5774 32.9414 30.6702 32.9414 30.6702 32.73C30.6702 32.5187 30.7888 32.5187 30.7888 32.3073C30.7888 32.0959 30.4331 32.0959 30.4331 31.8846C30.4331 31.6732 30.531 31.6732 30.531 31.4619C30.531 31.2505 30.4846 31.2505 30.4846 31.0391C30.4846 30.8277 30.8249 30.8277 30.8249 30.6164C30.8249 30.405 30.6547 30.405 30.6547 30.1937C30.6547 29.9823 30.7321 29.9823 30.7321 29.7709C30.7321 29.5596 30.9228 29.5596 30.9228 29.3482C30.9228 29.1368 30.7527 29.1368 30.7527 28.9255C30.7527 28.7141 30.8816 28.7141 30.8816 28.5027C30.8816 28.2914 30.8197 28.2914 30.8197 28.08C30.8197 27.8686 30.5516 27.8686 30.5516 27.6573C30.5516 27.4459 30.6805 27.4459 30.6805 27.2345C30.6805 27.0232 30.665 27.0232 30.665 26.8118C30.665 26.6004 30.8764 26.6004 30.8764 26.3891C30.8764 26.1777 30.4279 26.1777 30.4279 25.9663C30.4279 25.755 30.696 25.755 30.696 25.5384C30.696 25.3219 30.8816 25.3271 30.8816 25.1105C30.8816 24.894 30.397 24.6569 30.5722 24.5383C30.7475 24.4197 30.8661 24.8012 31.0672 24.8734C31.2682 24.9456 31.2527 24.9868 31.459 25.059C31.6652 25.1312 31.7734 24.7961 31.9796 24.8631C32.1858 24.9301 32.1188 25.1209 32.3199 25.193C32.5209 25.2652 32.5003 25.3271 32.7065 25.3992C32.9127 25.4714 32.9024 25.4817 33.1086 25.5539C33.3149 25.6261 33.2685 25.7498 33.4695 25.8168C33.6706 25.8838 33.6809 25.8632 33.8819 25.9354C34.083 26.0076 34.0881 25.9921 34.2944 26.0643C34.5006 26.1364 34.4748 26.2086 34.6758 26.2756C34.8769 26.3427 34.9078 26.255 35.114 26.3272C35.3203 26.3994 35.279 26.5179 35.4801 26.585C35.6811 26.652 35.7327 26.5128 35.9337 26.585C36.1348 26.6571 36.0987 26.7602 36.3049 26.8324C36.5111 26.9046 36.6503 26.4922 36.8514 26.5592C37.0524 26.6262 36.9287 26.9974 37.1349 27.0644C37.3411 27.1314 37.4545 26.8066 37.6556 26.8737C37.8567 26.9407 37.7484 27.2758 37.9494 27.3479C38.1505 27.4201 38.3928 27.6057 38.5217 27.4304C38.6506 27.2551 38.2845 27.1727 38.1453 27.018C38.0062 26.8633 37.9598 26.9046 37.8154 26.7448C37.6711 26.585 37.5112 26.7396 37.3669 26.585C37.2226 26.4303 37.4339 26.2396 37.2896 26.0849C37.1452 25.9302 37.2586 25.8271 37.1143 25.6776C36.9699 25.5281 37.0215 25.4766 36.8823 25.3219C36.7431 25.1673 36.4389 25.4456 36.2946 25.291C36.1503 25.1363 36.3668 24.9404 36.2224 24.7858C36.0781 24.6311 35.9183 24.7755 35.7739 24.6208C35.6296 24.4661 35.5729 24.5177 35.4337 24.363C35.2945 24.2084 35.3873 24.1207 35.2429 23.9661C35.0986 23.8114 35.2171 23.7032 35.078 23.5485C34.9388 23.3938 34.7274 23.5846 34.5882 23.4248C34.449 23.265 34.5109 23.2082 34.3717 23.0484C34.2325 22.8886 34.2016 22.9196 34.0572 22.7649C33.9129 22.6102 33.9026 22.6205 33.7634 22.4607C33.6242 22.3009 33.8252 22.1205 33.6809 21.9607C33.5365 21.8009 33.5468 21.7957 33.4025 21.641C33.2581 21.4864 33.1705 21.5689 33.0262 21.4091C32.8818 21.2492 33.0262 21.1255 32.8818 20.9709C32.7375 20.8162 32.4333 21.0946 32.289 20.9348C32.1446 20.775 32.3869 20.5584 32.2426 20.3986C32.0982 20.2388 31.9951 20.3368 31.8508 20.1769C31.7064 20.0171 31.6239 20.0945 31.6549 19.8831C31.6858 19.6717 31.7837 19.8367 31.9693 19.7336C32.1549 19.6305 32.0415 19.4191 32.2271 19.316C32.4127 19.2129 32.4694 19.3109 32.655 19.2078C32.8406 19.1046 32.7993 19.0273 32.9849 18.9242C33.1705 18.8211 33.1344 18.7489 33.32 18.6458C33.5056 18.5427 33.7221 18.9242 33.9077 18.8211C34.0933 18.718 33.9953 18.5376 34.1861 18.4345C34.3768 18.3314 34.3975 18.3726 34.583 18.2695C34.7686 18.1664 34.8202 18.254 35.0058 18.1509C35.1914 18.0478 35.0058 17.7127 35.1965 17.6096C35.3873 17.5065 35.377 17.491 35.5677 17.3879C35.7585 17.2848 35.908 17.5581 36.0987 17.455C36.2894 17.3519 36.274 17.3312 36.4647 17.2281C36.6555 17.125 36.5524 16.9446 36.7431 16.8415C36.9339 16.7384 37.0834 17.0064 37.2689 16.9033C37.4545 16.8002 37.3153 16.5425 37.5009 16.4394C37.6865 16.3363 37.836 16.6043 38.0268 16.5012C38.2175 16.3981 38.0474 16.094 38.233 15.9857C38.4186 15.8774 38.3928 15.8259 38.5835 15.7228C38.7743 15.6197 38.9238 15.8929 39.1145 15.7846C39.3053 15.6764 39.3878 15.7176 39.3568 15.5011C39.3259 15.2846 39.2176 15.6197 39.0063 15.5939C38.7949 15.5681 38.8104 15.4238 38.6042 15.398C38.398 15.3722 38.4031 15.3001 38.1917 15.2743C37.9804 15.2485 37.9907 15.1557 37.7793 15.1299C37.568 15.1041 37.5783 15.0371 37.3669 15.0165C37.1555 14.9959 37.1555 15.0062 36.9493 14.9804C36.7431 14.9546 36.6967 15.3207 36.4905 15.2949C36.2843 15.2691 36.2998 15.099 36.0884 15.0784C35.877 15.0578 35.8822 15.001 35.676 14.9804C35.4698 14.9598 35.4491 15.1041 35.2378 15.0784C35.0264 15.0526 35.047 14.8979 34.8357 14.8722C34.6243 14.8464 34.6088 14.9907 34.3975 14.965C34.1861 14.9392 34.1809 15.0114 33.9696 14.9907C33.7582 14.9701 33.7994 14.6196 33.5881 14.5989C33.3767 14.5783 33.3716 14.6247 33.1602 14.5989C32.9488 14.5732 32.9076 14.965 32.6962 14.9392C32.4849 14.9134 32.4849 14.9289 32.2735 14.9082C32.0621 14.8876 32.1085 14.4546 31.9023 14.434C31.6961 14.4133 31.66 14.6866 31.4486 14.6608C31.2373 14.635 31.2527 14.5061 31.0414 14.4804C30.83 14.4546 30.7991 14.7175 30.5877 14.6917C30.3763 14.666 30.3403 14.6144 30.232 14.4288C30.1237 14.2432 30.3557 14.2999 30.4434 14.1092C30.531 13.9184 30.5619 13.9287 30.6547 13.738C30.7475 13.5473 30.5826 13.4699 30.6753 13.274C30.7681 13.0781 31.0053 13.1967 31.0981 13.0008C31.1909 12.8049 30.9898 12.7121 31.0826 12.5214C31.1754 12.3306 31.2785 12.377 31.3713 12.1863C31.4641 11.9955 31.1548 11.846 31.2476 11.6553C31.3404 11.4645 31.428 11.5058 31.5208 11.3099C31.6136 11.114 31.5621 11.0933 31.6549 10.8974C31.7476 10.7015 31.9126 10.784 32.0003 10.5881C32.0879 10.3922 31.892 10.3046 31.9848 10.1087C32.0776 9.91278 32.4952 10.1138 32.588 9.92309C32.6808 9.73235 32.3869 9.588 32.4745 9.39726C32.5622 9.20651 32.5725 9.20651 32.6653 9.01576C32.7581 8.82502 32.7684 8.83017 32.8612 8.63427C32.954 8.43837 33.2272 8.57241 33.32 8.38167C33.4128 8.19092 33.2685 8.11875 33.3612 7.928C33.454 7.73726 33.619 7.81458 33.7118 7.61868C33.8046 7.42278 33.6654 7.36092 33.7582 7.16502C33.851 6.96912 33.6035 6.8557 33.6963 6.6598C33.7891 6.4639 33.9026 6.52061 33.9953 6.32471C34.0881 6.12881 34.1191 6.14427 34.2119 5.95353C34.3047 5.76278 34.3201 5.76794 34.4129 5.57204C34.5057 5.37614 34.3511 5.30396 34.4439 5.11322C34.5367 4.92247 34.5779 4.93794 34.6655 4.74204C34.7532 4.54614 34.9181 4.62347 35.0109 4.42757C35.1037 4.23167 35.2429 4.29868 35.3357 4.10278C35.4285 3.90688 35.4337 3.83471 35.2687 3.69036C35.1037 3.54601 35.3357 3.94813 35.1811 4.08732C35.0264 4.22651 34.8769 4.06154 34.7222 4.20073C34.5676 4.33993 34.6604 4.44819 34.5006 4.58738C34.3408 4.72657 34.2325 4.59769 34.0727 4.73688C33.9129 4.87608 34.0469 5.02558 33.8871 5.16477C33.7273 5.30396 33.5932 5.14415 33.4334 5.28334C33.2736 5.42254 33.2169 5.35552 33.0622 5.48955C32.9076 5.62359 33.0365 5.77825 32.8818 5.91744C32.7272 6.05663 32.6859 6.01539 32.5313 6.14943C32.3766 6.28347 32.4281 6.35049 32.2735 6.48968C32.1188 6.62887 32.1858 6.7062 32.026 6.84539C31.8662 6.98458 31.6806 6.77322 31.5208 6.91241C31.361 7.0516 31.3919 7.08254 31.2321 7.22173C31.0723 7.36092 31.129 7.42794 30.9744 7.56713C30.8197 7.70632 30.6599 7.52589 30.5001 7.66508C30.3403 7.80427 30.3093 7.76819 30.1495 7.90738C29.9897 8.04657 30.2371 8.33011 30.0773 8.4693C29.9175 8.6085 29.8144 8.48993 29.6546 8.62912C29.4948 8.76831 29.3608 8.61881 29.2061 8.758C29.0514 8.89719 28.9999 8.84564 28.8452 8.97968C28.6906 9.11372 28.9019 9.36632 28.7473 9.50552C28.5926 9.64471 28.6287 9.69111 28.4689 9.8303C28.3091 9.96949 28.3452 10.0107 28.1853 10.1499C28.0255 10.2891 28.0255 10.2891 27.8657 10.4335C27.7059 10.5778 27.644 10.5005 27.4842 10.6397C27.3244 10.7789 27.2986 10.9078 27.0976 10.8459C26.8965 10.784 26.8037 10.7067 26.7367 10.5005C26.6697 10.2943 27.1182 10.1551 27.0512 9.94372C26.9842 9.73235 26.5821 9.86123 26.5202 9.64986C26.4583 9.4385 26.5357 9.41788 26.4686 9.21167C26.4016 9.00545 26.6852 8.91781 26.6233 8.70645C26.5614 8.49508 26.546 8.50024 26.4841 8.28887C26.4222 8.0775 26.1593 8.15999 26.0975 7.94862C26.0356 7.73726 25.9376 7.76819 25.8758 7.55682C25.8139 7.34545 25.8964 7.31968 25.8345 7.10831C25.7727 6.89695 25.9531 6.84024 25.8861 6.63403C25.8191 6.42781 25.8809 6.40719 25.8139 6.19583C25.7469 5.98446 25.4634 6.07726 25.4015 5.86589C25.3396 5.65452 25.4273 5.62875 25.3603 5.41738C25.2932 5.20601 25.4015 5.17508 25.3396 4.96372C25.2778 4.75235 25.4118 4.71111 25.3448 4.49974C25.2778 4.28837 25.2468 4.25744 25.0252 4.23682C24.8035 4.2162 25.1695 4.43272 25.0767 4.62862C24.9839 4.82452 24.9942 4.82968 24.9066 5.02558C24.819 5.22148 24.5509 5.10291 24.4581 5.29881C24.3653 5.49471 24.4168 5.51533 24.324 5.71123C24.2312 5.90713 24.3137 5.94322 24.2209 6.13912C24.1281 6.33502 24.2003 6.36595 24.1127 6.56701C24.025 6.76806 23.7209 6.62372 23.6281 6.82477C23.5353 7.02583 23.5559 7.03098 23.4631 7.22688C23.3703 7.42278 23.3549 7.41763 23.2621 7.61353C23.1693 7.80943 23.2672 7.85583 23.1744 8.05173C23.0816 8.24763 22.9888 8.20639 22.896 8.40229C22.8032 8.59819 22.7362 8.56726 22.6486 8.76316C22.5609 8.95906 22.9012 9.11887 22.8135 9.31477C22.7259 9.51067 22.762 9.53129 22.6692 9.72719C22.5764 9.92309 22.3753 9.83545 22.2877 10.0314C22.2001 10.2273 22.231 10.2479 22.1382 10.4438C22.0454 10.6397 22.1588 10.8459 21.9423 10.882C21.7258 10.9181 21.633 10.8098 21.4938 10.65C21.3546 10.4902 21.4062 10.4438 21.2618 10.284C21.1175 10.1241 21.2515 10.0056 21.1123 9.84576C20.9731 9.68595 20.8339 9.80968 20.6896 9.64986C20.5452 9.49005 20.4731 9.55707 20.3339 9.39726C20.1947 9.23744 20.4473 9.01061 20.3029 8.8508C20.1586 8.69098 20.2101 8.64974 20.0658 8.48993C19.9214 8.33011 19.6327 8.58788 19.4935 8.42806C19.3544 8.26825 19.3853 8.23732 19.2461 8.0775C19.1069 7.91769 19.3183 7.72694 19.1791 7.56713C19.0399 7.40732 19.0966 7.35577 18.9522 7.20111C18.8079 7.04645 18.7409 7.10316 18.6017 6.94334C18.4625 6.78353 18.5604 6.69589 18.4161 6.53608C18.2717 6.37626 18.0604 6.56701 17.9212 6.40719C17.782 6.24738 17.648 6.36595 17.5036 6.20614C17.3593 6.04632 17.4727 5.94837 17.3335 5.78856C17.1943 5.62875 17.2355 5.5875 17.0963 5.42769C16.9572 5.26788 16.8953 5.31943 16.7561 5.15962C16.6169 4.9998 16.6169 4.99465 16.4777 4.83483C16.3385 4.67502 16.3746 4.63893 16.2303 4.47912C16.0859 4.31931 15.988 4.40695 15.8488 4.24713C15.7096 4.08732 15.8488 3.95328 15.7096 3.79347C15.5704 3.63365 15.3848 3.79347 15.2404 3.63881C15.0961 3.48415 15.4467 3.16452 15.3075 3.00471C15.1683 2.8449 14.9157 3.06657 14.7713 2.90676C14.627 2.74695 14.7301 2.65415 14.5857 2.49434C14.4414 2.33452 14.4465 2.32937 14.3022 2.16955C14.1578 2.00974 13.8898 2.16955 13.7918 1.97881C13.6423 1.68496 13.7918 1.30347 13.6011 1.40142L13.5753 1.40657Z" stroke="#FE65FE" stroke-width="1.03106" stroke-miterlimit="10"/>
</g>
<defs>
<clipPath id="clip0_660_10111">
<rect width="40" height="40" fill="white" transform="translate(0.25 0.385742)"/>
</clipPath>
</defs>
</svg>
