<svg width="44" height="44" viewBox="0 0 44 44" fill="none" xmlns="http://www.w3.org/2000/svg">
<path d="M23.375 5.5V11C23.375 11.3647 23.2301 11.7144 22.9723 11.9723C22.7144 12.2301 22.3647 12.375 22 12.375C21.6353 12.375 21.2856 12.2301 21.0277 11.9723C20.7699 11.7144 20.625 11.3647 20.625 11V5.5C20.625 5.13533 20.7699 4.78559 21.0277 4.52773C21.2856 4.26987 21.6353 4.125 22 4.125C22.3647 4.125 22.7144 4.26987 22.9723 4.52773C23.2301 4.78559 23.375 5.13533 23.375 5.5ZM38.5 20.625H33C32.6353 20.625 32.2856 20.7699 32.0277 21.0277C31.7699 21.2856 31.625 21.6353 31.625 22C31.625 22.3647 31.7699 22.7144 32.0277 22.9723C32.2856 23.2301 32.6353 23.375 33 23.375H38.5C38.8647 23.375 39.2144 23.2301 39.4723 22.9723C39.7301 22.7144 39.875 22.3647 39.875 22C39.875 21.6353 39.7301 21.2856 39.4723 21.0277C39.2144 20.7699 38.8647 20.625 38.5 20.625ZM30.7502 28.8063C30.4902 28.5593 30.144 28.4236 29.7855 28.4282C29.4269 28.4328 29.0844 28.5773 28.8308 28.8308C28.5773 29.0844 28.4328 29.4269 28.4282 29.7855C28.4236 30.144 28.5593 30.4902 28.8063 30.7502L32.6941 34.6397C32.9521 34.8977 33.302 35.0426 33.6669 35.0426C34.0318 35.0426 34.3817 34.8977 34.6397 34.6397C34.8977 34.3817 35.0426 34.0318 35.0426 33.6669C35.0426 33.302 34.8977 32.9521 34.6397 32.6941L30.7502 28.8063ZM22 31.625C21.6353 31.625 21.2856 31.7699 21.0277 32.0277C20.7699 32.2856 20.625 32.6353 20.625 33V38.5C20.625 38.8647 20.7699 39.2144 21.0277 39.4723C21.2856 39.7301 21.6353 39.875 22 39.875C22.3647 39.875 22.7144 39.7301 22.9723 39.4723C23.2301 39.2144 23.375 38.8647 23.375 38.5V33C23.375 32.6353 23.2301 32.2856 22.9723 32.0277C22.7144 31.7699 22.3647 31.625 22 31.625ZM13.2498 28.8063L9.36031 32.6941C9.10231 32.9521 8.95736 33.302 8.95736 33.6669C8.95736 34.0318 9.10231 34.3817 9.36031 34.6397C9.61832 34.8977 9.96825 35.0426 10.3331 35.0426C10.698 35.0426 11.0479 34.8977 11.3059 34.6397L15.1938 30.7502C15.4407 30.4902 15.5764 30.144 15.5718 29.7855C15.5672 29.4269 15.4227 29.0844 15.1692 28.8308C14.9156 28.5773 14.5731 28.4328 14.2145 28.4282C13.856 28.4236 13.5098 28.5593 13.2498 28.8063ZM12.375 22C12.375 21.6353 12.2301 21.2856 11.9723 21.0277C11.7144 20.7699 11.3647 20.625 11 20.625H5.5C5.13533 20.625 4.78559 20.7699 4.52773 21.0277C4.26987 21.2856 4.125 21.6353 4.125 22C4.125 22.3647 4.26987 22.7144 4.52773 22.9723C4.78559 23.2301 5.13533 23.375 5.5 23.375H11C11.3647 23.375 11.7144 23.2301 11.9723 22.9723C12.2301 22.7144 12.375 22.3647 12.375 22ZM11.3059 9.36031C11.0479 9.10231 10.698 8.95736 10.3331 8.95736C9.96825 8.95736 9.61832 9.10231 9.36031 9.36031C9.10231 9.61832 8.95736 9.96825 8.95736 10.3331C8.95736 10.698 9.10231 11.0479 9.36031 11.3059L13.2498 15.1938C13.5098 15.4407 13.856 15.5764 14.2145 15.5718C14.5731 15.5672 14.9156 15.4227 15.1692 15.1692C15.4227 14.9156 15.5672 14.5731 15.5718 14.2145C15.5764 13.856 15.4407 13.5098 15.1938 13.2498L11.3059 9.36031Z" fill="white"/>
</svg>
