<svg width="28" height="28" viewBox="0 0 28 28" fill="none" xmlns="http://www.w3.org/2000/svg">
<path d="M15.3125 14C15.3125 14.2596 15.2355 14.5133 15.0913 14.7292C14.9471 14.945 14.7421 15.1133 14.5023 15.2126C14.2624 15.3119 13.9985 15.3379 13.7439 15.2873C13.4893 15.2366 13.2555 15.1116 13.0719 14.9281C12.8884 14.7445 12.7634 14.5107 12.7127 14.2561C12.6621 14.0015 12.6881 13.7376 12.7874 13.4977C12.8867 13.2579 13.055 13.0529 13.2708 12.9087C13.4867 12.7645 13.7404 12.6875 14 12.6875C14.3481 12.6875 14.6819 12.8258 14.9281 13.0719C15.1742 13.3181 15.3125 13.6519 15.3125 14ZM14 7.875C14.2596 7.875 14.5133 7.79802 14.7292 7.6538C14.945 7.50959 15.1133 7.3046 15.2126 7.06477C15.3119 6.82494 15.3379 6.56104 15.2873 6.30644C15.2366 6.05184 15.1116 5.81798 14.9281 5.63442C14.7445 5.45087 14.5107 5.32586 14.2561 5.27522C14.0015 5.22458 13.7376 5.25057 13.4977 5.34991C13.2579 5.44925 13.0529 5.61748 12.9087 5.83331C12.7645 6.04915 12.6875 6.30291 12.6875 6.5625C12.6875 6.9106 12.8258 7.24444 13.0719 7.49058C13.3181 7.73672 13.6519 7.875 14 7.875ZM14 20.125C13.7404 20.125 13.4867 20.202 13.2708 20.3462C13.055 20.4904 12.8867 20.6954 12.7874 20.9352C12.6881 21.1751 12.6621 21.439 12.7127 21.6936C12.7634 21.9482 12.8884 22.182 13.0719 22.3656C13.2555 22.5491 13.4893 22.6741 13.7439 22.7248C13.9985 22.7754 14.2624 22.7494 14.5023 22.6501C14.7421 22.5508 14.9471 22.3825 15.0913 22.1667C15.2355 21.9508 15.3125 21.6971 15.3125 21.4375C15.3125 21.0894 15.1742 20.7556 14.9281 20.5094C14.6819 20.2633 14.3481 20.125 14 20.125Z" fill="white"/>
</svg>
