<svg width="22" height="22" viewBox="0 0 22 22" fill="none" xmlns="http://www.w3.org/2000/svg">
<path d="M18 4.63637V17.3636C18 17.7012 17.8659 18.0249 17.6272 18.2636C17.3885 18.5023 17.0648 18.6364 16.7273 18.6364H13.5455C13.2079 18.6364 12.8842 18.5023 12.6455 18.2636C12.4068 18.0249 12.2727 17.7012 12.2727 17.3636V4.63637C12.2727 4.29883 12.4068 3.9751 12.6455 3.73642C12.8842 3.49774 13.2079 3.36365 13.5455 3.36365H16.7273C17.0648 3.36365 17.3885 3.49774 17.6272 3.73642C17.8659 3.9751 18 4.29883 18 4.63637ZM8.45455 3.36365H5.27273C4.93518 3.36365 4.61146 3.49774 4.37277 3.73642C4.13409 3.9751 4 4.29883 4 4.63637V17.3636C4 17.7012 4.13409 18.0249 4.37277 18.2636C4.61146 18.5023 4.93518 18.6364 5.27273 18.6364H8.45455C8.79209 18.6364 9.11582 18.5023 9.3545 18.2636C9.59318 18.0249 9.72727 17.7012 9.72727 17.3636V4.63637C9.72727 4.29883 9.59318 3.9751 9.3545 3.73642C9.11582 3.49774 8.79209 3.36365 8.45455 3.36365Z" fill="white"/>
</svg>
