<svg width="360" height="780" viewBox="0 0 360 780" fill="none" xmlns="http://www.w3.org/2000/svg">
<g clip-path="url(#clip0_1095_4062)">
<rect width="360" height="780" fill="#1A1B1E"/>
<path d="M541.662 414.26C544.469 414.443 544.674 416.179 547.445 415.742C550.216 415.305 549.964 413.794 552.735 413.358C555.506 412.921 555.095 410.366 557.866 409.929C560.637 409.492 561.399 414.096 564.162 413.587C566.924 413.078 566.479 410.233 569.209 409.765C571.94 409.296 571.795 408.066 574.566 407.629C577.337 407.193 577.688 409.241 580.459 408.805C583.23 408.368 583.096 407.54 585.867 407.103C588.638 406.667 588.738 407.205 591.509 406.768C594.28 406.331 593.986 404.459 596.748 403.95C599.51 403.441 599.619 404.051 602.381 403.542C605.144 403.033 604.984 401.988 607.787 401.511C610.59 401.034 611.06 404.096 613.863 403.618C616.666 403.141 616.332 401.237 619.103 400.8C621.873 400.363 621.965 400.829 624.768 400.352C627.571 399.875 627.547 399.987 630.35 399.51C633.153 399.033 633.078 398.712 635.849 398.275C638.62 397.838 639.097 400.642 641.859 400.133C644.622 399.624 644.353 397.969 647.124 397.532C649.895 397.095 649.518 394.829 652.321 394.352C655.124 393.875 655.26 395.032 658.063 394.555C660.866 394.078 661.362 397.356 664.165 396.879C666.968 396.402 666.214 391.87 668.985 391.433C671.756 390.997 672.064 392.684 674.795 392.215C677.525 391.746 677.9 393.682 680.671 393.246C683.442 392.809 683.534 393.275 686.336 392.798C689.139 392.32 688.588 389.195 691.39 388.718C694.193 388.24 694.21 388.385 696.981 387.948C699.752 387.511 700.412 391.247 703.143 390.779C705.873 390.31 705.762 389.37 708.565 388.892C711.368 388.415 710.674 384.39 713.445 383.953C716.215 383.516 716.986 388.193 719.789 387.715C722.592 387.238 721.806 382.747 724.609 382.27C727.412 381.792 727.774 384.243 730.536 383.734C733.299 383.225 733.618 385.314 736.421 384.837C739.224 384.36 738.481 380.23 741.283 379.753C744.086 379.276 744.289 380.682 747.06 380.245C749.83 379.809 750.307 382.613 753.078 382.176C755.849 381.739 755.221 377.963 757.992 377.526C760.763 377.089 760.646 376.406 763.417 375.969C766.187 375.532 766.858 379.671 769.661 379.193C772.464 378.716 772.021 376.201 774.792 375.765C777.563 375.328 777.612 375.432 780.383 374.995C783.153 374.558 783.271 375.241 786.073 374.764C788.876 374.287 788.953 374.938 791.724 374.501C794.495 374.064 794.084 371.509 796.855 371.072C799.625 370.635 799.734 371.246 802.537 370.769C805.34 370.292 805.257 369.898 808.028 369.461C810.798 369.025 811.167 371.218 813.929 370.709C816.692 370.2 816.892 371.276 819.622 370.808C822.353 370.339 821.756 366.522 824.559 366.045C827.362 365.567 827.799 368.34 830.57 367.903C833.34 367.466 833.172 366.349 835.975 365.872C838.778 365.395 838.578 364.318 841.38 363.841C844.183 363.364 844.166 363.219 846.937 362.782C849.708 362.345 850.251 365.398 853.022 364.962C855.793 364.525 855.659 363.697 858.461 363.22C861.264 362.743 861.047 361.522 863.818 361.085C866.589 360.648 866.529 360.142 869.292 359.632C872.054 359.123 872.514 361.783 875.285 361.346C878.056 360.909 877.559 357.63 880.33 357.194C883.101 356.757 883.812 360.927 886.615 360.45C889.418 359.972 888.747 355.834 891.478 355.366C894.208 354.897 894.24 354.856 897.043 354.379C899.846 353.902 899.98 354.73 902.751 354.293C905.522 353.856 905.696 354.716 908.499 354.238C911.302 353.761 911.487 355.023 914.258 354.586C917.029 354.149 917.095 354.398 919.866 353.961C922.637 353.525 922.334 351.58 925.105 351.143C927.876 350.706 927.599 348.979 930.402 348.501C933.205 348.024 933.767 351.552 936.57 351.074C939.373 350.597 939.147 349.304 941.918 348.867C944.689 348.43 945.049 350.551 947.851 350.074C950.654 349.597 950 345.603 952.771 345.167C955.574 344.689 955.674 345.228 958.445 344.791C961.216 344.354 961.231 344.169 964.002 343.732C966.773 343.295 967.19 345.593 969.961 345.156C972.732 344.719 972.529 343.313 975.332 342.836C978.135 342.359 978.001 341.531 980.772 341.094C983.543 340.657 983.483 340.151 986.286 339.674C989.089 339.196 989.003 338.473 991.774 338.036C994.545 337.6 994.603 337.776 997.405 337.299C1000.21 336.822 1000.59 339.088 1003.39 338.61C1006.19 338.133 1006.66 335.62 1007.74 338.243C1008.82 340.867 1006.24 338.237 1003.67 339.421C1001.09 340.604 1000.83 339.939 998.291 341.082C995.75 342.225 996.297 343.444 993.756 344.587C991.215 345.73 991.263 345.834 988.731 347.05C986.198 348.265 987.079 350.142 984.547 351.357C982.014 352.573 981.614 351.666 979.073 352.809C976.532 353.953 975.536 351.723 972.963 352.907C970.39 354.09 970.031 353.216 967.49 354.359C964.949 355.502 966.238 358.357 963.697 359.5C961.156 360.643 960.071 358.278 957.57 359.453C955.069 360.628 956.848 364.525 954.307 365.668C951.766 366.811 950.33 363.644 947.757 364.827C945.184 366.011 945.501 366.524 942.928 367.707C940.355 368.891 940.085 368.152 937.544 369.296C935.003 370.439 936.43 373.534 933.857 374.717C931.284 375.901 930.387 373.88 927.845 375.023C925.304 376.166 924.815 375.124 922.274 376.267C919.733 377.41 919.243 376.368 916.743 377.543C914.242 378.718 914.553 379.488 912.012 380.631C909.471 381.774 909.381 381.638 906.84 382.781C904.299 383.924 904.503 384.414 901.962 385.557C899.421 386.7 900.613 389.346 898.072 390.49C895.531 391.633 895.327 391.143 892.754 392.327C890.181 393.51 889.625 392.219 887.125 393.394C884.624 394.569 885.522 396.59 882.989 397.806C880.457 399.021 879.852 397.626 877.32 398.841C874.787 400.057 874.036 398.348 871.495 399.491C868.954 400.634 868.701 400.041 866.128 401.225C863.555 402.408 863.783 402.785 861.242 403.928C858.701 405.071 858.505 404.654 855.964 405.797C853.423 406.94 854.597 409.442 852.024 410.626C849.451 411.809 849.785 412.467 847.244 413.61C844.703 414.753 843.324 411.762 840.783 412.905C838.242 414.048 839.238 416.277 836.697 417.421C834.156 418.564 833.062 416.126 830.489 417.309C827.916 418.493 829.719 422.278 827.146 423.461C824.573 424.645 824.556 424.5 821.983 425.684C819.41 426.867 817.867 423.418 815.326 424.562C812.785 425.705 813.185 426.611 810.644 427.754C808.103 428.897 807.622 427.927 805.121 429.102C802.621 430.277 804.163 433.726 801.622 434.869C799.081 436.012 797.987 433.574 795.446 434.717C792.905 435.86 792.456 434.85 789.956 436.025C787.455 437.2 788.883 440.295 786.31 441.479C783.737 442.662 782.879 440.673 780.338 441.816C777.797 442.959 777.504 442.334 775.003 443.509C772.502 444.684 772.813 445.454 770.272 446.597C767.731 447.741 768.661 449.721 766.12 450.864C763.579 452.007 762.053 448.704 759.512 449.847C756.971 450.99 757.509 452.136 754.936 453.32C752.363 454.504 752.95 455.754 750.409 456.898C747.868 458.041 748.513 459.468 745.972 460.611C743.431 461.755 743.146 461.201 740.605 462.345C738.064 463.488 737.485 462.309 734.984 463.484C732.484 464.659 733.145 466.231 730.645 467.406C728.144 468.581 727.223 466.673 724.682 467.816C722.141 468.959 721.553 467.708 719.053 468.884C716.552 470.059 717.548 472.288 715.007 473.431C712.466 474.574 713.2 476.138 710.627 477.322C708.054 478.505 707.752 477.807 705.251 478.982C702.75 480.157 702.278 479.26 699.737 480.403C697.196 481.546 697.654 482.629 695.112 483.772C692.571 484.915 691.633 482.862 689.06 484.046C686.487 485.229 687.066 486.408 684.525 487.551C681.984 488.694 681.543 487.756 679.043 488.931C676.542 490.106 676.15 489.272 673.577 490.456C671.005 491.639 670.49 490.38 667.917 491.563C665.344 492.747 666.674 495.634 664.132 496.777C661.591 497.92 660.572 495.803 658.031 496.946C655.49 498.089 655.107 497.328 652.566 498.471C650.025 499.614 651.167 502.156 648.626 503.3C646.085 504.443 645.743 503.713 643.21 504.928C640.678 506.144 640.131 504.925 637.598 506.14C635.066 507.356 635.213 507.669 632.672 508.812C630.131 509.955 631.714 513.435 629.141 514.619C626.568 515.802 625.123 512.562 622.55 513.746C619.977 514.929 620.417 515.868 617.877 517.011C615.335 518.154 614.886 517.143 612.313 518.327C609.74 519.511 610.262 520.512 607.689 521.696C605.116 522.88 604.805 522.11 602.273 523.325C599.74 524.541 600.629 526.489 598.056 527.673C595.483 528.856 595.173 528.086 592.64 529.302C590.108 530.517 589.512 529.194 586.939 530.377C584.366 531.561 584.26 531.28 581.687 532.464C579.114 533.647 579.505 534.481 576.964 535.624C574.423 536.768 574.227 536.35 571.654 537.534C569.081 538.718 568.526 537.426 565.985 538.569C563.444 539.713 565.28 543.787 562.707 544.97C560.134 546.154 559.49 544.726 556.917 545.91C554.344 547.093 553.903 546.155 551.33 547.339C548.757 548.522 549.421 549.177 547.376 551.105C545.33 553.034 549.162 548.841 552.379 550.332C553.815 551.006 555.232 552.453 557.144 553.437C558.66 554.175 560.64 554.492 562.439 555.453C563.965 556.263 564.833 558.655 566.56 559.624C568.093 560.507 570.352 560.388 572.007 561.366C573.58 562.28 573.938 565.319 575.593 566.297C577.135 567.252 579.672 566.696 581.295 567.715C582.918 568.734 584.985 568.856 586.576 569.916C588.167 570.975 589.462 572.326 591.021 573.425C592.58 574.525 593.908 575.835 595.395 576.944C596.881 578.052 596.431 581.699 597.958 582.839C599.486 583.979 601.21 584.619 602.674 585.84C604.137 587.061 605.711 587.975 607.134 589.164C608.557 590.353 611.696 589.616 613.087 590.846C614.478 592.075 615.391 593.911 616.75 595.181C618.109 596.451 619.109 598.093 620.477 599.436C621.845 600.778 623.659 601.554 624.954 602.905C626.25 604.256 627.945 605.266 629.208 606.657C630.472 608.048 632.239 609.05 633.399 610.49C634.558 611.93 635.535 613.685 636.694 615.125C637.853 616.566 638.254 618.719 639.381 620.199C640.509 621.68 640.796 623.81 641.892 625.331C642.987 626.852 645.339 627.528 646.371 629.13C647.403 630.732 647.37 632.936 648.329 634.546C649.288 636.157 651.113 637.335 652 638.954C652.888 640.573 651.051 643.65 651.834 645.318C652.617 646.986 654.442 648.164 655.193 649.872C655.944 651.581 655.083 653.919 655.73 655.676C656.377 657.434 659.125 658.357 659.699 660.122C660.274 661.888 659.573 664.024 660.116 665.831C660.658 667.637 664.042 668.668 664.512 670.483C664.983 672.298 665.285 674.242 665.643 676.034C666.001 677.825 663.347 680.192 663.641 682.064C663.935 683.936 663.818 685.747 663.999 687.596C664.181 689.445 666.612 691.101 666.761 692.991C666.91 694.88 667.019 696.738 667.056 698.604C667.092 700.469 666.285 702.325 666.217 704.24C666.149 706.155 664.81 707.853 664.702 709.736C664.594 711.619 664.92 713.451 664.699 715.31C664.478 717.17 665.11 719.112 664.817 720.981C664.524 722.849 663.514 724.545 663.181 726.381C662.848 728.217 663.078 730.17 662.672 732.015C662.266 733.86 663.898 736.198 663.379 738.019C662.861 739.841 660.441 741.079 659.882 742.869C659.323 744.658 659.256 746.573 658.665 748.403C658.074 750.233 657.354 751.895 656.682 753.661C656.01 755.427 655.451 757.217 654.739 758.951C654.027 760.685 651.38 761.547 650.595 763.29C649.811 765.033 652.349 768.217 651.524 769.928C650.699 771.639 647.769 772.278 646.904 773.957C646.039 775.636 645.48 777.425 644.615 779.104C643.75 780.783 640.536 781.199 639.663 782.805C638.789 784.412 642.08 788.388 641.206 789.994C640.332 791.601 635.747 791.262 634.874 792.868C634 794.475 633.054 796.09 632.108 797.705C631.162 799.32 633.494 802.932 632.548 804.547C631.602 806.162 630.543 807.754 629.516 809.306C628.489 810.857 623.498 809.869 622.503 811.379C621.508 812.89 622.566 815.956 621.53 817.435C620.495 818.914 619.041 820.259 617.933 821.746C616.826 823.234 614.878 824.124 613.73 825.579C612.581 827.035 613.09 829.799 611.942 831.254C610.794 832.71 610.957 835.331 609.768 836.755C608.58 838.178 605.734 838.294 604.505 839.686C603.276 841.077 602.137 842.605 600.868 843.965C599.598 845.325 597.593 846.038 596.283 847.366C594.974 848.694 592.458 848.808 591.14 850.063C589.821 851.319 591.5 855.925 590.142 857.148C588.783 858.372 585.676 857.822 584.277 859.014C582.878 860.205 580.685 860.574 579.246 861.734C577.806 862.894 578.631 867.087 577.11 868.183C575.59 869.279 571.221 866.421 569.66 867.485C568.1 868.549 567.09 870.245 565.521 871.237C563.952 872.229 562.918 874.038 561.309 874.998C559.699 875.957 558.228 877.158 556.61 878.045C554.991 878.933 552.95 879.027 551.251 879.851C549.552 880.675 548.61 882.949 546.903 883.701C545.195 884.452 543.922 886.399 542.206 887.079C540.49 887.758 537.669 885.597 535.873 886.212C534.076 886.827 532.745 888.598 530.98 889.172C529.215 889.747 527.582 890.82 525.768 891.291C523.954 891.761 521.965 891.372 520.143 891.771C518.321 892.169 516.798 894.182 514.967 894.508C513.137 894.834 511.361 896.254 509.522 896.507C507.682 896.761 505.476 893.904 503.588 894.053C501.699 894.203 499.971 896.643 498.114 896.752C496.258 896.861 494.293 896.36 492.46 896.356C490.627 896.352 488.662 897.097 486.78 896.989C484.897 896.881 483.051 896.145 481.161 895.965C479.27 895.784 477.494 894.71 475.667 894.449C473.84 894.188 471.763 894.909 469.968 894.608C468.173 894.306 466.966 890.598 465.122 890.192C463.279 889.786 461.454 889.854 459.642 889.408C457.83 888.962 455.618 890.102 453.798 889.584C451.977 889.065 449.874 889.57 448.086 889.011C446.297 888.451 445.053 886.288 443.328 885.648C441.603 885.008 439.988 884.061 438.255 883.349C436.522 882.637 433.989 883.852 432.288 883.099C430.586 882.346 429.138 880.94 427.468 880.147C425.798 879.354 424.986 876.81 423.308 875.944C421.629 875.078 419.365 875.455 417.718 874.549C416.072 873.643 414.403 872.85 412.788 871.904C411.174 870.957 410.824 867.992 409.242 867.005C407.66 866.018 405.091 866.614 403.54 865.587C401.99 864.559 399.937 864.251 398.419 863.184C396.9 862.116 393.897 859.023 392.369 857.883C391.051 860.385 392.023 861.481 391.616 864.243C391.208 867.004 394.758 867.576 394.35 870.338C393.942 873.1 392.043 872.847 391.636 875.609C391.228 878.37 393.916 878.787 393.508 881.549C393.101 884.31 390.34 883.902 389.9 886.705C389.461 889.507 391.771 889.821 391.363 892.583C390.955 895.345 386.706 894.746 386.298 897.508C385.891 900.269 388.466 900.662 388.058 903.424C387.651 906.186 389.59 906.471 389.183 909.232C388.775 911.994 386.908 911.701 386.468 914.503C386.029 917.306 386.624 917.382 386.216 920.144C385.809 922.906 383.756 922.598 383.317 925.4C382.877 928.202 386.008 928.64 385.6 931.401C385.192 934.163 382.995 933.872 382.588 936.634C382.18 939.396 382.333 939.451 381.926 942.213C381.518 944.975 383.642 945.274 383.243 948.108C382.844 950.942 379.48 950.386 379.072 953.147C378.664 955.909 378.254 955.848 377.814 958.65C377.375 961.452 377.745 961.482 377.337 964.244C376.929 967.005 378.499 967.26 378.091 970.022C377.683 972.784 377.498 972.769 377.091 975.531C376.683 978.293 376.241 978.272 375.833 981.033C375.425 983.795 374.009 983.595 373.601 986.357C373.194 989.119 377.185 989.712 376.786 992.546C376.387 995.38 375.188 995.155 374.82 997.948C374.453 1000.74 373.519 1000.6 373.08 1003.4C372.64 1006.2 371.594 1006.03 371.186 1008.79C370.779 1011.55 371.189 1011.62 370.79 1014.45C370.391 1017.28 372.7 1017.6 372.293 1020.36C371.885 1023.12 370.879 1022.98 370.439 1025.79C370 1028.59 369.549 1028.49 369.15 1031.33C368.751 1034.16 367.962 1034 367.522 1036.8C367.083 1039.6 365.996 1039.4 365.597 1042.24C365.197 1045.07 366.573 1045.24 366.166 1048C365.758 1050.76 363.787 1050.52 363.379 1053.28C362.971 1056.04 363.905 1056.19 363.465 1058.99C363.026 1061.79 364.289 1061.94 363.849 1064.74C363.41 1067.54 362.846 1067.42 362.407 1070.23C361.967 1073.03 363.23 1073.17 362.863 1075.97C362.496 1078.76 363.132 1078.87 362.724 1081.63C362.316 1084.39 363.475 1084.58 363.068 1087.35C362.66 1090.11 358.966 1089.55 358.567 1092.39C358.168 1095.22 360.735 1095.54 360.327 1098.3C359.919 1101.07 358.575 1100.86 358.136 1103.66C357.696 1106.46 359.555 1106.68 359.156 1109.52C358.756 1112.35 357.372 1112.11 356.964 1114.87C356.557 1117.64 357.828 1117.85 357.421 1120.61C357.013 1123.38 355.75 1123.23 355.342 1125.99C354.934 1128.75 353.107 1128.49 352.668 1131.3C352.228 1134.1 356.252 1134.65 355.813 1137.45C355.373 1140.25 350.858 1139.58 350.45 1142.34C350.043 1145.1 351.314 1145.32 350.907 1148.08C350.499 1150.84 350.314 1150.83 349.874 1153.63C349.435 1156.43 349.579 1156.41 349.14 1159.22C348.7 1162.02 351.758 1162.46 351.351 1165.23C350.943 1167.99 346.396 1167.35 346.029 1170.14C345.662 1172.94 349.243 1173.47 348.876 1176.26C348.508 1179.06 348.919 1179.12 348.552 1181.91C348.184 1184.71 344.756 1184.23 344.348 1186.99C343.941 1189.75 347.08 1190.26 346.672 1193.02C346.264 1195.79 346.305 1195.82 345.897 1198.58C345.489 1201.34 346.238 1201.47 345.798 1204.28C345.359 1207.08 345.206 1207.02 344.839 1209.82C344.471 1212.61 340.52 1212.05 340.112 1214.81C339.704 1217.57 340.864 1217.77 340.456 1220.53C340.048 1223.29 338.672 1223.12 338.305 1225.92C337.938 1228.71 340.247 1229.02 339.848 1231.86C339.449 1234.69 337.726 1234.38 337.359 1237.18C336.992 1239.97 339.301 1240.28 338.902 1243.12C338.503 1245.95 335.323 1245.41 334.884 1248.21C334.444 1251.01 336.344 1251.27 335.904 1254.07C335.464 1256.87 337.927 1257.24 337.519 1260C337.112 1262.77 334.617 1262.44 334.209 1265.2C333.802 1267.96 333.134 1267.89 332.726 1270.65C332.319 1273.42 330.717 1273.2 330.278 1276C329.838 1278.81 330.506 1278.87 330.107 1281.71C329.708 1284.54 329.739 1284.5 329.3 1287.3C328.86 1290.11 331.355 1290.43 330.956 1293.27C330.557 1296.1 330.363 1296.02 329.923 1298.82C329.484 1301.62 328.663 1301.5 328.255 1304.26C327.848 1307.02 329.828 1307.34 329.46 1310.13C329.093 1312.92 329.914 1313.05 329.506 1315.81C329.099 1318.57 325.075 1318.02 324.667 1320.78C324.259 1323.54 325.161 1323.73 324.754 1326.49C324.346 1329.25 325.545 1329.48 325.138 1332.24C324.73 1335 324.175 1334.96 323.767 1337.72C323.36 1340.48 325.339 1340.8 324.9 1343.6C324.46 1346.4 322.891 1346.15 322.451 1348.95C322.012 1351.75 320.329 1351.47 319.89 1354.28C319.45 1357.08 320.569 1357.24 320.202 1360.03C319.834 1362.83 318.941 1362.71 318.534 1365.47C318.126 1368.24 320.444 1368.62 320.077 1371.42C319.709 1374.21 316.466 1373.75 316.058 1376.51C315.651 1379.27 317.22 1379.53 316.853 1382.32C316.486 1385.11 314.393 1384.77 313.954 1387.58C313.514 1390.38 313.812 1390.42 313.404 1393.18C312.996 1395.94 313.109 1395.96 312.669 1398.77C312.23 1401.57 314.242 1401.84 313.834 1404.61C313.426 1407.37 313.354 1407.38 312.946 1410.14C312.539 1412.9 310.414 1412.6 310.006 1415.36C309.599 1418.12 311.876 1418.48 311.509 1421.27C311.142 1424.07 310.506 1423.96 310.066 1426.76C309.627 1429.56 310.592 1429.67 310.193 1432.5C309.794 1435.34 311.765 1435.58 311.326 1438.38C310.886 1441.19 308.464 1440.85 308.056 1443.61C307.649 1446.37 308.961 1446.62 308.553 1449.38C308.146 1452.14 305.015 1451.71 304.575 1454.51C304.136 1457.31 304.916 1457.4 304.477 1460.2C304.037 1463.01 304.222 1463.02 303.855 1465.81C303.488 1468.61 302.514 1468.43 302.115 1471.26C301.715 1474.1 302.794 1474.23 302.386 1476.99C301.978 1479.75 301.013 1479.65 300.645 1482.44C300.278 1485.23 302.966 1485.65 302.559 1488.41C302.151 1491.17 299.359 1490.81 298.951 1493.57C298.543 1496.33 298.624 1496.39 298.257 1499.19C297.889 1501.98 299.161 1502.2 298.754 1504.96C298.346 1507.72 300.511 1508.05 300.112 1510.89C299.713 1513.72 297.394 1513.33 296.955 1516.14C296.515 1518.94 299.348 1519.34 298.909 1522.14C298.469 1524.94 298.131 1524.87 297.691 1527.67C297.252 1530.48 293.26 1529.88 292.82 1532.69C292.381 1535.49 292.936 1535.53 292.537 1538.37C292.137 1541.2 291.163 1541.02 290.764 1543.86C290.365 1546.69 293.085 1547.07 292.718 1549.86C292.351 1552.65 294.065 1552.89 293.625 1555.69C293.185 1558.5 289.83 1558.01 289.422 1560.77C289.014 1563.54 292.338 1564.06 291.899 1566.86C291.459 1569.66 291.531 1569.66 291.132 1572.49C290.733 1575.32 287.707 1574.84 287.267 1577.64C286.828 1580.44 290.296 1580.95 289.857 1583.75C289.417 1586.55 287.59 1586.29 287.223 1589.09C286.856 1591.88 285.029 1591.62 284.589 1594.42C284.15 1597.22 284.93 1597.31 284.563 1600.11C284.196 1602.9 286.473 1603.26 286.106 1606.05C285.739 1608.84 285.554 1608.83 285.114 1611.63C284.675 1614.43 283.926 1614.3 283.487 1617.1C283.047 1619.91 283.868 1620.03 283.428 1622.83C282.989 1625.63 279.931 1625.19 279.491 1627.99C279.051 1630.79 278.754 1630.75 278.386 1633.55C278.019 1636.34 279.516 1636.61 279.077 1639.41C278.637 1642.21 276.4 1641.89 275.96 1644.69C275.521 1647.49 279.738 1648.13 279.339 1650.96C278.94 1653.8 277.37 1653.54 276.971 1656.38C276.572 1659.21 276.346 1659.17 275.947 1662C275.548 1664.83 277.709 1665.75 274.832 1665.91C271.954 1666.06 275.837 1664.8 275.69 1661.99C275.542 1659.19 276.636 1659.13 276.488 1656.33C276.341 1653.52 272.339 1653.77 272.191 1650.96C272.044 1648.16 273.137 1648.1 272.989 1645.3C272.842 1642.49 272.296 1642.52 272.116 1639.75C271.937 1636.99 271.061 1637.02 270.914 1634.21C270.766 1631.4 273.901 1631.25 273.753 1628.45C273.606 1625.64 270.656 1625.81 270.509 1623C270.362 1620.19 271.527 1620.13 271.38 1617.32C271.232 1614.52 274.11 1614.36 273.93 1611.59C273.751 1608.83 269.017 1609.09 268.87 1606.29C268.722 1603.48 272.106 1603.26 271.927 1600.5C271.747 1597.73 269.778 1597.82 269.631 1595.01C269.483 1592.21 271.34 1592.1 271.192 1589.29C271.045 1586.48 271.375 1586.48 271.227 1583.68C271.08 1580.87 269.77 1580.95 269.623 1578.14C269.475 1575.34 268.784 1575.38 268.605 1572.62C268.426 1569.85 271.118 1569.68 270.97 1566.87C270.823 1564.07 267.182 1564.28 267.003 1561.51C266.824 1558.74 266.092 1558.76 265.945 1555.95C265.797 1553.14 269.294 1552.95 269.146 1550.15C268.999 1547.34 265.832 1547.53 265.685 1544.72C265.538 1541.92 265.682 1541.9 265.503 1539.13C265.324 1536.37 265.613 1536.33 265.466 1533.53C265.318 1530.72 268.557 1530.52 268.41 1527.72C268.262 1524.91 266.55 1525 266.331 1522.2C266.111 1519.41 265.09 1519.45 264.943 1516.65C264.795 1513.84 268.436 1513.63 268.289 1510.83C268.141 1508.02 264.316 1508.21 264.168 1505.41C264.021 1502.6 265.516 1502.53 265.328 1499.7C265.14 1496.86 266.925 1496.76 266.745 1493.99C266.566 1491.23 262.194 1491.45 262.046 1488.64C261.899 1485.83 262.92 1485.79 262.772 1482.98C262.625 1480.18 265.832 1480.02 265.644 1477.18C265.456 1474.34 264.878 1474.41 264.699 1471.64C264.519 1468.88 263.458 1468.89 263.311 1466.09C263.163 1463.28 263.999 1463.22 263.852 1460.41C263.704 1457.6 263.889 1457.62 263.742 1454.81C263.595 1452.01 264.945 1451.96 264.798 1449.15C264.65 1446.35 261.669 1446.55 261.481 1443.71C261.293 1440.87 259.477 1441.01 259.33 1438.21C259.182 1435.4 261.73 1435.25 261.583 1432.44C261.435 1429.64 262.456 1429.59 262.309 1426.78C262.161 1423.98 260.088 1424.11 259.941 1421.3C259.793 1418.5 261.031 1418.42 260.883 1415.62C260.736 1412.81 262.52 1412.71 262.373 1409.91C262.226 1407.1 258.183 1407.32 258.004 1404.55C257.824 1401.79 257.526 1401.75 257.379 1398.94C257.232 1396.14 259.996 1395.96 259.849 1393.15C259.702 1390.34 258.649 1390.43 258.461 1387.59C258.273 1384.76 259.696 1384.7 259.476 1381.9C259.257 1379.1 256.122 1379.25 255.943 1376.49C255.764 1373.72 256.961 1373.62 256.814 1370.81C256.666 1368 258.555 1367.85 258.375 1365.09C258.196 1362.32 258.228 1362.28 258.08 1359.47C257.933 1356.67 257.676 1356.66 257.528 1353.86C257.381 1351.05 255.339 1351.14 255.192 1348.34C255.045 1345.53 254.209 1345.59 254.021 1342.75C253.833 1339.92 255.803 1339.83 255.655 1337.02C255.508 1334.22 257.581 1334.08 257.434 1331.28C257.287 1328.47 257.72 1328.42 257.541 1325.65C257.362 1322.89 256.558 1322.91 256.37 1320.07C256.182 1317.23 254.037 1317.38 253.857 1314.61C253.678 1311.84 253.565 1311.82 253.418 1309.01C253.271 1306.21 252.105 1306.27 251.958 1303.47C251.81 1300.66 255.379 1300.46 255.191 1297.62C255.003 1294.78 255.848 1294.79 255.66 1291.95C255.472 1289.12 254.492 1289.19 254.272 1286.4C254.052 1283.6 253.506 1283.63 253.358 1280.82C253.211 1278.01 251.901 1278.1 251.754 1275.29C251.606 1272.48 252.772 1272.42 252.584 1269.58C252.396 1266.74 253.891 1266.68 253.744 1263.87C253.596 1261.06 252.833 1261.12 252.645 1258.28C252.457 1255.44 250.424 1255.61 250.237 1252.77C250.049 1249.93 252.781 1249.79 252.634 1246.98C252.487 1244.18 251.466 1244.23 251.318 1241.42C251.171 1238.61 251.935 1238.56 251.787 1235.75C251.64 1232.95 249.381 1233.07 249.234 1230.26C249.087 1227.45 250.943 1227.34 250.796 1224.54C250.648 1221.73 250.865 1221.71 250.718 1218.9C250.571 1216.09 248.24 1216.22 248.092 1213.42C247.945 1210.61 247.286 1210.61 247.106 1207.85C246.927 1205.08 247.908 1205 247.72 1202.16C247.532 1199.33 245.427 1199.5 245.239 1196.66C245.051 1193.82 248.877 1193.63 248.73 1190.82C248.582 1188.02 247.674 1188.09 247.486 1185.25C247.298 1182.41 245.884 1182.54 245.737 1179.74C245.59 1176.93 244.424 1176.99 244.205 1174.19C243.985 1171.4 245.037 1171.31 244.89 1168.5C244.743 1165.7 246.527 1165.6 246.38 1162.79C246.232 1159.98 244.046 1160.09 243.867 1157.33C243.687 1154.56 246.484 1154.34 246.305 1151.58C246.125 1148.81 247.106 1148.73 246.918 1145.89C246.73 1143.06 243.564 1143.25 243.384 1140.48C243.205 1137.71 243.711 1137.65 243.564 1134.85C243.416 1132.04 245.562 1131.9 245.383 1129.13C245.204 1126.37 243.926 1126.41 243.746 1123.64C243.567 1120.88 245.094 1120.77 244.947 1117.96C244.799 1115.16 241.777 1115.33 241.598 1112.56C241.419 1109.8 241.925 1109.74 241.737 1106.9C241.549 1104.06 244.354 1103.91 244.207 1101.11C244.06 1098.3 244.06 1098.3 243.912 1095.5C243.765 1092.69 241.579 1092.8 241.431 1089.99C241.284 1087.19 241.027 1087.18 240.847 1084.42C240.668 1081.65 243.031 1081.48 242.843 1078.64C242.655 1075.8 241.747 1075.87 241.6 1073.07C241.452 1070.26 239.451 1070.39 239.263 1067.55C239.076 1064.71 238.971 1064.76 238.784 1061.92C238.596 1059.08 237.543 1059.17 237.396 1056.36C237.248 1053.56 240.487 1053.36 240.34 1050.55C240.192 1047.75 236.624 1047.95 236.477 1045.14C236.329 1042.34 237.969 1042.25 237.781 1039.41C237.593 1036.58 237.449 1036.59 237.301 1033.79C237.154 1030.98 236.133 1031.03 235.986 1028.22C235.838 1025.41 234.93 1025.48 234.743 1022.65C234.555 1019.81 234.74 1019.82 234.552 1016.98C234.364 1014.15 237.643 1013.98 237.496 1011.17C237.349 1008.37 237.236 1008.34 237.089 1005.54C236.941 1002.73 235.374 1002.81 235.186 999.967C234.998 997.129 235.513 997.142 235.325 994.304C235.137 991.465 234.848 991.499 234.66 988.661C234.473 985.823 236.37 985.746 236.182 982.908C235.994 980.069 232.908 980.323 232.752 977.445C232.597 974.566 235.225 974.476 235.078 971.67C234.93 968.863 234.601 968.866 234.453 966.059C234.306 963.253 232.924 963.343 232.776 960.536C232.629 957.73 233.32 957.685 233.132 954.847C232.944 952.009 235.203 951.889 235.015 949.051C234.827 946.212 230.206 946.501 230.059 943.694C229.911 940.888 233.367 940.664 233.188 937.898C233.009 935.132 232.277 935.145 232.089 932.307C231.901 929.468 231.468 929.519 231.312 926.641C231.156 923.762 233.744 923.64 233.597 920.834C233.449 918.028 229.407 918.248 229.259 915.441C229.112 912.635 230.494 912.545 230.338 909.667C230.182 906.788 228.551 906.944 228.363 904.105C228.176 901.267 227.846 901.269 227.699 898.463C227.551 895.657 230.058 895.471 229.911 892.665C229.764 889.858 229.177 889.854 228.989 887.016C228.801 884.178 229.822 884.131 229.634 881.292C229.446 878.454 226.826 878.616 226.67 875.738C226.515 872.859 230.321 872.19 229.242 869.567C228.163 866.944 226.289 870.319 222.741 870.077C221.189 869.967 219.502 867.782 217.354 867.595C215.648 867.43 213.703 868.649 211.731 868.405C209.985 868.208 208.173 867.761 206.242 867.549C204.456 867.319 202.538 867.839 200.598 867.554C198.844 867.285 196.643 868.828 194.776 868.534C192.908 868.241 191.371 866.699 189.495 866.334C187.619 865.968 186.355 863.33 184.543 862.884C182.731 862.437 180.082 865.463 178.302 864.976C176.522 864.49 175.942 859.571 174.122 859.052C172.301 858.533 169.42 861.77 167.704 861.202C165.988 860.635 164.813 858.133 163.056 857.533C161.3 856.933 159.005 857.681 157.272 856.969C155.539 856.256 153.971 855.084 152.269 854.331C150.568 853.579 148.033 854.464 146.323 853.639C144.613 852.814 143.197 851.367 141.55 850.461C139.904 849.556 140.469 845.015 138.959 844.019C137.449 843.024 133.923 844.833 132.436 843.725C130.95 842.617 131.863 838.549 130.44 837.36C129.017 836.171 125.815 836.988 124.487 835.678C123.16 834.368 124.199 831.055 123.04 829.615C121.88 828.174 120.217 827.124 119.09 825.643C117.962 824.163 116.939 822.633 115.843 821.112C114.748 819.591 110.218 820.345 109.227 818.775C108.235 817.205 107.771 815.133 106.812 813.523C105.852 811.912 105.605 809.814 104.75 808.155C103.895 806.496 106.021 803.385 105.238 801.717C104.455 800.049 100.665 799.615 99.9457 797.867C99.2265 796.118 101.893 793.237 101.318 791.471C100.743 789.705 99.8648 788.158 99.4263 786.303C98.9878 784.448 95.8444 783.278 95.5186 781.447C95.1928 779.615 93.8058 777.798 93.6246 775.949C93.4434 774.1 94.081 772.045 94.004 770.147C93.927 768.249 95.3938 766.389 95.4296 764.515C95.4653 762.64 93.9401 760.583 94.1608 758.723C94.3816 756.864 96.5419 755.289 96.9072 753.412C97.2726 751.536 96.5192 749.497 97.0377 747.676C97.5562 745.855 96.5839 743.512 97.2151 741.714C97.8463 739.916 101.791 739.488 102.535 737.713C103.279 735.938 104.984 734.857 105.809 733.146C106.634 731.436 106.782 729.584 107.72 727.897C108.657 726.21 107.561 723.442 108.62 721.85C109.679 720.258 112.386 719.902 113.485 718.343C114.584 716.783 112.961 713.27 114.213 711.766C115.465 710.261 117.592 709.644 118.852 708.212C120.113 706.779 122.912 706.889 124.245 705.449C125.578 704.008 124.59 700.604 125.972 699.267C127.354 697.931 128.955 696.899 130.378 695.594C131.8 694.289 133.45 693.361 134.881 692.129C136.312 690.897 137.014 688.761 138.485 687.56C139.956 686.36 142.662 686.921 144.205 685.712C141.538 684.853 143.589 688.572 140.457 690.298C139.079 691.047 136.093 689.346 134.186 690.268C132.654 690.962 131.085 691.953 129.233 692.722C127.589 693.393 125.586 693.189 123.717 693.813C122.065 694.411 120.225 694.664 118.388 695.248C116.655 695.782 115.143 696.951 113.257 697.43C111.515 697.892 110.429 701.43 108.535 701.837C106.784 702.227 104.164 698.649 102.292 698.943C100.421 699.237 99.0903 702.254 97.1785 702.517C95.2667 702.779 93.4058 702.228 91.5174 702.377C89.629 702.527 87.8213 702.74 85.9244 702.817C84.0274 702.894 82.218 704.024 80.3444 703.988C78.4708 703.953 76.5972 703.917 74.7151 703.809C72.833 703.701 70.9828 703.552 69.0922 703.372C67.2016 703.191 65.5893 701.328 63.722 701.035C61.8548 700.742 59.5883 703.283 57.7125 702.917C55.8368 702.551 53.9462 702.371 52.1023 701.965C50.2584 701.559 48.4059 701.081 46.5854 700.562C44.7649 700.043 44.2662 695.188 42.4776 694.629C40.6889 694.07 39.1554 693.187 37.3583 692.556C35.5612 691.924 33.2222 693.227 31.4888 692.514C29.7555 691.802 28.9657 689.145 27.2239 688.36C25.482 687.575 23.3151 688.161 21.6052 687.336C19.8951 686.511 17.2817 687.662 15.6036 686.797C13.9255 685.931 13.5272 682.861 11.9128 681.915C10.2985 680.968 7.87431 681.548 6.25143 680.529C4.62855 679.51 3.1822 678.434 1.59126 677.375C0.000282825 676.315 -0.625463 674.115 -2.18454 673.016C-3.74361 671.916 -6.44856 672.602 -7.97574 671.462C-9.50291 670.322 -11.468 669.82 -12.9229 668.671C-14.3778 667.523 -16.3365 666.764 -17.7276 665.534C-19.1187 664.305 -18.0437 660.364 -19.2986 659.045C-20.5537 657.726 -23.5755 657.899 -24.7986 656.54C-26.0217 655.181 -24.7105 651.689 -25.8379 650.208C-26.9654 648.728 -30.0129 648.684 -31.0361 647.154C-32.0594 645.625 -33.0592 643.982 -33.9783 642.404C-34.8974 640.825 -33.9261 638.18 -34.7815 636.521C-35.6367 634.862 -36.1624 633.2 -36.9135 631.492C-37.6645 629.784 -39.3129 628.548 -39.9598 626.79C-40.6067 625.033 -43.7161 624.153 -44.2907 622.387C-44.8652 620.621 -43.8833 618.379 -44.3537 616.564C-44.824 614.749 -43.4316 612.568 -43.8297 610.745C-44.2278 608.921 -46.6653 607.522 -46.9188 605.681C-47.1723 603.841 -45.2247 601.704 -45.4378 599.896C-45.6509 598.087 -48.99 596.501 -49.1307 594.684C-49.2715 592.867 -46.3267 590.796 -46.3951 588.971C-46.4636 587.145 -50.0538 585.295 -50.05 583.461C-50.0461 581.627 -46.5205 579.818 -46.4444 577.975C-46.3682 576.132 -49.2844 574.093 -49.1764 572.21C-49.0683 570.327 -49.7003 568.384 -49.52 566.493C-49.3397 564.601 -47.743 562.909 -47.4818 561.082C-47.2206 559.254 -45.4304 557.649 -45.0969 555.813C-44.7635 553.977 -42.5457 552.578 -42.2122 550.742C-41.8787 548.906 -46.1347 546.071 -45.6886 544.258C-45.2424 542.445 -42.0422 541.297 -41.5555 539.516C-41.069 537.736 -41.6458 535.64 -41.0869 533.85C-40.528 532.061 -37.6402 531.06 -37.0814 529.271C-36.5225 527.481 -38.6305 524.833 -38.0312 523.075C-37.4319 521.318 -37.7599 519.156 -37.0883 517.39C-36.4167 515.624 -34.8985 514.198 -34.1461 512.496C-33.3936 510.793 -32.8432 508.932 -32.0504 507.261C-31.2575 505.591 -31.3687 503.404 -30.5758 501.733C-29.7829 500.063 -28.7328 498.399 -27.8995 496.76C-27.0663 495.122 -25.3057 493.887 -24.3597 492.272C-23.4137 490.657 -22.5486 488.978 -21.6026 487.363C-20.6566 485.748 -17.4582 485.517 -16.4633 484.007C-15.4684 482.496 -17.3172 478.937 -16.2903 477.385C-15.2636 475.834 -12.6458 475.342 -11.5787 473.822C-10.5114 472.303 -8.80603 471.222 -7.658 469.766C-6.50992 468.311 -4.8366 467.27 -3.6481 465.846C-2.45967 464.422 -0.616002 463.582 0.612852 462.19C1.84179 460.798 2.00283 458.432 3.3125 457.104C4.62226 455.776 4.88749 453.361 6.20569 452.106C7.52393 450.85 9.90993 450.569 11.2686 449.345C12.6272 448.121 15.0879 448.161 16.5592 446.961C18.0305 445.761 17.0938 441.544 18.5418 440.456C19.9898 439.369 22.8481 439.985 24.3769 438.961C25.9058 437.937 27.6941 437.25 29.2634 436.258C30.8326 435.266 33.2975 435.966 34.9157 435.078C36.5339 434.19 37.5989 432.341 39.2659 431.558C40.933 430.774 41.881 428.242 43.597 427.563C45.313 426.884 47.7824 428.243 49.5474 427.668C51.3123 427.093 52.0641 422.897 53.8376 422.395C55.6111 421.892 57.8018 422.441 59.6327 422.115C61.4637 421.789 63.7419 424.637 65.6218 424.416C67.5017 424.194 69.1537 422.349 70.9783 422.28C72.803 422.212 74.5729 424.79 76.4869 424.858C78.4008 424.925 80.1936 424.897 81.963 424.982C83.7324 425.067 85.922 421.875 87.6999 422.032C89.4778 422.189 91.479 422.063 93.2973 422.252C95.1156 422.441 97.07 422.54 98.8564 422.77C100.643 422.999 102.738 422.422 104.524 422.651C106.31 422.881 107.436 427.772 109.199 428.114C110.963 428.456 113.282 426.679 115.014 427.062C116.745 427.444 118.567 428.293 120.307 428.748C122.047 429.203 123.553 430.785 125.301 431.313C127.049 431.84 128.719 432.633 130.435 433.201C132.151 433.768 134.304 433.368 135.988 433.976C137.672 434.584 140.571 432.739 142.191 433.428C143.965 434.172 145.794 434.763 147.423 435.525C149.133 436.35 149.589 439.596 151.195 440.471C152.841 441.377 155.95 439.763 157.492 440.718C159.147 441.696 158.907 445.575 160.377 446.539C161.968 447.598 162.426 449.927 163.872 451.004C165.367 452.184 167.092 452.824 168.402 453.99C169.834 455.251 172.254 455.259 173.501 456.506C174.868 457.848 175.628 459.629 176.842 460.916C178.155 462.411 179.601 463.487 180.68 464.864C181.928 466.44 182.879 467.978 183.813 469.372C184.975 471.141 188.097 471.507 188.846 472.885C190.49 475.955 189.711 482.098 187.929 480.034C186.146 477.971 187.154 477.192 186.207 473.82C185.77 472.294 184.826 470.499 184.362 468.427C183.981 466.748 187.404 464.071 186.989 462.103C186.64 460.384 184.555 458.869 184.221 456.965C183.936 455.165 185.738 453.046 185.517 451.165C185.295 449.284 184.151 447.659 184.001 445.769C183.852 443.88 183.607 442.112 183.53 440.214C183.453 438.316 180.418 436.511 180.454 434.636C180.49 432.762 180.179 430.745 180.287 428.862C180.395 426.979 183.133 425.336 183.427 423.467C183.72 421.599 186.203 420.28 186.609 418.435C187.015 416.59 183.684 413.829 184.243 412.04C184.802 410.25 185.029 408.133 185.781 406.431C186.533 404.728 189.487 403.977 190.433 402.362C191.379 400.747 190.887 398.127 192.027 396.6C193.166 395.072 195.276 394.31 196.585 392.982C197.895 391.654 199.537 390.653 201.048 389.485C202.56 388.316 204.795 388.309 206.365 387.318C207.934 386.326 209.414 385.198 211.081 384.414C212.748 383.631 213.504 380.095 215.301 379.479C217.098 378.864 219.642 380.544 221.464 380.146C223.287 379.748 225.311 380.756 227.159 380.575C229.007 380.393 230.79 381.21 232.663 381.246C234.537 381.281 236.3 380.377 238.231 380.589C240.162 380.801 241.821 381.192 243.664 381.598C245.508 382.004 248.066 379.759 249.855 380.318C251.643 380.878 252.992 382.992 254.726 383.704C256.459 384.417 257.399 386.8 259.077 387.665C260.756 388.531 262.193 389.535 263.776 390.521C265.358 391.508 268.637 390.095 270.124 391.203C271.692 392.375 273.914 392.883 275.265 394.081C276.737 395.374 278.202 396.925 279.385 398.252C280.738 399.779 278.874 403.556 279.784 405.062C280.905 406.801 284.672 406.1 285.229 407.721C283.238 405.755 283.961 406.917 282.757 403.538C282.216 402.062 279.845 400.911 279.164 398.865C278.647 397.276 280.615 394.696 280.024 392.786C279.498 391.124 278.114 389.637 277.562 387.759C277.068 386.057 274.865 384.776 274.314 382.898C273.82 381.196 275.942 378.672 275.431 376.825C274.969 375.083 270.943 374.201 270.505 372.346C270.066 370.49 273.105 367.968 272.738 366.105C272.372 364.241 272.168 362.505 271.769 360.681C271.371 358.858 268.974 357.491 268.649 355.659C268.323 353.827 267.604 352.078 267.278 350.246C266.952 348.414 267.205 346.514 266.911 344.642C266.617 342.77 268.243 340.708 267.99 338.868C267.736 337.027 267.419 335.268 267.197 333.387C266.976 331.506 266.008 329.823 265.827 327.974C265.645 326.125 262.564 324.545 262.382 322.696C262.201 320.848 263.691 318.875 263.583 317.017C263.474 315.16 263.694 313.3 263.658 311.434C263.621 309.568 265.016 307.717 265.011 305.811C265.007 303.904 261.642 302.101 261.678 300.226C261.713 298.352 263.848 296.56 263.916 294.645C263.983 292.73 261.518 290.784 261.667 288.933C261.815 287.082 264.103 285.345 264.251 283.494C264.4 281.643 266.294 279.989 266.515 278.13C266.736 276.27 265.21 274.213 265.472 272.385C265.733 270.558 264.488 268.394 264.822 266.558C265.155 264.721 265.858 262.915 266.232 261.111C266.606 259.306 268.405 257.774 268.851 255.961C269.297 254.148 268.68 252.021 269.167 250.24C269.653 248.459 273.87 247.851 274.47 246.094C275.069 244.336 275.064 242.43 275.704 240.704C276.344 238.979 276.29 236.968 277.011 235.306C277.731 233.644 275.298 230.411 276.091 228.74C276.883 227.07 281.217 227.145 282.083 225.466C282.948 223.788 283.636 222.166 284.582 220.551C285.528 218.936 285.934 217.091 286.993 215.499C288.052 213.908 289.895 213.067 290.994 211.507C292.093 209.947 290.753 206.658 291.901 205.203C293.049 203.747 296.662 204.238 297.851 202.814C299.039 201.39 300.64 200.358 301.869 198.966C303.098 197.575 303.389 195.377 304.658 194.017C305.927 192.657 305.165 189.3 306.475 187.972C307.785 186.644 310.211 186.394 311.561 185.098C312.911 183.802 313.16 181.242 314.559 180.051C315.958 178.859 317.372 177.482 318.811 176.322C320.251 175.162 322.832 175.298 324.312 174.17C325.792 173.042 329.057 174.307 330.537 173.179C332.017 172.051 333.067 170.387 334.595 169.363C336.124 168.339 337.93 167.796 339.499 166.805C341.068 165.813 341.646 163.251 343.215 162.259C344.784 161.267 346.118 159.827 347.736 158.939C349.354 158.051 351.623 158.334 353.282 157.478C354.94 156.622 356.852 156.36 358.519 155.577C360.186 154.793 362 154.323 363.676 153.612C365.351 152.901 367.099 152.181 368.783 151.543C370.468 150.904 372.043 149.655 373.768 149.048C375.492 148.441 377.544 148.749 379.31 148.174C381.074 147.599 381.697 143.235 383.47 142.733C385.244 142.23 387.543 143.39 389.357 142.919C391.171 142.448 392.52 139.905 394.303 139.475C396.157 139.036 398.126 138.951 399.885 138.634C401.747 138.267 404.313 141.998 406.112 141.713C408.015 141.378 409.401 138.208 411.168 137.963C413.08 137.701 414.943 137.334 416.719 137.162C418.679 137.004 420.525 136.493 422.269 136.36C424.27 136.234 426.165 135.827 427.845 135.776C429.999 135.705 431.913 135.773 433.489 135.77C437.051 135.827 438.777 138.961 438.777 138.961C441.601 139.288 440.716 139.245 444.274 139.889C445.844 140.144 447.6 140.744 449.742 141.188C451.433 141.539 454.065 138.368 456.062 138.829C457.793 139.212 459.38 140.858 461.273 141.368C463.012 141.823 464.212 144.542 466.105 145.052C467.853 145.58 470.318 143.785 472.219 144.368C473.967 144.895 475.331 146.825 477.128 147.456C478.925 148.088 480.057 150.228 481.895 150.891C483.732 151.555 486.103 150.212 487.909 150.916C489.714 151.619 492.175 150.412 493.948 151.157C495.722 151.901 497.13 153.275 498.872 154.06C500.614 154.845 501.99 156.259 503.7 157.084C505.41 157.909 506 160.737 507.687 161.675C509.373 162.613 511.638 162.236 513.253 163.182C514.867 164.128 518.016 162.547 519.639 163.566C521.262 164.584 520.84 168.778 522.431 169.837C524.022 170.897 525.253 172.328 526.772 173.396C528.29 174.464 529.395 176.057 530.922 177.197C532.449 178.337 536.71 175.928 538.205 177.108C539.701 178.289 538.396 182.77 539.787 183.999C541.178 185.229 545.267 183.536 546.667 184.838C548.066 186.14 547.893 189.021 549.188 190.372C550.484 191.722 551.547 193.284 552.851 194.707C554.155 196.13 556.378 196.638 557.609 198.07C558.841 199.501 559.033 201.752 560.201 203.265C561.369 204.777 561.648 206.835 562.743 208.356C563.839 209.877 564.045 211.943 565.077 213.545C566.109 215.146 570.76 214.488 571.728 216.171C572.696 217.853 572.662 220.058 573.518 221.717C574.373 223.377 573.049 226.136 573.872 227.836C574.695 229.536 576.072 230.951 576.791 232.699C577.51 234.448 578.678 235.961 579.333 237.79C579.989 239.62 578.862 241.88 579.445 243.718C580.029 245.556 581.549 246.954 582.06 248.8C582.571 250.647 584.855 251.991 585.262 253.887C585.669 255.782 586.067 257.606 586.401 259.51C586.735 261.414 587.712 263.169 588.038 265.001C588.363 266.833 588.449 268.803 588.702 270.643C588.956 272.484 589.114 274.445 589.295 276.294C589.476 278.143 586.331 280.384 586.481 282.274C586.63 284.163 590.958 285.743 591.067 287.6C591.176 289.458 588.962 291.516 588.999 293.382C589.035 295.247 587.722 297.163 587.686 299.037C587.65 300.912 591.474 302.881 591.439 304.756C591.403 306.63 590.017 308.554 589.868 310.405C589.72 312.256 587.77 314.063 587.622 315.914C587.473 317.765 586.81 319.603 586.589 321.463C586.369 323.323 586.22 325.174 585.959 327.001C585.698 328.829 584.994 330.636 584.693 332.431C584.391 334.227 585.347 336.425 584.932 338.197C584.518 339.97 584.161 341.919 583.715 343.732C583.269 345.544 581.542 347.068 581.015 348.817C580.488 350.566 580.204 352.507 579.605 354.264C579.005 356.022 577.915 357.654 577.275 359.38C576.635 361.105 579.124 364.186 578.412 365.92C577.7 367.654 574.602 368.423 573.809 370.093C573.016 371.764 573.563 374.23 572.73 375.868C571.897 377.507 569.749 378.567 568.843 380.214C567.906 381.901 567.589 383.882 566.635 385.425C565.657 387.08 566.391 389.891 565.396 391.402C564.306 393.034 560.969 393.024 559.893 394.471C558.722 396.039 557.493 397.431 556.377 398.846C555.133 400.423 555.659 403.331 554.494 404.642C553.138 406.196 551.101 406.95 549.927 408.188C548.426 409.759 545.821 409.736 544.67 410.862C542.025 413.301 538.423 414.459 541.199 414.682L541.662 414.26Z" fill="url(#paint0_linear_1095_4062)"/>
<rect width="360" height="780" fill="black" fill-opacity="0.8"/>
</g>
<defs>
<linearGradient id="paint0_linear_1095_4062" x1="203.624" y1="244.242" x2="321.857" y2="733.264" gradientUnits="userSpaceOnUse">
<stop stop-color="#DCFF0E"/>
<stop offset="1" stop-color="#708300"/>
</linearGradient>
<clipPath id="clip0_1095_4062">
<rect width="360" height="780" fill="white"/>
</clipPath>
</defs>
</svg>
