<svg width="32" height="32" viewBox="0 0 32 32" fill="none" xmlns="http://www.w3.org/2000/svg">
<rect x="0.571429" y="0.571429" width="30.8571" height="30.8571" rx="12" fill="#1A1B1E" stroke="#2B2C30" stroke-width="1.14286"/>
<path d="M17.446 6.5H14.5536C13.5967 6.5 12.8086 7.24351 12.7056 8.19952L11.248 8.2C10.2211 8.2 9.38867 9.05626 9.38867 10.1125V21.5875C9.38867 22.6437 10.2211 23.5 11.248 23.5H20.7515C21.7784 23.5 22.6109 22.6437 22.6109 21.5875V10.1125C22.6109 9.05626 21.7784 8.2 20.7515 8.2L19.2939 8.19952C19.191 7.24351 18.4028 6.5 17.446 6.5ZM14.5536 7.775H17.446C17.7883 7.775 18.0658 8.06042 18.0658 8.4125C18.0658 8.76458 17.7883 9.05 17.446 9.05H14.5536C14.2113 9.05 13.9338 8.76458 13.9338 8.4125C13.9338 8.06042 14.2113 7.775 14.5536 7.775ZM16.413 13.5125C16.413 13.1604 16.6905 12.875 17.0328 12.875H19.9251C20.2674 12.875 20.5449 13.1604 20.5449 13.5125C20.5449 13.8646 20.2674 14.15 19.9251 14.15H17.0328C16.6905 14.15 16.413 13.8646 16.413 13.5125ZM17.0329 17.55H19.925C20.2674 17.55 20.5448 17.8354 20.5448 18.1875C20.5448 18.5396 20.2674 18.825 19.925 18.825H17.0329C16.6905 18.825 16.4131 18.5396 16.4131 18.1875C16.4131 17.8354 16.6905 17.55 17.0329 17.55ZM14.9918 13.1133L13.3391 14.8133C13.097 15.0622 12.7046 15.0622 12.4626 14.8133L11.6362 13.9633C11.3941 13.7143 11.3941 13.3107 11.6362 13.0617C11.8782 12.8128 12.2707 12.8128 12.5127 13.0617L12.9008 13.4609L14.1153 12.2117C14.3574 11.9628 14.7498 11.9628 14.9918 12.2117C15.2339 12.4607 15.2339 12.8643 14.9918 13.1133ZM14.9918 16.8867C15.2339 17.1357 15.2339 17.5393 14.9918 17.7883L13.3391 19.4883C13.097 19.7372 12.7046 19.7372 12.4626 19.4883L11.6362 18.6383C11.3941 18.3893 11.3941 17.9857 11.6362 17.7367C11.8782 17.4878 12.2707 17.4878 12.5127 17.7367L12.9008 18.1359L14.1153 16.8867C14.3574 16.6378 14.7498 16.6378 14.9918 16.8867Z" fill="#CBCDD3"/>
</svg>
