<svg width="23" height="22" viewBox="0 0 23 22" fill="none" xmlns="http://www.w3.org/2000/svg">
<path d="M19.5318 17.9406L15.6844 14.094C16.7995 12.7553 17.3556 11.0381 17.2369 9.29979C17.1182 7.56148 16.3339 5.93584 15.0472 4.76105C13.7605 3.58626 12.0704 2.95276 10.3284 2.99235C8.58653 3.03194 6.92694 3.74156 5.69491 4.97359C4.46287 6.20563 3.75325 7.86522 3.71366 9.60713C3.67408 11.349 4.30757 13.0392 5.48236 14.3259C6.65715 15.6126 8.28279 16.3969 10.0211 16.5156C11.7594 16.6343 13.4766 16.0782 14.8153 14.9631L18.6619 18.8105C18.7191 18.8676 18.7869 18.9129 18.8615 18.9438C18.9361 18.9747 19.0161 18.9906 19.0969 18.9906C19.1776 18.9906 19.2576 18.9747 19.3322 18.9438C19.4068 18.9129 19.4747 18.8676 19.5318 18.8105C19.5889 18.7533 19.6342 18.6855 19.6651 18.6109C19.696 18.5363 19.7119 18.4563 19.7119 18.3755C19.7119 18.2948 19.696 18.2148 19.6651 18.1402C19.6342 18.0655 19.5889 17.9977 19.5318 17.9406ZM4.95833 9.76948C4.95833 8.67527 5.28281 7.60562 5.89072 6.69581C6.49864 5.786 7.36269 5.07689 8.37362 4.65815C9.38454 4.23942 10.4969 4.12985 11.5701 4.34333C12.6433 4.5568 13.6291 5.08371 14.4028 5.85744C15.1766 6.63117 15.7035 7.61696 15.917 8.69015C16.1304 9.76335 16.0209 10.8757 15.6021 11.8867C15.1834 12.8976 14.4743 13.7616 13.5645 14.3696C12.6547 14.9775 11.585 15.3019 10.4908 15.3019C9.024 15.3003 7.61774 14.7169 6.58055 13.6797C5.54337 12.6425 4.95996 11.2363 4.95833 9.76948Z" fill="#616269"/>
</svg>
