<svg width="32" height="32" viewBox="0 0 32 32" fill="none" xmlns="http://www.w3.org/2000/svg">
<rect x="0.571429" y="0.571429" width="30.8571" height="30.8571" rx="12" fill="#1A1B1E" stroke="#2B2C30" stroke-width="1.14286"/>
<path d="M17.0015 9.6863V15.3088L17.002 15.7708L23.7005 15.7698L22.15 14.1929C21.9104 13.9493 21.8886 13.5681 22.0848 13.2995L22.1502 13.2226C22.3899 12.979 22.7649 12.9569 23.0292 13.1563L23.1049 13.2227L25.8023 15.9651C26.0418 16.2085 26.0637 16.5893 25.868 16.8579L25.8028 16.9348L23.1054 19.6825C22.8421 19.9508 22.4146 19.9512 22.1507 19.6836C21.9107 19.4403 21.8885 19.0592 22.0842 18.7903L22.1496 18.7133L23.6915 17.1421L17.002 17.143L17.0015 23.3137C17.0015 23.7403 16.6224 24.0636 16.209 23.9894L8.55769 22.6159C8.23513 22.558 8 22.2731 8 21.9402V10.9633C8 10.6272 8.23945 10.3407 8.56572 10.2862L16.217 9.00923C16.6281 8.94064 17.0015 9.26297 17.0015 9.6863ZM13.8529 16.2236C13.3547 16.2236 12.9508 16.6341 12.9508 17.1405C12.9508 17.6468 13.3547 18.0572 13.8529 18.0572C14.3511 18.0572 14.755 17.6468 14.755 17.1405C14.755 16.6341 14.3511 16.2236 13.8529 16.2236ZM17.9017 22.6287L18.5905 22.6289L18.6821 22.6226C19.012 22.577 19.2661 22.2894 19.2656 21.9416L19.2591 18.0533H17.9017V22.6287ZM17.9035 14.8514L17.9017 13.6852V10.2771L18.5726 10.2771C18.9139 10.2771 19.1962 10.5347 19.2414 10.8691L19.2477 10.9621L19.2537 14.8514H17.9035Z" fill="#CBCDD3"/>
</svg>
