<svg width="16" height="16" viewBox="0 0 16 16" fill="none" xmlns="http://www.w3.org/2000/svg">
<path d="M12.1667 2.84615H10.9167V2.42308C10.9167 2.31087 10.8728 2.20326 10.7946 2.12392C10.7165 2.04457 10.6105 2 10.5 2C10.3895 2 10.2835 2.04457 10.2054 2.12392C10.1272 2.20326 10.0833 2.31087 10.0833 2.42308V2.84615H5.91667V2.42308C5.91667 2.31087 5.87277 2.20326 5.79463 2.12392C5.71649 2.04457 5.61051 2 5.5 2C5.38949 2 5.28351 2.04457 5.20537 2.12392C5.12723 2.20326 5.08333 2.31087 5.08333 2.42308V2.84615H3.83333C3.61232 2.84615 3.40036 2.9353 3.24408 3.09399C3.0878 3.25267 3 3.46789 3 3.69231V12.1538C3 12.3783 3.0878 12.5935 3.24408 12.7522C3.40036 12.9109 3.61232 13 3.83333 13H12.1667C12.3877 13 12.5996 12.9109 12.7559 12.7522C12.9122 12.5935 13 12.3783 13 12.1538V3.69231C13 3.46789 12.9122 3.25267 12.7559 3.09399C12.5996 2.9353 12.3877 2.84615 12.1667 2.84615ZM10.1698 8.2224L7.66979 10.7609C7.63109 10.8002 7.58514 10.8314 7.53456 10.8527C7.48398 10.874 7.42976 10.8849 7.375 10.8849C7.32024 10.8849 7.26602 10.874 7.21544 10.8527C7.16486 10.8314 7.11891 10.8002 7.08021 10.7609L5.83021 9.49163C5.75202 9.41225 5.7081 9.30458 5.7081 9.19231C5.7081 9.08004 5.75202 8.97237 5.83021 8.89298C5.90839 8.81359 6.01443 8.769 6.125 8.769C6.23557 8.769 6.34161 8.81359 6.41979 8.89298L7.375 9.86341L9.58021 7.62375C9.61892 7.58444 9.66488 7.55326 9.71546 7.53199C9.76604 7.51071 9.82025 7.49976 9.875 7.49976C9.92975 7.49976 9.98396 7.51071 10.0345 7.53199C10.0851 7.55326 10.1311 7.58444 10.1698 7.62375C10.2085 7.66306 10.2392 7.70972 10.2602 7.76108C10.2811 7.81244 10.2919 7.86749 10.2919 7.92308C10.2919 7.97867 10.2811 8.03371 10.2602 8.08507C10.2392 8.13643 10.2085 8.1831 10.1698 8.2224ZM3.83333 5.38462V3.69231H5.08333V4.11538C5.08333 4.22759 5.12723 4.3352 5.20537 4.41455C5.28351 4.49389 5.38949 4.53846 5.5 4.53846C5.61051 4.53846 5.71649 4.49389 5.79463 4.41455C5.87277 4.3352 5.91667 4.22759 5.91667 4.11538V3.69231H10.0833V4.11538C10.0833 4.22759 10.1272 4.3352 10.2054 4.41455C10.2835 4.49389 10.3895 4.53846 10.5 4.53846C10.6105 4.53846 10.7165 4.49389 10.7946 4.41455C10.8728 4.3352 10.9167 4.22759 10.9167 4.11538V3.69231H12.1667V5.38462H3.83333Z" fill="#616269"/>
</svg>
