<svg width="22" height="22" viewBox="0 0 22 22" fill="none" xmlns="http://www.w3.org/2000/svg">
<path d="M14.0625 3C14.6095 3 15.1337 3.2177 15.5205 3.60449C15.9073 3.99129 16.125 4.51549 16.125 5.0625V17.4375C16.125 17.9845 15.9073 18.5087 15.5205 18.8955C15.1337 19.2823 14.6095 19.5 14.0625 19.5H8.5625C8.01549 19.5 7.49129 19.2823 7.10449 18.8955C6.7177 18.5087 6.5 17.9845 6.5 17.4375V5.0625C6.5 4.51549 6.7177 3.99129 7.10449 3.60449C7.49129 3.2177 8.01549 3 8.5625 3H14.0625ZM4.4375 7.125C4.61984 7.125 4.7949 7.19724 4.92383 7.32617C5.05276 7.4551 5.125 7.63016 5.125 7.8125V14.6875C5.125 14.8698 5.05276 15.0449 4.92383 15.1738C4.7949 15.3028 4.61984 15.375 4.4375 15.375C4.25516 15.375 4.0801 15.3028 3.95117 15.1738C3.82224 15.0449 3.75 14.8698 3.75 14.6875V7.8125C3.75 7.63016 3.82224 7.4551 3.95117 7.32617C4.0801 7.19724 4.25516 7.125 4.4375 7.125ZM18.1875 7.125C18.3698 7.125 18.5449 7.19724 18.6738 7.32617C18.8028 7.4551 18.875 7.63016 18.875 7.8125V14.6875C18.875 14.8698 18.8028 15.0449 18.6738 15.1738C18.5449 15.3028 18.3698 15.375 18.1875 15.375C18.0052 15.375 17.8301 15.3028 17.7012 15.1738C17.5722 15.0449 17.5 14.8698 17.5 14.6875V7.8125C17.5 7.63016 17.5722 7.4551 17.7012 7.32617C17.8301 7.19724 18.0052 7.125 18.1875 7.125ZM13.3125 8.5C13.1302 8.5001 12.9551 8.57226 12.8262 8.70117L11.25 10.2783L9.67383 8.70117C9.54486 8.57241 9.36976 8.5 9.1875 8.5C9.0052 8.5001 8.83008 8.57226 8.70117 8.70117C8.57226 8.83008 8.5001 9.0052 8.5 9.1875C8.5 9.36976 8.57241 9.54486 8.70117 9.67383L10.2783 11.25L8.70117 12.8262C8.57226 12.9551 8.5001 13.1302 8.5 13.3125C8.5 13.4948 8.57241 13.6699 8.70117 13.7988C8.83008 13.9277 9.0052 14.0009 9.1875 14.001C9.36994 14.001 9.54483 13.9278 9.67383 13.7988L11.25 12.2227L12.8262 13.7988C12.9551 13.9277 13.1302 14.0009 13.3125 14.001C13.4949 14.001 13.6698 13.9278 13.7988 13.7988C13.9278 13.6698 14.001 13.4949 14.001 13.3125C14.0009 13.1302 13.9277 12.9551 13.7988 12.8262L12.2227 11.25L13.7988 9.67383C13.9278 9.54483 14.001 9.36994 14.001 9.1875C14.0009 9.0052 13.9277 8.83008 13.7988 8.70117C13.6699 8.57241 13.4948 8.5 13.3125 8.5ZM1.6875 8.5C1.86984 8.5 2.0449 8.57224 2.17383 8.70117C2.30276 8.8301 2.375 9.00516 2.375 9.1875V13.3125C2.375 13.4948 2.30276 13.6699 2.17383 13.7988C2.0449 13.9278 1.86984 14 1.6875 14C1.50516 14 1.3301 13.9278 1.20117 13.7988C1.07224 13.6699 1 13.4948 1 13.3125V9.1875C1 9.00516 1.07224 8.8301 1.20117 8.70117C1.3301 8.57224 1.50516 8.5 1.6875 8.5ZM20.9375 8.5C21.1198 8.5 21.2949 8.57224 21.4238 8.70117C21.5528 8.8301 21.625 9.00516 21.625 9.1875V13.3125C21.625 13.4948 21.5528 13.6699 21.4238 13.7988C21.2949 13.9278 21.1198 14 20.9375 14C20.7552 14 20.5801 13.9278 20.4512 13.7988C20.3222 13.6699 20.25 13.4948 20.25 13.3125V9.1875C20.25 9.00516 20.3222 8.8301 20.4512 8.70117C20.5801 8.57224 20.7552 8.5 20.9375 8.5Z" fill="white"/>
</svg>
