<svg width="23" height="22" viewBox="0 0 23 22" fill="none" xmlns="http://www.w3.org/2000/svg">
<path d="M11.0835 5.85706C10.4477 5.85706 9.82627 6.04558 9.29768 6.39877C8.76909 6.75196 8.3571 7.25397 8.11382 7.84131C7.87054 8.42865 7.80688 9.07494 7.93091 9.69846C8.05493 10.322 8.36107 10.8947 8.8106 11.3442C9.26013 11.7938 9.83286 12.0999 10.4564 12.2239C11.0799 12.348 11.7262 12.2843 12.3135 12.041C12.9009 11.7977 13.4029 11.3857 13.7561 10.8572C14.1093 10.3286 14.2978 9.70711 14.2978 9.07138C14.2978 8.21889 13.9591 7.40131 13.3563 6.79851C12.7535 6.19571 11.936 5.85706 11.0835 5.85706ZM11.0835 11C10.702 11 10.3291 10.8869 10.012 10.6749C9.69484 10.463 9.44765 10.1618 9.30168 9.80942C9.15571 9.45701 9.11751 9.06924 9.19193 8.69513C9.26634 8.32102 9.45002 7.97738 9.71974 7.70766C9.98946 7.43794 10.3331 7.25426 10.7072 7.17984C11.0813 7.10543 11.4691 7.14362 11.8215 7.28959C12.1739 7.43556 12.4751 7.68275 12.687 7.99991C12.8989 8.31706 13.0121 8.68994 13.0121 9.07138C13.0121 9.58287 12.8089 10.0734 12.4472 10.4351C12.0855 10.7968 11.595 11 11.0835 11ZM11.0835 1.99988C9.20864 2.002 7.41121 2.74772 6.08551 4.07342C4.7598 5.39912 4.01409 7.19655 4.01196 9.07138C4.01196 11.5946 5.17796 14.2689 7.387 16.8058C8.37959 17.9522 9.49676 18.9845 10.7178 19.8835C10.8259 19.9593 10.9547 19.9999 11.0867 19.9999C11.2187 19.9999 11.3474 19.9593 11.4555 19.8835C12.6743 18.9841 13.7893 17.9518 14.7799 16.8058C16.9858 14.2689 18.155 11.5946 18.155 9.07138C18.1528 7.19655 17.4071 5.39912 16.0814 4.07342C14.7557 2.74772 12.9583 2.002 11.0835 1.99988ZM11.0835 18.5536C9.75515 17.509 5.29769 13.6719 5.29769 9.07138C5.29769 7.5369 5.90726 6.06526 6.9923 4.98022C8.07735 3.89518 9.54898 3.28561 11.0835 3.28561C12.6179 3.28561 14.0896 3.89518 15.1746 4.98022C16.2597 6.06526 16.8692 7.5369 16.8692 9.07138C16.8692 13.6703 12.4118 17.509 11.0835 18.5536Z" fill="#616269"/>
</svg>
