<svg width="22" height="22" viewBox="0 0 22 22" fill="none" xmlns="http://www.w3.org/2000/svg">
<path d="M11.0007 3C9.23316 3.00189 7.53863 3.66475 6.28882 4.84315C5.03901 6.02155 4.33599 7.61927 4.33398 9.28578C4.33398 14.6644 10.3946 18.7266 10.6529 18.8966C10.7548 18.9639 10.8762 19 11.0007 19C11.1251 19 11.2465 18.9639 11.3484 18.8966C11.6067 18.7266 17.6673 14.6644 17.6673 9.28578C17.6653 7.61927 16.9623 6.02155 15.7125 4.84315C14.4627 3.66475 12.7681 3.00189 11.0007 3ZM11.0007 7.00004C11.4801 7.00004 11.9488 7.1341 12.3475 7.38526C12.7462 7.63642 13.0569 7.9934 13.2404 8.41106C13.4238 8.82873 13.4719 9.28831 13.3783 9.7317C13.2848 10.1751 13.0539 10.5824 12.7148 10.902C12.3758 11.2217 11.9439 11.4394 11.4736 11.5276C11.0033 11.6158 10.5159 11.5705 10.0729 11.3975C9.62996 11.2245 9.25135 10.9316 8.98497 10.5557C8.71859 10.1798 8.57641 9.73785 8.57641 9.28578C8.57641 8.67956 8.83182 8.09818 9.28645 7.66952C9.74109 7.24086 10.3577 7.00004 11.0007 7.00004Z" fill="#ADAFB7"/>
</svg>
