<svg width="120" height="120" viewBox="0 0 120 120" fill="none" xmlns="http://www.w3.org/2000/svg">
<g filter="url(#filter0_g_660_3858)">
<path d="M86.8817 19.4492L60.1775 59.5163V11.0135C59.9535 11.0135 59.7402 10.9922 59.5163 10.9922C32.716 10.9922 10.9922 32.716 10.9922 59.5163C10.9922 86.3165 32.716 108.04 59.5163 108.04C86.3165 108.04 108.04 86.3165 108.04 59.5163C108.04 42.8688 99.6579 28.1942 86.8924 19.4492H86.8817Z" fill="#2B2C30"/>
</g>
<path d="M96.252 31L59.9996 60.2119" stroke="#616269" stroke-width="6.39878" stroke-linecap="round"/>
<path d="M86.709 20.5889L60.0474 59.5148" stroke="#ADAFB7" stroke-width="6.39878" stroke-linecap="round"/>
<path d="M60.4668 3.09793C60.8385 3.09793 61.2102 3.11282 61.567 3.12771C62.0577 3.44049 62.8605 3.94688 63.931 4.02135C64.0054 4.02135 64.2135 4.09582 64.3622 4.1405C64.7636 4.25965 65.2692 4.40859 65.8639 4.46816H66.072L66.2207 4.48306C66.8898 4.48306 67.4548 4.30433 67.9305 4.08092C68.3766 4.45327 68.9713 4.81072 69.7296 4.94477C70.0567 5.00434 70.3838 5.04903 70.7109 5.09371C71.0231 5.13839 71.3502 5.18307 71.6624 5.24265C71.9301 5.30222 72.1977 5.33201 72.4653 5.33201C73.0154 5.33201 73.5061 5.21286 73.8926 5.09371C74.2941 5.39158 74.8145 5.73414 75.5133 5.94266C76.1229 6.12139 76.6878 6.13628 77.0595 6.13628C77.1785 6.13628 77.3123 6.13628 77.4313 6.13628H77.5948C77.5948 6.13628 77.7286 6.22564 77.7881 6.27032C78.1449 6.49373 78.6207 6.8065 79.2303 7.04481C79.3344 7.10438 79.4236 7.17885 79.5276 7.25332C79.8845 7.50652 80.3603 7.83418 80.9847 8.08738C81.4605 8.281 81.9957 8.38525 82.5459 8.38525C82.977 8.38525 83.3636 8.32568 83.6461 8.281C83.884 8.37036 84.107 8.44483 84.3152 8.5193C84.5828 8.60866 84.8504 8.69803 84.9991 8.7725C85.3262 8.93633 85.6533 9.11506 85.9804 9.30868C86.2331 9.45761 86.4859 9.59166 86.7535 9.7257C87.3334 10.0385 87.8984 10.1874 88.3147 10.3066C88.3444 10.3066 88.389 10.3215 88.4187 10.3364C88.7161 10.7832 89.1324 11.4236 89.8758 11.9151C89.9353 11.9747 89.9799 12.0491 90.0394 12.1087C90.3516 12.4811 90.7679 13.0024 91.4072 13.4492C92.3142 14.0598 93.2657 14.1492 93.8456 14.2088C94.0537 14.3726 94.2619 14.5364 94.4701 14.7152C94.5295 14.7598 94.5741 14.8045 94.6336 14.8492C94.8418 15.4301 95.1688 16.3535 96.0461 17.0833C96.5664 17.5152 97.0868 17.7833 97.4734 17.9769C97.5775 18.0365 97.6964 18.0812 97.7856 18.1407C98.2614 18.5727 98.7372 18.9897 99.1981 19.4365L99.659 19.8833C99.9861 20.1961 100.298 20.494 100.611 20.8216C101.354 21.5961 102.261 21.894 102.811 22.0727H102.841C102.96 22.2068 103.094 22.3408 103.212 22.4749C103.45 22.7132 103.688 22.9515 103.896 23.2047C103.986 23.3089 104.134 23.5472 104.268 23.7706C104.432 24.0387 104.61 24.3366 104.833 24.6494C104.833 24.6941 104.863 24.7536 104.878 24.7983C105.012 25.3047 105.205 26.0792 105.74 26.809C105.978 27.1367 106.201 27.4643 106.409 27.8069C106.513 27.9558 106.617 28.1196 106.706 28.2686C106.706 28.3282 106.736 28.3877 106.751 28.4473C106.855 28.9239 107.019 29.6537 107.465 30.3686C107.762 30.8601 108.045 31.3367 108.327 31.8282L108.446 32.0367C108.803 32.6623 109.249 33.1091 109.561 33.4219C109.635 33.4963 109.71 33.5708 109.769 33.6453C110.29 34.5687 111.078 35.0751 111.628 35.3879C111.643 35.4474 111.672 35.507 111.687 35.5666C111.806 35.9389 111.94 36.356 112.133 36.7879L112.341 37.2347C112.55 37.6964 112.758 38.1432 112.936 38.6049C113.07 38.9475 113.189 39.305 113.323 39.6624C113.412 39.9454 113.516 40.2135 113.605 40.4816C113.739 40.839 113.843 41.1965 113.947 41.5688C114.007 41.7922 114.081 42.0156 114.155 42.2242C114.155 42.2986 114.155 42.388 114.155 42.4625C114.155 42.9242 114.126 43.5497 114.304 44.2497C114.304 44.3391 114.304 44.4136 114.304 44.5029C114.274 44.9944 114.245 45.6646 114.423 46.4242C114.453 46.5434 114.482 46.7966 114.497 47.0498C114.527 47.4221 114.572 47.8838 114.676 48.3753C114.81 49.0307 115.062 49.5519 115.241 49.9392C115.3 50.0583 115.36 50.1775 115.375 50.2371C115.404 50.3711 115.404 50.6243 115.404 50.8775C115.404 51.2499 115.419 51.7116 115.493 52.2031C115.523 52.3818 115.523 52.6499 115.523 52.918C115.523 53.2903 115.523 53.6924 115.583 54.1542C115.672 55.0627 116.088 55.7478 116.519 56.2542C116.296 56.7457 116.133 57.3266 116.163 57.9968C116.163 58.0712 116.118 58.2649 116.088 58.4138C116.014 58.8159 115.895 59.367 115.895 59.9926C115.895 61.0798 116.371 61.9139 116.802 62.4798C116.668 62.8224 116.549 63.2394 116.49 63.7309C116.46 63.7905 116.43 63.8501 116.4 63.9096C116.192 64.3565 115.865 65.0267 115.776 65.8607C115.687 66.665 115.85 67.3501 116.014 67.8565C115.717 68.3033 115.36 68.9289 115.211 69.7332C115.047 70.6715 115.256 71.4608 115.479 72.0417C115.211 72.4438 114.899 72.98 114.735 73.6354C114.646 73.9779 114.542 74.3205 114.438 74.663C114.378 74.8715 114.304 75.0801 114.245 75.2886C114.215 75.3333 114.185 75.363 114.155 75.4077C113.843 75.795 113.352 76.3907 113.085 77.2397C112.832 78.0142 112.877 78.7439 112.981 79.3099C112.564 79.6823 112.104 80.1887 111.806 80.9185C111.345 82.0653 111.583 83.1228 111.821 83.8526C111.672 84.0611 111.509 84.2994 111.36 84.5675C111.345 84.5675 111.316 84.5972 111.301 84.6121C110.855 84.9249 110.111 85.4611 109.621 86.3845C109.264 87.0398 109.16 87.6952 109.145 88.2462C108.595 88.5292 107.97 88.9612 107.524 89.691C107.004 90.525 106.915 91.374 106.929 92.0293C106.543 92.2974 106.082 92.6548 105.695 93.191C105.249 93.8017 105.041 94.4272 104.922 94.9187C104.387 95.1421 103.703 95.4996 103.138 96.1847C102.885 96.4826 102.647 96.8102 102.424 97.1379C102.246 97.3762 102.083 97.6145 101.949 97.7634C101.577 98.1805 101.19 98.5826 100.789 98.9847L100.625 99.1486C100.536 99.223 100.417 99.2826 100.313 99.3422C99.9415 99.5656 99.436 99.8635 98.9602 100.34C98.4547 100.832 98.1573 101.398 97.9938 101.919C97.176 101.993 96.4624 102.276 95.8974 102.768C95.2878 103.274 94.9607 103.9 94.7525 104.466C94.0091 104.54 93.3847 104.778 92.8346 105.181C91.8533 105.896 91.4816 106.878 91.2586 107.519C91.1842 107.579 91.1099 107.638 91.0207 107.683C90.7382 107.891 90.4705 108.085 90.1732 108.264C89.6528 108.591 89.2514 108.964 88.9391 109.262C88.8202 109.366 88.6566 109.53 88.6269 109.545C88.3593 109.693 88.1065 109.857 87.8389 110.021C87.5267 110.215 87.2144 110.408 86.9022 110.572C86.813 110.617 86.5602 110.706 86.367 110.766C85.9804 110.885 85.5195 111.034 85.0288 111.272C84.9545 111.302 84.7166 111.362 84.5531 111.406C84.1516 111.51 83.6461 111.63 83.1108 111.868C82.9176 111.957 82.6351 112.047 82.3526 112.136C81.9809 112.255 81.6092 112.374 81.2523 112.523C80.5535 112.806 80.048 113.208 79.6615 113.506C79.6317 113.521 79.602 113.551 79.5723 113.566H79.5128H79.26C78.814 113.566 78.2193 113.596 77.5799 113.789C77.4759 113.789 77.3569 113.789 77.238 113.804C76.7919 113.819 76.1823 113.849 75.5133 114.042C74.6509 114.296 74.0413 114.787 73.625 115.174C73.3574 115.13 73.0452 115.1 72.7032 115.1C72.3761 115.1 72.0639 115.13 71.7665 115.189C70.815 115.398 70.131 115.904 69.685 116.306C69.3876 116.262 69.0457 116.217 68.6442 116.217C68.4063 116.217 68.1833 116.232 67.9603 116.262C67.6481 116.306 67.321 116.321 66.9939 116.351C66.7411 116.366 66.5032 116.381 66.2505 116.411C66.2059 116.411 66.1612 116.381 66.1018 116.366C65.6706 116.232 65.0313 116.038 64.273 116.038C64.1689 116.038 64.0797 116.038 63.9756 116.038L63.2917 116.083C62.8754 116.113 62.4591 116.157 62.0279 116.172C61.344 116.202 60.7641 116.396 60.3032 116.604C59.768 116.232 59.0543 115.874 58.1176 115.83H57.8946C57.4188 115.83 56.9877 115.874 56.6457 115.919C56.4524 115.949 56.2591 115.964 56.1402 115.964H55.9766H55.8725C55.2778 115.964 54.7574 116.098 54.3263 116.262C53.8356 115.845 53.1666 115.428 52.2745 115.308C52.1109 115.279 51.9325 115.279 51.769 115.279C51.0404 115.279 50.416 115.487 49.9402 115.711C49.5387 115.442 49.0184 115.174 48.3642 115.04C47.9033 114.936 47.487 114.891 47.1153 114.862C46.8328 114.832 46.58 114.802 46.4165 114.757C45.8217 114.608 45.3014 114.579 44.885 114.549C44.7512 114.549 44.5877 114.534 44.4985 114.519C44.4241 114.474 44.3498 114.415 44.2606 114.37C43.874 114.117 43.3536 113.789 42.6697 113.566C42.2831 113.432 41.8668 113.372 41.4357 113.372C40.8855 113.372 40.3949 113.476 40.0232 113.566C39.9042 113.506 39.7853 113.462 39.6664 113.402C39.3393 113.253 39.0122 113.089 38.6702 112.955C38.239 112.776 37.8227 112.657 37.4659 112.553C37.2131 112.479 36.9752 112.404 36.8266 112.345C36.7225 112.285 36.6333 112.196 36.5441 112.121C36.321 111.942 36.0534 111.719 35.7114 111.496C35.3992 110.915 34.8937 109.976 33.8083 109.396C33.2731 109.113 32.6635 108.964 32.0093 108.964C31.9498 108.964 31.9052 108.964 31.8458 108.964C31.5781 108.398 31.147 107.817 30.463 107.385L29.9278 107.057C29.5561 106.819 29.1844 106.596 28.8127 106.342C28.1733 105.91 27.534 105.717 27.0731 105.568C27.0434 105.568 26.9988 105.553 26.9542 105.538C26.9244 105.508 26.9096 105.464 26.8798 105.434C26.5973 105.061 26.2256 104.54 25.6309 104.078C24.828 103.453 23.9657 103.274 23.3412 103.2C23.1033 102.827 22.7762 102.366 22.3005 101.949C21.899 101.591 21.4976 101.323 21.1705 101.1C20.9921 100.981 20.769 100.832 20.6947 100.757C20.4271 100.504 20.1743 100.221 19.9216 99.9528C19.7283 99.7443 19.535 99.5358 19.3417 99.3273C18.9403 98.9252 18.524 98.6422 18.1374 98.4337C18.1225 97.689 17.959 96.7507 17.2602 95.9166C16.4276 94.9187 15.2827 94.6506 14.5839 94.5017C14.5096 94.4123 14.4352 94.3378 14.3609 94.2485C14.1527 94.0102 13.9446 93.7868 13.8108 93.5931C13.7067 93.4591 13.5729 93.2059 13.4391 92.9527C13.3499 92.774 13.2458 92.5953 13.1269 92.4016C13.1417 91.7463 13.1417 90.7037 12.5173 89.691C11.9671 88.8271 11.2089 88.3356 10.748 88.0526C10.7034 87.9335 10.6439 87.8143 10.5844 87.6803C10.4357 87.3377 10.2871 86.9654 10.064 86.5632C9.98969 86.4143 9.90048 86.176 9.79641 85.9079C9.66259 85.5505 9.51391 85.1483 9.30576 84.7164C9.03813 84.1802 8.69617 83.7632 8.3542 83.4504C8.54749 82.7504 8.66643 81.8419 8.27986 80.8887C7.9379 80.0248 7.32831 79.4589 6.79306 79.0865C6.83766 78.5801 6.82279 77.9844 6.61464 77.329C6.5849 77.2546 6.55517 77.0014 6.5403 76.8226C6.49569 76.4205 6.43622 75.929 6.27267 75.3779C6.10912 74.7822 5.87124 74.3205 5.67795 73.9332C5.60361 73.7992 5.5144 73.6056 5.49953 73.5609C5.39546 73.1141 5.30625 72.6673 5.20217 72.2204L5.08323 71.6396C4.91968 70.8502 4.56284 70.2395 4.32496 69.8225C4.4439 69.331 4.59258 68.6012 4.47364 67.7523C4.36956 67.0523 4.14654 66.4863 3.96812 66.0693C3.92352 65.965 3.87891 65.8607 3.84918 65.7714C3.78971 65.2799 3.68563 64.848 3.61129 64.5054C3.59642 64.4458 3.58155 64.3714 3.56668 64.3118C3.84918 63.7756 4.23575 62.9415 4.20601 61.899C4.16141 60.633 3.50721 59.7542 3.0463 59.2032C3.0463 58.9947 3.0463 58.801 3.0463 58.5925C3.47748 58.0563 4.10193 57.2223 4.19114 56.0159C4.26548 55.018 3.95325 54.2137 3.7451 53.6924C3.7451 53.6627 3.73023 53.6329 3.71537 53.618C3.73023 53.2605 3.71537 52.9329 3.71537 52.6499C3.71537 52.3967 3.71537 52.1286 3.71537 51.9945C3.7451 51.8307 3.80457 51.5626 3.89378 51.2945C3.99786 50.9371 4.10193 50.52 4.19114 50.0583C4.20601 49.969 4.29522 49.7307 4.36956 49.5519C4.51824 49.1796 4.68179 48.7179 4.80073 48.1668C4.87507 47.8094 4.97915 47.4519 5.06836 47.0945C5.1427 46.8115 5.21704 46.5285 5.29138 46.2604C5.48467 45.4561 5.39546 44.7263 5.29138 44.1604C5.66308 43.7582 6.09426 43.2071 6.34701 42.4476C6.52543 41.8816 6.73358 41.3305 6.92687 40.7794L7.00121 40.5858C7.20936 40.0199 7.29857 39.5135 7.35804 39.0964C7.89329 38.739 8.6367 38.173 9.06787 37.19C9.46931 36.2666 9.43957 35.4028 9.35036 34.7623C9.66259 34.4347 10.0343 34.0176 10.3317 33.4517C10.6588 32.8261 10.7777 32.2155 10.8372 31.724C11.3873 31.441 12.0564 30.9942 12.547 30.2048C13.0674 29.3707 13.1863 28.5367 13.2607 27.9856C13.2607 27.9558 13.2607 27.9409 13.2607 27.9111C13.5134 27.5537 13.7662 27.1962 14.0189 26.8388L14.0933 26.7941C14.5839 26.5409 15.3125 26.1388 15.9072 25.3792C16.1153 25.1111 16.3384 24.8728 16.5614 24.6196C16.7695 24.3813 16.9926 24.143 17.1858 23.9047C17.8846 23.0855 18.0779 22.1472 18.1969 21.5961C18.1969 21.5812 18.1969 21.5514 18.1969 21.5366C18.405 21.2387 18.5686 20.9408 18.7024 20.6727C19.4309 20.5982 20.3825 20.3748 21.1853 19.6152C21.9734 18.8557 22.2558 17.9322 22.4343 17.3812H22.4491C22.687 17.1578 22.9249 16.9343 23.1628 16.7258C23.7724 16.6514 24.7537 16.5173 25.6458 15.8173C26.0026 15.5343 26.3148 15.2513 26.5676 14.9981C26.7757 14.8045 26.969 14.6258 27.1028 14.5215C27.2664 14.4024 27.4894 14.2683 27.757 14.1194C28.099 13.9258 28.441 13.7322 28.7829 13.5087C29.4223 13.0768 29.8237 12.5258 30.0913 12.0343C30.8496 12.0343 31.5484 11.8555 32.1282 11.513C32.723 11.1704 33.1541 10.7534 33.4664 10.4555C33.5556 10.381 33.6299 10.2917 33.7191 10.2172C34.5963 9.7257 35.1167 9.0108 35.429 8.57888C35.429 8.56398 35.4587 8.53419 35.4736 8.5193C35.7561 8.35547 36.0088 8.20653 36.2318 8.05759C36.2318 8.05759 36.2616 8.0427 36.2764 8.0278C36.6481 8.13206 37.1239 8.22142 37.6443 8.22142C38.1647 8.22142 38.6256 8.13206 39.0716 7.95333C39.815 7.65546 40.3354 7.17885 40.7071 6.74693C40.9599 6.79161 41.2275 6.8214 41.5249 6.8214C41.956 6.8214 42.3575 6.76182 42.7589 6.62778C43.7253 6.31501 44.3349 5.73414 44.7512 5.33201C44.781 5.30222 44.7958 5.28733 44.8256 5.25754C45.4054 5.03413 45.8515 4.70647 46.1934 4.43838C46.5354 4.51285 46.9368 4.58732 47.4126 4.58732C47.71 4.58732 48.0073 4.55753 48.2898 4.49795C48.7656 4.39369 49.167 4.25965 49.5387 4.1405C49.6131 4.11071 49.6874 4.09582 49.7618 4.06603C50.2375 4.25965 50.9066 4.51285 51.7244 4.51285C51.9028 4.51285 52.0812 4.51285 52.2596 4.46816C53.2409 4.33412 53.9546 3.82773 54.4601 3.38091C54.8466 3.48517 55.3076 3.58943 55.8131 3.58943C55.9023 3.58943 56.0064 3.58943 56.0956 3.58943C56.1848 3.58943 56.3929 3.61921 56.5713 3.649C56.9282 3.69368 57.3742 3.76815 57.8797 3.76815H58.0879C59.1435 3.72347 59.9613 3.27665 60.4519 2.99367M60.0505 0.119151C59.3517 0.119151 58.6826 0.878739 57.9838 0.893633C57.9541 0.893633 57.9095 0.893633 57.8797 0.893633C57.285 0.893633 56.6903 0.7298 56.0956 0.7298C56.0361 0.7298 55.9618 0.7298 55.9023 0.7298C55.8726 0.7298 55.8428 0.7298 55.8131 0.7298C55.1886 0.7298 54.5196 0.26809 53.8951 0.26809C53.8505 0.26809 53.8059 0.26809 53.7761 0.26809C53.0922 0.342559 52.5421 1.53407 51.8582 1.63833C51.8136 1.63833 51.769 1.63833 51.7244 1.63833C51.1148 1.63833 50.4308 1.10215 49.8361 1.10215C49.7766 1.10215 49.732 1.10215 49.6726 1.10215C48.9886 1.2213 48.3344 1.53407 47.6654 1.66811C47.5762 1.68301 47.487 1.6979 47.3978 1.6979C46.8774 1.6979 46.2826 1.44471 45.7623 1.44471C45.6582 1.44471 45.5541 1.44471 45.4649 1.47449C44.7958 1.63833 44.2755 2.4277 43.6064 2.62132C42.9373 2.81494 42.4913 3.66389 41.8222 3.87241C41.7181 3.9022 41.6141 3.91709 41.51 3.91709C41.0045 3.91709 40.3949 3.63411 39.9042 3.63411C39.7853 3.63411 39.6812 3.649 39.5771 3.69368C38.923 3.93198 38.6107 5.01924 37.9714 5.28733C37.8673 5.33201 37.7632 5.3469 37.6592 5.3469C37.1388 5.3469 36.4846 5.01924 35.9642 5.01924C35.8453 5.01924 35.7263 5.03413 35.6222 5.07881C34.9829 5.3618 34.4179 5.82351 33.8083 6.12139C33.1839 6.41926 32.8865 7.37247 32.2769 7.70014C31.6673 8.0278 31.251 8.65334 30.6414 9.0108C30.4779 9.10016 30.2697 9.12995 30.0467 9.12995C29.6899 9.12995 29.3033 9.05548 28.9465 9.05548C28.7086 9.05548 28.5004 9.08527 28.3369 9.18952C27.757 9.56187 27.6827 10.7236 27.1177 11.1108C26.5379 11.4981 25.9134 11.7811 25.3484 12.1832C24.7834 12.5853 24.3374 13.1215 23.8021 13.5534C23.252 13.9854 22.1815 13.7322 21.6463 14.179C21.111 14.6258 20.6055 15.1024 20.0851 15.5641C19.5647 16.0258 19.6093 17.0833 19.1038 17.5599C18.5983 18.0365 17.2007 17.6046 16.7101 18.111C16.2343 18.6025 16.1451 19.4961 15.6693 20.0174C15.2084 20.5387 15.3273 21.5514 14.8813 22.0727C14.4352 22.6089 13.9595 23.0855 13.5283 23.6366C13.0971 24.1877 12.1753 24.3515 11.7739 24.9026C11.3724 25.4685 10.9561 26.0345 10.5695 26.6005C10.183 27.1813 10.3614 28.1048 9.98969 28.7005C9.61799 29.2814 8.45828 29.3856 8.10145 29.9963C7.75948 30.592 7.9825 31.5155 7.6554 32.141C7.32831 32.7516 6.61464 33.1687 6.31728 33.7942C6.01992 34.4198 6.5849 35.4325 6.30241 36.073C6.01992 36.6985 4.88994 36.9666 4.63719 37.607C4.38443 38.2475 4.38443 38.9922 4.14654 39.6475C3.90865 40.3028 3.67076 40.9433 3.46261 41.6135C3.25446 42.2688 2.31777 42.7305 2.12448 43.3859C1.9312 44.0561 2.54079 44.9348 2.36237 45.62C2.19882 46.2902 1.99067 46.9604 1.84199 47.6306C1.69331 48.3009 1.33647 48.9413 1.21753 49.6264C1.09859 50.3115 0.83096 50.9818 0.726883 51.6669C0.637675 52.352 0.726883 53.0669 0.667411 53.7669C0.593071 54.452 1.20266 55.1967 1.15806 55.8967C1.11345 56.5819 0.0429522 57.2223 0.0132161 57.9223C-0.0165201 58.6074 0.0132161 59.3223 0.0132161 60.0223C0.0132161 60.7224 1.15806 61.3926 1.17293 62.0777C1.20266 62.7777 0.414654 63.5075 0.459258 64.1926C0.503862 64.8926 0.771487 65.5629 0.845828 66.248C0.920168 66.9331 1.36621 67.5735 1.47029 68.2587C1.5595 68.9438 1.12832 69.7183 1.24727 70.4034C1.36621 71.0885 1.9758 71.6694 2.12448 72.3545C2.27316 73.0396 2.39211 73.7098 2.55566 74.38C2.7192 75.0503 3.18011 75.6311 3.3734 76.3014C3.56668 76.9716 3.52208 77.6865 3.7451 78.3418C3.95325 78.9971 3.46261 79.9057 3.7005 80.561C3.93839 81.2163 5.23191 81.4546 5.48467 82.0951C5.73742 82.7355 4.74126 83.927 5.00889 84.5526C5.29138 85.193 6.30241 85.4909 6.59977 86.1164C6.89713 86.742 7.06068 87.442 7.38778 88.0526C7.71488 88.6633 7.92303 89.3484 8.26499 89.9442C8.60696 90.5399 9.57338 90.7782 9.94509 91.3591C10.3168 91.9399 9.90048 93.0421 10.2871 93.6229C10.6736 94.2038 10.9561 94.874 11.3576 95.44C11.759 96.006 12.2942 96.4975 12.7105 97.0485C13.1417 97.5996 14.4798 97.3911 14.9259 97.9273C15.3719 98.4634 14.8069 99.8635 15.2679 100.385C15.7288 100.906 16.6655 100.995 17.1412 101.487C17.617 101.978 18.0779 102.515 18.5834 102.991C19.0741 103.468 19.7431 103.781 20.2487 104.242C20.7542 104.704 21.0367 105.464 21.557 105.91C22.0923 106.357 23.1925 106.074 23.7427 106.506C24.2928 106.938 24.5753 107.668 25.1403 108.085C25.7052 108.487 26.5081 108.517 27.088 108.904C27.6678 109.291 28.2328 109.634 28.8275 110.006C29.4074 110.379 29.333 111.853 29.9278 112.211C30.0467 112.285 30.1805 112.3 30.3441 112.3C30.8347 112.3 31.474 112.047 31.9647 112.047C32.1134 112.047 32.2472 112.076 32.3661 112.136C32.9757 112.464 33.1541 113.64 33.7637 113.938C34.3882 114.236 34.8788 114.862 35.5182 115.145C36.1426 115.428 36.8712 115.562 37.5105 115.815C38.1498 116.068 38.7743 116.425 39.4285 116.664C39.5325 116.708 39.6515 116.723 39.7704 116.723C40.2759 116.723 40.8707 116.455 41.3762 116.455C41.4803 116.455 41.5992 116.455 41.6884 116.5C42.3426 116.708 42.8927 117.289 43.5618 117.483C44.2309 117.677 44.9743 117.572 45.6433 117.751C46.3124 117.915 47.0112 117.915 47.6951 118.049C48.3642 118.198 48.9292 118.972 49.6131 119.091C49.6577 119.091 49.6874 119.091 49.732 119.091C50.3565 119.091 51.0999 118.332 51.7244 118.332C51.7541 118.332 51.7987 118.332 51.8284 118.332C52.5124 118.421 53.0625 119.613 53.7464 119.687C53.7761 119.687 53.8059 119.687 53.8356 119.687C54.4749 119.687 55.1737 119.017 55.8279 119.017C55.8428 119.017 55.8725 119.017 55.8874 119.017C55.9618 119.017 56.0361 119.017 56.0956 119.017C56.6754 119.017 57.2553 118.868 57.8351 118.868C57.8797 118.868 57.9095 118.868 57.9541 118.868C58.638 118.898 59.3071 120 60.0059 120C60.7047 120 61.3737 119.226 62.0725 119.211C62.7713 119.181 63.4404 119.121 64.1392 119.077C64.1689 119.077 64.1987 119.077 64.2284 119.077C64.8529 119.077 65.4922 119.479 66.1166 119.479C66.1613 119.479 66.2059 119.479 66.2505 119.479C66.9344 119.404 67.6481 119.404 68.332 119.3C68.4212 119.3 68.5104 119.285 68.6145 119.285C69.1051 119.285 69.6404 119.434 70.131 119.434C70.25 119.434 70.354 119.434 70.4581 119.404C71.1421 119.285 71.6773 118.332 72.3464 118.183C72.4504 118.168 72.5545 118.153 72.6735 118.153C73.1492 118.153 73.6696 118.317 74.1454 118.317C74.2644 118.317 74.3833 118.317 74.5022 118.272C75.1713 118.108 75.6322 117.155 76.3013 116.962C76.9703 116.768 77.7286 116.917 78.3828 116.708C78.6356 116.619 78.9181 116.604 79.2154 116.604C79.3641 116.604 79.4979 116.604 79.6466 116.604C79.9588 116.604 80.2562 116.589 80.5238 116.485C81.178 116.247 81.6835 115.591 82.3228 115.338C82.9622 115.085 83.661 114.921 84.2854 114.638C84.9248 114.355 85.6682 114.296 86.2926 113.998C86.9171 113.7 87.6605 113.581 88.2701 113.253C88.8797 112.925 89.4744 112.523 90.0691 112.181C90.6638 111.838 91.1247 111.213 91.7046 110.84C92.2844 110.468 92.8494 110.036 93.4144 109.649C93.9943 109.262 93.9645 108.04 94.5295 107.623C94.7079 107.489 94.9458 107.459 95.2283 107.459C95.5406 107.459 95.8825 107.504 96.1948 107.504C96.4772 107.504 96.73 107.474 96.9084 107.325C97.4585 106.893 97.2355 105.538 97.7708 105.091C97.9194 104.957 98.1573 104.927 98.4101 104.927C98.7967 104.927 99.2427 105.002 99.6293 105.002C99.8969 105.002 100.135 104.957 100.283 104.823C100.804 104.361 100.492 103.006 100.982 102.515C101.473 102.038 102.201 101.785 102.677 101.293C103.153 100.802 103.644 100.295 104.105 99.789C104.565 99.2677 104.907 98.672 105.353 98.1358C105.8 97.5996 106.855 97.5549 107.271 97.0187C107.703 96.4677 107.643 95.5443 108.045 94.9932C108.446 94.4272 109.353 94.2038 109.74 93.6378C110.126 93.057 109.621 91.9101 109.992 91.3293C110.364 90.7484 111.628 90.7037 111.97 90.0931C112.312 89.4973 111.866 88.4399 112.193 87.8292C112.52 87.2186 113.471 86.9207 113.769 86.31C114.066 85.6845 114.616 85.1483 114.899 84.5228C115.181 83.8972 114.245 82.7355 114.497 82.0951C114.75 81.4546 115.821 81.127 116.058 80.4716C116.296 79.8163 115.642 78.878 115.865 78.2078C116.073 77.5524 116.802 77.0609 116.995 76.3907C117.188 75.7205 117.426 75.0801 117.59 74.3949C117.753 73.7247 118.482 73.1736 118.616 72.4885C118.764 71.8183 117.976 70.9545 118.095 70.2693C118.214 69.5842 118.987 69.0182 119.092 68.3182C119.181 67.6331 118.616 66.8735 118.69 66.1735C118.764 65.4884 119.329 64.848 119.389 64.1479C119.434 63.4628 119.954 62.7777 119.969 62.0777C119.999 61.3926 118.824 60.6777 118.824 59.9777C118.824 59.2776 119.106 58.5925 119.092 57.9074C119.062 57.2074 120.043 56.4627 119.999 55.7776C119.954 55.0776 118.571 54.5116 118.497 53.8265C118.423 53.1414 118.497 52.4414 118.408 51.7562C118.318 51.0711 118.393 50.3711 118.274 49.686C118.155 49.0009 117.694 48.4051 117.56 47.72C117.411 47.0349 117.456 46.3349 117.293 45.6646C117.129 44.9944 117.382 44.205 117.188 43.5497C116.995 42.8795 117.233 42.0752 117.025 41.4199C116.817 40.7646 116.623 40.0645 116.386 39.4241C116.148 38.7688 115.94 38.0837 115.687 37.4432C115.434 36.8028 115.122 36.1474 114.839 35.5219C114.557 34.8815 114.408 34.1666 114.111 33.541C113.813 32.9155 112.669 32.707 112.341 32.0963C112.014 31.4857 111.345 31.0835 111.003 30.4729C110.661 29.8771 110.319 29.2814 109.963 28.7005C109.591 28.1196 109.65 27.2558 109.264 26.6898C108.877 26.109 108.506 25.5281 108.104 24.9621C107.703 24.3962 107.747 23.4876 107.316 22.9366C106.885 22.3855 106.588 21.7153 106.141 21.1791C105.695 20.6429 105.175 20.1514 104.699 19.645C104.238 19.1237 103.198 19.1386 102.722 18.6471C102.246 18.1556 101.741 17.679 101.235 17.2024C100.744 16.7258 100.224 16.2641 99.7185 15.7875C99.213 15.3109 98.4696 15.1322 97.9343 14.6854C97.3991 14.2386 97.4139 13.1364 96.8638 12.7194C96.3137 12.2875 95.7784 11.8406 95.2135 11.4236C94.6485 11.0215 93.6374 11.2598 93.0576 10.8725C92.4777 10.4853 92.1506 9.7257 91.5708 9.36825C90.9909 8.9959 90.7233 8.05759 90.1286 7.70014C89.5339 7.35758 88.7458 7.298 88.1363 6.97034C87.5267 6.64267 86.9171 6.27032 86.2926 5.97245C85.6682 5.67457 84.9694 5.51074 84.33 5.22775C84.1814 5.16818 84.0327 5.13839 83.8543 5.13839C83.438 5.13839 82.9473 5.27243 82.531 5.27243C82.3674 5.27243 82.2188 5.25754 82.085 5.19796C81.4456 4.94477 80.9401 4.3788 80.2859 4.1405C79.6317 3.9022 79.0965 3.35112 78.4423 3.14261C78.1895 3.06814 77.9368 3.03835 77.6691 3.03835C77.4759 3.03835 77.2677 3.03835 77.0595 3.03835C76.8068 3.03835 76.554 3.02346 76.331 2.96388C75.6619 2.77026 75.1564 1.99578 74.4874 1.81705C74.413 1.80216 74.3387 1.78727 74.2644 1.78727C73.6994 1.78727 73.0303 2.23408 72.4653 2.23408C72.4058 2.23408 72.3315 2.23408 72.272 2.21919C71.603 2.07025 70.919 2.02557 70.2351 1.90642C69.5512 1.78727 69.0605 0.476604 68.3766 0.372347C68.3469 0.372347 68.3171 0.372347 68.3023 0.372347C67.6481 0.372347 66.8749 1.41492 66.2356 1.41492C66.2207 1.41492 66.191 1.41492 66.1761 1.41492C65.4922 1.34045 64.838 1.01278 64.1541 0.953208C63.4701 0.908527 62.8159 0.0893633 62.1171 0.0595755C61.4332 0.0297878 60.7195 0 60.0356 0L60.0505 0.119151Z" fill="#333338"/>
<defs>
<filter id="filter0_g_660_3858" x="7.32807" y="7.32807" width="104.377" height="104.377" filterUnits="userSpaceOnUse" color-interpolation-filters="sRGB">
<feFlood flood-opacity="0" result="BackgroundImageFix"/>
<feBlend mode="normal" in="SourceGraphic" in2="BackgroundImageFix" result="shape"/>
<feTurbulence type="fractalNoise" baseFrequency="2.1833333969116211 2.1833333969116211" numOctaves="3" seed="6218" />
<feDisplacementMap in="shape" scale="7.3282442092895508" xChannelSelector="R" yChannelSelector="G" result="displacedImage" width="100%" height="100%" />
<feMerge result="effect1_texture_660_3858">
<feMergeNode in="displacedImage"/>
</feMerge>
</filter>
</defs>
</svg>
