<svg width="49" height="62" viewBox="0 0 49 62" fill="none" xmlns="http://www.w3.org/2000/svg">
<g filter="url(#filter0_d_199_2125)">
<path d="M20.2323 42.0027C20.2323 42.0027 19.8385 45.2335 21.4545 47.5755C21.7789 48.0453 22.4277 48.138 22.8749 47.7891C25.2196 45.9592 32.4047 39.7756 36.3332 29.9864C43.3404 12.5252 35.0902 5.0107 28.2324 6.10376C23.9702 6.78314 17.9973 10.1472 13.5014 18.1914C8.76262 26.6703 8.96537 37.1647 13.3147 40.4927C16.8952 43.2323 20.2323 42.0027 20.2323 42.0027Z" fill="#DCFF0E"/>
<path d="M28.3506 6.84473C31.4584 6.34941 34.9215 7.79307 36.8174 11.4336C38.722 15.0909 39.0956 21.0878 35.6367 29.707C31.78 39.317 24.7152 45.4013 22.4141 47.1973C22.3153 47.2743 22.1849 47.2633 22.1035 47.1865L22.0713 47.1494C21.3659 46.127 21.082 44.8778 20.9844 43.8408C20.9362 43.329 20.9345 42.8847 20.9453 42.5703C20.9507 42.4135 20.9591 42.2893 20.9658 42.207C20.9692 42.1661 20.9726 42.1355 20.9746 42.1162C20.9756 42.1066 20.9761 42.0995 20.9766 42.0957V42.0938L21.125 40.874L19.9756 41.2979C19.9733 41.2987 19.9673 41.301 19.959 41.3037C19.9423 41.3092 19.914 41.3179 19.875 41.3291C19.7957 41.3519 19.6721 41.3843 19.5107 41.416C19.1872 41.4796 18.7137 41.5412 18.1367 41.5254C16.99 41.494 15.4186 41.1584 13.7705 39.8975C11.8752 38.4472 10.752 35.2909 10.75 31.2734C10.7481 27.3021 11.8496 22.6849 14.1562 18.5576C18.5577 10.6823 24.3487 7.48261 28.3506 6.84473Z" stroke="black" stroke-width="1.5"/>
</g>
<defs>
<filter id="filter0_d_199_2125" x="0" y="0" width="49" height="62" filterUnits="userSpaceOnUse" color-interpolation-filters="sRGB">
<feFlood flood-opacity="0" result="BackgroundImageFix"/>
<feColorMatrix in="SourceAlpha" type="matrix" values="0 0 0 0 0 0 0 0 0 0 0 0 0 0 0 0 0 0 127 0" result="hardAlpha"/>
<feOffset dy="4"/>
<feGaussianBlur stdDeviation="5"/>
<feComposite in2="hardAlpha" operator="out"/>
<feColorMatrix type="matrix" values="0 0 0 0 0 0 0 0 0 0 0 0 0 0 0 0 0 0 0.2 0"/>
<feBlend mode="normal" in2="BackgroundImageFix" result="effect1_dropShadow_199_2125"/>
<feBlend mode="normal" in="SourceGraphic" in2="effect1_dropShadow_199_2125" result="shape"/>
</filter>
</defs>
</svg>
