<svg width="22" height="22" viewBox="0 0 22 22" fill="none" xmlns="http://www.w3.org/2000/svg">
<path d="M21.1114 12.5761C21.2404 12.7051 21.3129 12.88 21.3129 13.0625C21.3129 13.2449 21.2404 13.4199 21.1114 13.5489C20.9824 13.6779 20.8074 13.7504 20.625 13.7504C20.4426 13.7504 20.2676 13.6779 20.1386 13.5489L18.5625 11.9719L16.9864 13.5489C16.8574 13.6779 16.6824 13.7504 16.5 13.7504C16.3176 13.7504 16.1426 13.6779 16.0136 13.5489C15.8846 13.4199 15.8121 13.2449 15.8121 13.0625C15.8121 12.88 15.8846 12.7051 16.0136 12.5761L17.5905 11L16.0136 9.42389C15.8846 9.29489 15.8121 9.11992 15.8121 8.93748C15.8121 8.75505 15.8846 8.58008 16.0136 8.45108C16.1426 8.32207 16.3176 8.2496 16.5 8.2496C16.6824 8.2496 16.8574 8.32207 16.9864 8.45108L18.5625 10.028L20.1386 8.45108C20.2676 8.32207 20.4426 8.2496 20.625 8.2496C20.8074 8.2496 20.9824 8.32207 21.1114 8.45108C21.2404 8.58008 21.3129 8.75505 21.3129 8.93748C21.3129 9.11992 21.2404 9.29489 21.1114 9.42389L19.5345 11L21.1114 12.5761ZM5.15625 6.87498H2.75C2.38533 6.87498 2.03559 7.01985 1.77773 7.27771C1.51987 7.53557 1.375 7.88531 1.375 8.24998V13.75C1.375 14.1147 1.51987 14.4644 1.77773 14.7223C2.03559 14.9801 2.38533 15.125 2.75 15.125H5.15625C5.24742 15.125 5.33485 15.0888 5.39932 15.0243C5.46378 14.9598 5.5 14.8724 5.5 14.7812V7.21873C5.5 7.12757 5.46378 7.04013 5.39932 6.97567C5.33485 6.9112 5.24742 6.87498 5.15625 6.87498ZM13.5051 2.22147C13.3847 2.12187 13.234 2.06625 13.0778 2.06375C12.9216 2.06125 12.7692 2.11203 12.6457 2.20772L7.01078 6.59053C6.96898 6.62229 6.93501 6.6632 6.91147 6.71012C6.88794 6.75705 6.87546 6.80874 6.875 6.86123V15.1387C6.87516 15.191 6.88723 15.2426 6.91032 15.2895C6.9334 15.3364 6.96688 15.3774 7.0082 15.4094L12.6431 19.7922C12.7523 19.8771 12.8844 19.9271 13.0224 19.9357C13.1604 19.9443 13.2977 19.911 13.4166 19.8404C13.5211 19.7753 13.607 19.6843 13.6659 19.5762C13.7248 19.468 13.7547 19.3465 13.7526 19.2233V2.77147C13.7539 2.66705 13.7321 2.56363 13.6889 2.46857C13.6457 2.37351 13.582 2.28914 13.5025 2.22147H13.5051Z" fill="white"/>
</svg>
