<svg width="32" height="32" viewBox="0 0 32 32" fill="none" xmlns="http://www.w3.org/2000/svg">
<rect x="0.571429" y="0.571429" width="30.8571" height="30.8571" rx="12" fill="#1A1B1E" stroke="#2B2C30" stroke-width="1.14286"/>
<path d="M22.75 8.5H10.25C9.91848 8.5 9.60054 8.6317 9.36612 8.86612C9.1317 9.10054 9 9.41848 9 9.75V22.25C9 22.5815 9.1317 22.8995 9.36612 23.1339C9.60054 23.3683 9.91848 23.5 10.25 23.5H22.75C23.0815 23.5 23.3995 23.3683 23.6339 23.1339C23.8683 22.8995 24 22.5815 24 22.25V9.75C24 9.41848 23.8683 9.10054 23.6339 8.86612C23.3995 8.6317 23.0815 8.5 22.75 8.5ZM12.75 21.625C12.6679 21.6251 12.5866 21.609 12.5107 21.5776C12.4348 21.5462 12.3659 21.5002 12.3078 21.4422L11.0578 20.1922C10.9405 20.0749 10.8747 19.9159 10.8747 19.75C10.8747 19.5841 10.9405 19.4251 11.0578 19.3078C11.1751 19.1905 11.3341 19.1247 11.5 19.1247C11.6659 19.1247 11.8249 19.1905 11.9422 19.3078L12.75 20.1164L15.4328 17.4328C15.5501 17.3155 15.7091 17.2497 15.875 17.2497C16.0409 17.2497 16.1999 17.3155 16.3172 17.4328C16.4345 17.5501 16.5003 17.7091 16.5003 17.875C16.5003 18.0409 16.4345 18.1999 16.3172 18.3172L13.1922 21.4422C13.1341 21.5002 13.0652 21.5462 12.9893 21.5776C12.9134 21.609 12.8321 21.6251 12.75 21.625ZM22.125 21C22.125 21.1658 22.0592 21.3247 21.9419 21.4419C21.8247 21.5592 21.6658 21.625 21.5 21.625H17.125C16.9592 21.625 16.8003 21.5592 16.6831 21.4419C16.5658 21.3247 16.5 21.1658 16.5 21C16.5 20.8342 16.5658 20.6753 16.6831 20.5581C16.8003 20.4408 16.9592 20.375 17.125 20.375H20.875V11.625H12.125V16.625C12.125 16.7908 12.0592 16.9497 11.9419 17.0669C11.8247 17.1842 11.6658 17.25 11.5 17.25C11.3342 17.25 11.1753 17.1842 11.0581 17.0669C10.9408 16.9497 10.875 16.7908 10.875 16.625V11C10.875 10.8342 10.9408 10.6753 11.0581 10.5581C11.1753 10.4408 11.3342 10.375 11.5 10.375H21.5C21.6658 10.375 21.8247 10.4408 21.9419 10.5581C22.0592 10.6753 22.125 10.8342 22.125 11V21Z" fill="#CBCDD3"/>
</svg>
