<svg width="32" height="32" viewBox="0 0 32 32" fill="none" xmlns="http://www.w3.org/2000/svg">
<rect x="0.571429" y="0.571429" width="30.8571" height="30.8571" rx="12" fill="#1A1B1E" stroke="#2B2C30" stroke-width="1.14286"/>
<path d="M22.5875 9.38867C23.6437 9.38867 24.5 10.2209 24.5 11.2475V20.7521C24.5 21.7786 23.6437 22.6109 22.5875 22.6109H9.4125C8.35626 22.6109 7.5 21.7786 7.5 20.7521V11.2475C7.5 10.2209 8.35626 9.38867 9.4125 9.38867H22.5875ZM14.0875 16.411H11.1125C10.7898 16.411 10.523 16.6441 10.4808 16.9465L10.475 17.0306V17.4369L10.4817 17.5263C10.6199 18.4463 11.4118 18.8902 12.6 18.8902C13.7315 18.8902 14.5036 18.488 14.6941 17.6555L14.7183 17.5273L14.725 17.4376V17.0306C14.725 16.7169 14.4851 16.4576 14.174 16.4166L14.0875 16.411ZM20.8875 16.8208H17.0645L16.9779 16.8265C16.6667 16.8675 16.427 17.1267 16.427 17.4404C16.427 17.7541 16.6667 18.0134 16.9779 18.0544L17.0645 18.06H20.8875L20.974 18.0544C21.2851 18.0134 21.525 17.7541 21.525 17.4404C21.525 17.1267 21.2851 16.8675 20.974 16.8265L20.8875 16.8208ZM12.6 13.1082C11.8959 13.1082 11.325 13.663 11.325 14.3474C11.325 15.0318 11.8959 15.5865 12.6 15.5865C13.3041 15.5865 13.875 15.0318 13.875 14.3474C13.875 13.663 13.3041 13.1082 12.6 13.1082ZM20.8875 13.9325H17.0645L16.9779 13.9382C16.6667 13.9792 16.427 14.2384 16.427 14.5521C16.427 14.8658 16.6667 15.1251 16.9779 15.1661L17.0645 15.1717H20.8875L20.974 15.1661C21.2851 15.1251 21.525 14.8658 21.525 14.5521C21.525 14.2384 21.2851 13.9792 20.974 13.9382L20.8875 13.9325Z" fill="#CBCDD3"/>
</svg>
