<svg width="150" height="183" viewBox="0 0 150 183" fill="none" xmlns="http://www.w3.org/2000/svg">
<path d="M100.021 24.9855C100.021 48.2213 75.2486 63.9678 75.2486 63.9678C75.2486 63.9678 50.4766 49.3735 50.4766 24.9855C50.4766 11.3052 61.5683 0.213501 75.2486 0.213501C88.9289 0.213501 100.021 11.3052 100.021 24.9855Z" fill="#E3FE54"/>
<g clip-path="url(#paint0_angular_660_3108_clip_path)" data-figma-skip-parse="true"><g transform="matrix(0.00018828 -0.0174748 0.0174748 0.00018828 75.2502 24.6015)"><foreignObject x="-1032.87" y="-1032.87" width="2065.74" height="2065.74"><div xmlns="http://www.w3.org/1999/xhtml" style="background:conic-gradient(from 90deg,rgba(255, 255, 255, 0) 0deg,rgba(255, 255, 255, 1) 360deg);height:100%;width:100%;opacity:1"></div></foreignObject></g></g><path d="M85.1053 10.1723L75.4883 24.6015V7.13439C75.4077 7.13439 75.3309 7.12671 75.2502 7.12671C65.5987 7.12671 57.7754 14.9501 57.7754 24.6015C57.7754 34.253 65.5987 42.0764 75.2502 42.0764C84.9017 42.0764 92.7251 34.253 92.7251 24.6015C92.7251 18.6063 89.7063 13.3216 85.1091 10.1723H85.1053Z" data-figma-gradient-fill="{&#34;type&#34;:&#34;GRADIENT_ANGULAR&#34;,&#34;stops&#34;:[{&#34;color&#34;:{&#34;r&#34;:1.0,&#34;g&#34;:1.0,&#34;b&#34;:1.0,&#34;a&#34;:0.0},&#34;position&#34;:0.0},{&#34;color&#34;:{&#34;r&#34;:1.0,&#34;g&#34;:1.0,&#34;b&#34;:1.0,&#34;a&#34;:1.0},&#34;position&#34;:1.0}],&#34;stopsVar&#34;:[{&#34;color&#34;:{&#34;r&#34;:1.0,&#34;g&#34;:1.0,&#34;b&#34;:1.0,&#34;a&#34;:0.0},&#34;position&#34;:0.0},{&#34;color&#34;:{&#34;r&#34;:1.0,&#34;g&#34;:1.0,&#34;b&#34;:1.0,&#34;a&#34;:1.0},&#34;position&#34;:1.0}],&#34;transform&#34;:{&#34;m00&#34;:0.37656098604202271,&#34;m01&#34;:34.949661254882812,&#34;m02&#34;:57.587108612060547,&#34;m10&#34;:-34.949661254882812,&#34;m11&#34;:0.37656098604202271,&#34;m12&#34;:41.888088226318359},&#34;opacity&#34;:1.0,&#34;blendMode&#34;:&#34;NORMAL&#34;,&#34;visible&#34;:true}"/>
<path d="M85.043 10.583L75.4414 24.6013" stroke="black" stroke-width="2.30437" stroke-linecap="round"/>
<path d="M88.4922 14.0813L75.4367 24.6013" stroke="black" stroke-opacity="0.4" stroke-width="2.30437" stroke-linecap="round"/>
<path d="M91.3105 2.2613C95.1961 -0.729962 100.631 -0.184589 103.454 3.47962C106.274 7.1436 105.412 12.5373 101.526 15.5285L91.3105 2.2613Z" fill="#E3FE54"/>
<path d="M58.75 2.2613C54.8645 -0.729962 49.4294 -0.184589 46.6061 3.47962C43.7867 7.1436 44.649 12.5373 48.5345 15.5285L58.75 2.2613Z" fill="#E3FE54"/>
<path d="M24.3677 95.5137V97.748H16.7408V105.977H13.9693V97.748H6.53568V95.5137H10.897C11.5523 93.0967 11.6812 91.2598 11.7134 89.7988H7.95365V87.6074H14.4204V88.8105C14.4204 90.3682 14.4204 92.5166 13.69 95.5137H19.0826C19.5982 93.1074 19.6841 91.2812 19.7056 89.7988H15.774V87.6074H22.4126V88.9609C22.4126 90.5293 22.4126 92.6455 21.854 95.5137H24.3677ZM43.3814 94.1816V96.3516H35.8189V97.5977H41.2115V102.604H30.3189V103.785H41.7271V105.848H27.6333V100.67H38.5044V99.6602H27.6119V97.5977H33.0689V96.3516H25.5494V94.1816H43.3814ZM41.1255 86.9844V93.1504H27.7622V86.9844H41.1255ZM30.4478 89.1113V91.0449H38.397V89.1113H30.4478ZM61.0415 86.4258V105.977H58.313V96.1797H54.4244V93.9453H58.313V86.4258H61.0415ZM54.5318 88.4668C54.5318 94.375 52.6197 99.1875 45.7876 102.582L44.3697 100.434C49.3111 97.9951 51.3521 94.8906 51.7818 90.6152H45.2935V88.4668H54.5318ZM79.9693 86.4258V106.02H77.2408V86.4258H79.9693ZM73.9107 88.0586V95.5996H67.4654V99.1875C70.441 99.1768 72.9761 99.0049 75.8443 98.543L76.0806 100.756C72.8579 101.314 69.9576 101.443 66.3912 101.443H64.6294V93.4297H71.1177V90.2715H64.6079V88.0586H73.9107ZM90.1744 91.7539C90.1744 94.9121 91.7857 98.2852 95.0728 99.6602L93.5904 101.809C91.2808 100.831 89.691 98.8867 88.8208 96.502C87.9292 99.0908 86.3072 101.239 84.0083 102.303L82.44 100.133C85.6841 98.6934 87.3599 95.0625 87.3599 91.7539V90.5508H83.2134V88.3164H94.2564V90.5508H90.1744V91.7539ZM98.9615 86.4258V105.977H96.19V86.4258H98.9615ZM122.186 86.4258V90.207H124.829V92.4629H122.186V96.2012H119.436V86.4258H122.186ZM116.643 87.3496V95.4707H107.254V87.3496H116.643ZM109.961 89.498V93.3008H113.936V89.498H109.961ZM122.186 96.9746V102.303H111.938V103.613H122.745V105.762H109.252V100.326H119.458V99.0801H109.21V96.9746H122.186ZM141.801 88.123V89.9707C141.801 92.4199 141.801 95.1699 141.006 99.3164L138.256 99.0371C138.998 95.3418 139.03 92.5918 139.051 90.293H127.536V88.123H141.801ZM143.52 101.357V103.592H125.688V101.357H132.069V94.6328H134.797V101.357H143.52Z" fill="white"/>
<path d="M17.0391 150.377C17.0391 149.739 17.1666 149.356 17.4217 149.101C17.6767 148.91 18.0593 148.783 18.697 148.783H72.5172C73.0911 148.783 73.5375 148.91 73.7925 149.101C74.0476 149.356 74.1751 149.739 74.1751 150.377V157.838C74.1751 158.475 74.0476 158.922 73.7925 159.113C73.5375 159.368 73.0911 159.432 72.5172 159.432H52.3665V167.148C52.3665 167.785 52.239 168.232 51.9839 168.423C51.7288 168.678 51.2824 168.742 50.7085 168.742H41.781C41.1433 168.742 40.7607 168.678 40.5057 168.423C40.2506 168.232 40.1231 167.785 40.1231 167.148V159.432H18.697C18.0593 159.432 17.6767 159.368 17.4217 159.113C17.1666 158.922 17.0391 158.475 17.0391 157.838V150.377ZM70.2853 142.916C70.3491 143.554 70.2215 144 69.9665 144.127C69.6476 144.319 69.2012 144.446 68.6273 144.51C65.694 144.829 62.6331 145.084 59.5723 145.275C56.3839 145.53 53.323 145.658 50.2622 145.785C47.1375 145.977 44.0767 146.104 41.0796 146.104C38.0187 146.232 35.1492 146.232 32.4709 146.232C28.3898 146.232 25.4564 145.148 23.7347 142.916C21.9492 140.748 21.0564 137.304 21.0564 132.458V123.594C21.0564 122.957 21.184 122.574 21.4391 122.319C21.6941 122.128 22.0767 122 22.7144 122H31.6419C32.2158 122 32.6622 122.128 32.9173 122.319C33.1723 122.574 33.2999 122.957 33.2999 123.594V131.246C33.2999 132.777 33.6187 133.925 34.2564 134.626C34.8941 135.391 36.0419 135.71 37.7636 135.646C42.3549 135.583 47.3288 135.391 52.6216 135.136C57.8505 134.881 62.952 134.499 67.9896 133.925C68.5636 133.861 68.9462 133.925 69.2012 134.18C69.3925 134.435 69.5201 134.881 69.6476 135.519L70.2853 142.916ZM71.4331 179.838C71.4969 180.475 71.4331 180.922 71.178 181.177C70.8592 181.368 70.3491 181.495 69.7114 181.623C63.5897 182.197 57.5317 182.516 51.41 182.643C45.2883 182.707 39.039 182.707 32.726 182.58C28.6448 182.452 25.7115 181.368 23.9898 179.264C22.2043 177.096 21.3115 173.588 21.3115 168.806V163.832C21.3115 163.194 21.4391 162.811 21.6941 162.556C21.9492 162.365 22.3318 162.238 22.9695 162.238H31.897C32.4709 162.238 32.9173 162.365 33.1723 162.556C33.4274 162.811 33.555 163.194 33.555 163.832V167.594C33.555 169.125 33.8738 170.272 34.5115 170.91C35.1492 171.548 36.297 171.93 38.0187 171.994C43.1839 172.058 48.2854 172.058 53.3868 171.93C58.4245 171.803 63.5897 171.484 68.8824 171.038C69.4563 170.974 69.9027 171.038 70.2215 171.229C70.4766 171.42 70.6679 171.867 70.7954 172.632L71.4331 179.838Z" fill="white"/>
<path d="M90.6397 132.267C90.3846 137.241 90.2571 142.214 90.2571 147.188C90.1933 152.226 90.1933 157.519 90.3209 163.13C90.3209 164.661 90.5122 165.809 90.8948 166.446C91.1499 167.211 91.9151 167.53 93.1904 167.53H94.7846C95.2948 167.53 95.8049 167.53 96.3151 167.467C96.4426 167.467 96.5701 167.467 96.6977 167.403C96.8252 167.403 96.889 167.467 97.0165 167.467C96.889 167.02 96.889 166.51 96.889 165.936V164.342C96.889 160.643 96.889 157.009 96.9527 153.501C96.9527 150.058 97.0165 146.614 97.144 143.298C97.144 139.983 97.2716 136.73 97.3991 133.414C97.4629 130.226 97.5904 126.91 97.7817 123.594C97.7817 122.957 97.973 122.574 98.2281 122.319C98.4194 122.128 98.802 122 99.4397 122H114.489C115.063 122 115.509 122.128 115.764 122.319C116.019 122.574 116.147 122.957 116.147 123.594V130.672C116.147 131.31 116.019 131.756 115.764 131.948C115.509 132.203 115.063 132.267 114.489 132.267H109.132C108.877 137.241 108.75 142.214 108.75 147.188C108.686 152.226 108.686 157.519 108.814 163.13C108.814 164.661 109.005 165.809 109.387 166.446C109.643 167.211 110.408 167.53 111.683 167.53H113.405C114.043 167.53 114.616 167.53 115.127 167.467C115.701 167.403 116.083 167.467 116.338 167.594C116.529 167.849 116.657 168.232 116.785 168.869L117.167 176.33C117.231 176.968 117.103 177.351 116.848 177.606C116.53 177.733 116.083 177.861 115.509 177.924C114.616 177.924 113.851 177.988 113.277 178.052C112.64 178.052 112.066 178.052 111.556 178.116H108.303C105.625 178.116 103.457 177.669 101.863 176.777C100.205 175.82 98.9296 174.353 98.1643 172.44L98.3556 176.33C98.4194 176.968 98.2919 177.351 98.0368 177.606C97.718 177.733 97.2716 177.861 96.6977 177.924C95.1672 177.988 93.9557 178.052 93.0629 178.116H89.8107C85.7296 178.116 82.7963 177.032 81.0745 174.864C79.289 172.632 78.3963 169.188 78.3963 164.342C78.3963 160.643 78.3963 157.009 78.46 153.501C78.46 150.058 78.5238 146.614 78.6513 143.298C78.6513 139.983 78.7789 136.73 78.9064 133.414C78.9702 130.226 79.0977 126.91 79.289 123.594C79.289 122.957 79.4803 122.574 79.7354 122.319C79.9267 122.128 80.3093 122 80.947 122H94.402C94.9759 122 95.4223 122.128 95.6774 122.319C95.9325 122.574 96.06 122.957 96.06 123.594V130.672C96.06 131.31 95.9325 131.756 95.6774 131.948C95.4223 132.203 94.9759 132.267 94.402 132.267H90.6397ZM112.512 145.275C112.512 144.638 112.64 144.255 112.895 144C113.15 143.809 113.532 143.681 114.17 143.681H120.866V123.594C120.866 122.957 120.993 122.574 121.248 122.319C121.503 122.128 121.886 122 122.524 122H131.451C132.025 122 132.471 122.128 132.727 122.319C132.982 122.574 133.109 122.957 133.109 123.594V179.71C133.109 180.348 132.982 180.73 132.727 180.985C132.471 181.177 132.025 181.304 131.451 181.304H122.524C121.886 181.304 121.503 181.177 121.248 180.985C120.993 180.73 120.866 180.348 120.866 179.71V154.267H114.17C113.532 154.267 113.15 154.203 112.895 153.948C112.64 153.756 112.512 153.31 112.512 152.672V145.275Z" fill="white"/>
<defs>
<clipPath id="paint0_angular_660_3108_clip_path"><path d="M85.1053 10.1723L75.4883 24.6015V7.13439C75.4077 7.13439 75.3309 7.12671 75.2502 7.12671C65.5987 7.12671 57.7754 14.9501 57.7754 24.6015C57.7754 34.253 65.5987 42.0764 75.2502 42.0764C84.9017 42.0764 92.7251 34.253 92.7251 24.6015C92.7251 18.6063 89.7063 13.3216 85.1091 10.1723H85.1053Z"/></clipPath></defs>
</svg>
