<svg width="22" height="22" viewBox="0 0 22 22" fill="none" xmlns="http://www.w3.org/2000/svg">
<path d="M18.1557 15.5255C17.89 16.1393 17.5755 16.7043 17.2111 17.2238C16.7144 17.932 16.3077 18.4222 15.9943 18.6944C15.5084 19.1412 14.9879 19.37 14.4304 19.383C14.0302 19.383 13.5476 19.2692 12.9859 19.0382C12.4222 18.8083 11.9043 18.6944 11.4307 18.6944C10.934 18.6944 10.4013 18.8083 9.83148 19.0382C9.26082 19.2692 8.8011 19.3896 8.44961 19.4015C7.91506 19.4243 7.38225 19.1889 6.85041 18.6944C6.51096 18.3983 6.08638 17.8908 5.57775 17.1717C5.03203 16.4039 4.58337 15.5135 4.23188 14.4985C3.85545 13.402 3.66675 12.3403 3.66675 11.3124C3.66675 10.135 3.92117 9.11945 4.43078 8.26844C4.83128 7.58488 5.3641 7.04567 6.03096 6.64982C6.69782 6.25398 7.41836 6.05226 8.19432 6.03936C8.6189 6.03936 9.17569 6.17069 9.8676 6.4288C10.5576 6.68778 11.0006 6.81911 11.1948 6.81911C11.34 6.81911 11.8322 6.66555 12.6665 6.35939C13.4555 6.07547 14.1213 5.95791 14.6668 6.00422C16.145 6.12352 17.2555 6.70622 17.9941 7.75601C16.6721 8.55702 16.0181 9.67894 16.0311 11.1182C16.0431 12.2392 16.4498 13.1721 17.249 13.9128C17.6113 14.2566 18.0158 14.5223 18.4658 14.711C18.3682 14.9941 18.2652 15.2652 18.1557 15.5255ZM14.7655 2.18505C14.7655 3.06372 14.4445 3.88413 13.8047 4.6435C13.0325 5.54624 12.0985 6.06788 11.0857 5.98557C11.0728 5.88015 11.0653 5.76921 11.0653 5.65263C11.0653 4.8091 11.4325 3.90636 12.0846 3.16825C12.4102 2.79453 12.8243 2.48379 13.3264 2.23591C13.8274 1.99172 14.3014 1.85668 14.7471 1.83356C14.7601 1.95102 14.7655 2.06849 14.7655 2.18503V2.18505Z" fill="white"/>
</svg>
