<svg width="22" height="22" viewBox="0 0 22 22" fill="none" xmlns="http://www.w3.org/2000/svg">
<path d="M10.9999 3C9.23242 3.00189 7.5379 3.66475 6.28809 4.84315C5.03828 6.02155 4.33526 7.61927 4.33325 9.28578C4.33325 14.6644 10.3939 18.7266 10.6522 18.8966C10.7541 18.9639 10.8755 19 10.9999 19C11.1243 19 11.2457 18.9639 11.3476 18.8966C11.606 18.7266 17.6666 14.6644 17.6666 9.28578C17.6646 7.61927 16.9616 6.02155 15.7117 4.84315C14.4619 3.66475 12.7674 3.00189 10.9999 3ZM10.9999 7.00004C11.4794 7.00004 11.9481 7.1341 12.3468 7.38526C12.7454 7.63642 13.0561 7.9934 13.2396 8.41106C13.4231 8.82873 13.4711 9.28831 13.3776 9.7317C13.284 10.1751 13.0532 10.5824 12.7141 10.902C12.3751 11.2217 11.9431 11.4394 11.4729 11.5276C11.0026 11.6158 10.5152 11.5705 10.0722 11.3975C9.62923 11.2245 9.25061 10.9316 8.98423 10.5557C8.71786 10.1798 8.57568 9.73785 8.57568 9.28578C8.57568 8.67956 8.83109 8.09818 9.28572 7.66952C9.74035 7.24086 10.357 7.00004 10.9999 7.00004Z" fill="#616269"/>
</svg>
