<svg width="22" height="22" viewBox="0 0 22 22" fill="none" xmlns="http://www.w3.org/2000/svg">
<path fill-rule="evenodd" clip-rule="evenodd" d="M18.92 11.1876C18.92 10.6026 18.8675 10.0401 18.77 9.50012H11V12.6914H15.44C15.2488 13.7226 14.6675 14.5964 13.7938 15.1814V17.2514H16.46C18.02 15.8151 18.92 13.7001 18.92 11.1876Z" fill="#4285F4"/>
<path fill-rule="evenodd" clip-rule="evenodd" d="M10.9997 19.2502C13.2272 19.2502 15.0947 18.5114 16.4597 17.2514L13.7934 15.1814C13.0547 15.6764 12.1097 15.9689 10.9997 15.9689C8.85095 15.9689 7.0322 14.5177 6.38345 12.5677H3.6272V14.7052C4.9847 17.4014 7.7747 19.2502 10.9997 19.2502Z" fill="#34A853"/>
<path fill-rule="evenodd" clip-rule="evenodd" d="M6.38375 12.5674C6.21875 12.0724 6.125 11.5437 6.125 10.9999C6.125 10.4562 6.21875 9.92742 6.38375 9.43242V7.29492H3.6275C3.06875 8.40867 2.75 9.66867 2.75 10.9999C2.75 12.3312 3.06875 13.5912 3.6275 14.7049L6.38375 12.5674Z" fill="#FBBC05"/>
<path fill-rule="evenodd" clip-rule="evenodd" d="M10.9997 6.03125C12.2109 6.03125 13.2984 6.4475 14.1534 7.265L16.5197 4.89875C15.0909 3.5675 13.2234 2.75 10.9997 2.75C7.7747 2.75 4.9847 4.59875 3.6272 7.295L6.38345 9.4325C7.0322 7.4825 8.85095 6.03125 10.9997 6.03125Z" fill="#EA4335"/>
</svg>
